<svg xmlns="http://www.w3.org/2000/svg" xmlns:xlink="http://www.w3.org/1999/xlink" viewBox="0 0 671.47 382.37"><defs><style>.cls-1,.cls-6{fill:#003697;}.cls-1,.cls-4,.cls-8{opacity:0.1;}.cls-1,.cls-14,.cls-30,.cls-4,.cls-7{isolation:isolate;}.cls-2{fill:#eec5cd;}.cls-3{fill:#d48a9b;}.cls-5,.cls-7{fill:#fff;}.cls-30,.cls-7{opacity:0.2;}.cls-9{fill:url(#linear-gradient);}.cls-10{fill:#575989;}.cls-11{fill:#ffd7e3;}.cls-12{fill:#3f2b3b;}.cls-13{fill:#ead1bb;}.cls-14{opacity:0.05;}.cls-15{fill:#d4dfec;}.cls-16{fill:#dce6f2;}.cls-17{fill:#feffff;}.cls-18{fill:#464a5f;}.cls-19{fill:#939498;}.cls-20{fill:#e4edf9;}.cls-21{fill:#21db00;}.cls-22{fill:#04a51b;}.cls-23{fill:#4b4770;}.cls-24{fill:#e8eaf2;}.cls-25{fill:#f1cec8;}.cls-26{fill:#7a6f6e;}.cls-27{fill:#f6e2df;}.cls-28{fill:#a8a4a3;}.cls-29{fill:#f2dcdc;}.cls-31{fill:#a0c9e0;}.cls-32{fill:#9c9ca1;}.cls-33{font-size:30px;fill:#ff702d;}.cls-33,.cls-35{font-family:CenturyGothic, Century Gothic;}.cls-34{fill:#000;}.cls-35{font-size:10px;fill:#d9fc47;}</style><linearGradient id="linear-gradient" x1="-65.15" y1="63.06" x2="-65.15" y2="394.55" gradientTransform="translate(433.03 427.79) rotate(180)" gradientUnits="userSpaceOnUse"><stop offset="0" stop-color="gray" stop-opacity="0.25"/><stop offset="0.54" stop-color="gray" stop-opacity="0.12"/><stop offset="1" stop-color="gray" stop-opacity="0.1"/></linearGradient></defs><title>hero</title><g id="Layer_2" data-name="Layer 2"><g id="Layer_1-2" data-name="Layer 1"><ellipse class="cls-1" cx="365.68" cy="363.79" rx="86.68" ry="9.59"/><path class="cls-1" d="M448.27,268.69l.59,0h-.59v6.1H428v-26.3h20.28Z"/><rect class="cls-1" x="260.44" y="175.03" width="86.88" height="1.93"/><rect class="cls-1" x="260.44" y="179.53" width="86.88" height="7.4"/><rect class="cls-1" x="127.81" y="181.05" width="17.1" height="17.1"/><rect class="cls-1" x="563.44" y="101.83" width="17.1" height="17.1"/><rect class="cls-1" x="563.44" y="144.01" width="17.1" height="17.1"/><rect class="cls-1" x="498.15" y="186.2" width="17.1" height="17.1"/><rect class="cls-1" x="563.44" y="186.2" width="17.1" height="17.1"/><rect class="cls-1" x="498.15" y="228.39" width="17.1" height="17.1"/><rect class="cls-1" x="563.44" y="228.39" width="17.1" height="17.1"/><path class="cls-1" d="M42.38,98.28v9.79h58.53V98.28Zm5.83,9.17h-4.8V98.9h4.8Zm5.83,0h-4.8V98.9H54Zm5.81,0h-4.8V98.9h4.8Zm5.83,0h-4.8V98.9h4.8Zm5.82,0H66.7V98.9h4.8Zm5.83,0h-4.8V98.9h4.8Zm5.83,0h-4.8V98.9h4.8Zm5.82,0h-4.8V98.9H89Zm5.82,0H90V98.9h4.8Zm5.82,0H95.81V98.9h4.8Z"/><path class="cls-1" d="M42.38,155.24V165h58.53v-9.78Zm5.83,9.17h-4.8v-8.56h4.8Zm5.83,0h-4.8v-8.56H54Zm5.81,0h-4.8v-8.56h4.8Zm5.83,0h-4.8v-8.56h4.8Zm5.82,0H66.7v-8.56h4.8Zm5.83,0h-4.8v-8.56h4.8Zm5.83,0h-4.8v-8.56h4.8Zm5.82,0h-4.8v-8.56H89Zm5.82,0H90v-8.56h4.8Zm5.82,0H95.81v-8.56h4.8Z"/><path class="cls-1" d="M42.63,183.72c.23.93.5,1.84.78,2.75v-2.13h4.8v8.55H45.65c.07.2.15.41.23.61h55v-9.78ZM54,192.89h-4.8v-8.55H54Zm5.81,0h-4.8v-8.55h4.8Zm5.83,0h-4.8v-8.55h4.8Zm5.82,0H66.7v-8.55h4.8Zm5.83,0h-4.8v-8.55h4.8Zm5.83,0h-4.8v-8.55h4.8Zm5.82,0h-4.8v-8.55H89Zm5.82,0H90v-8.55h4.8Zm5.82,0H95.81v-8.55h4.8Z"/><polygon class="cls-2" points="5.18 153.64 0.64 153.88 5.18 183.04 16.25 213.79 19.52 205.74 446.85 173 446.77 159.94 382.4 136.36 5.18 153.64"/><polygon class="cls-3" points="388.77 230.36 384.13 228.23 361.05 217.62 360.73 212.84 382.69 222.63 387.18 224.63 388.77 230.36"/><polygon class="cls-3" points="69.47 245.97 68.2 252.99 64.83 248.45 59.88 241.75 56.4 237.06 58.31 233.23 61.17 236.5 62.8 238.36 65.6 241.56 65.94 241.94 69.47 245.97"/><path class="cls-3" d="M375.87,306.11c-.53,3.12-2.11,2.71-3.54,1.55a8.63,8.63,0,0,1-3-5.58l-12.37-91.45-.45-3.32-.54-3.95-.45-3.27-.89-6.64-.57-4.18,6.37-2.22.79,6,1.94,14.61.43,3.26.47,3.47.09.66.45,3.32.13,1,11.17,83.84A10.51,10.51,0,0,1,375.87,306.11Z"/><polygon class="cls-4" points="388.77 230.36 384.13 228.23 382.94 223.59 382.69 222.63 387.18 224.63 388.77 230.36"/><path class="cls-3" d="M420.9,336.26c-.32,2.75-1.8,3.08-3.32,2.65a6.32,6.32,0,0,1-4.26-4.58l-27-105.11-1.45-5.63L376.74,192l-1-4,5.43-6.38,2.57,9.93,37,141.91A7.36,7.36,0,0,1,420.9,336.26Z"/><polygon class="cls-4" points="364.58 218.28 362.21 215.92 361.12 214.82 356.94 210.63 356.49 207.31 355.95 203.37 361.23 208.54 363.57 210.84 364.04 214.31 364.13 214.96 364.58 218.28"/><polygon class="cls-3" points="378.57 222.72 371.88 222.72 371.66 222.5 364.13 214.96 363.03 213.86 356.49 207.31 343.36 194.18 340.66 191.48 345.11 189.9 349.1 193.81 355.5 200.09 363.14 207.58 374.98 219.18 378.57 222.72"/><path class="cls-3" d="M66.6,206.46l-1.47,6L59.68,234.8l-1.24,5-23,94a9.09,9.09,0,0,1-1.83,3.74c-2.21,2.65-3.6,1.39-4.38-.22a6.9,6.9,0,0,1-.43-4.69L58.31,212.94l1.59-6.48Z"/><polygon class="cls-3" points="100.7 206.15 96.45 210.43 79.59 227.45 78.42 228.63 76.08 230.99 69.56 237.56 68.4 238.73 66.08 241.06 65.6 241.56 64.37 242.79 61.5 239.6 62.8 238.36 67.29 233.99 69.58 231.76 70.73 230.65 77.3 224.26 79.62 222 80.78 220.87 91.16 210.78 95.92 206.15 100.7 206.15"/><polygon class="cls-4" points="80.78 220.87 80.58 222 79.59 227.45 78.42 228.63 69.56 237.56 70.54 231.76 70.73 230.65 79.62 222 80.78 220.87"/><polygon class="cls-4" points="65.94 241.94 69.47 245.97 68.2 252.99 64.83 248.45 65.63 243.77 65.94 241.94"/><polygon class="cls-4" points="77.3 224.26 76.51 228.63 76.08 230.99 69.56 237.56 68.4 238.73 66.08 241.06 66.49 238.73 67.29 233.99 69.58 231.76 70.73 230.65 77.3 224.26"/><path class="cls-3" d="M82.85,204.23l-1.32,7.18L79.61,222l-1.2,6.64L51.93,374.08c-2.42,6-4.19,4.65-5.24,2.51a9.39,9.39,0,0,1-.75-5.72L66.38,250.56l1.15-6.78.85-5.05,1.19-7L72.89,212l.66-3.91Z"/><polygon class="cls-2" points="0.64 153.88 16.57 185.43 446.77 159.94 382.4 136.36 0.64 153.88"/><polygon class="cls-3" points="0.64 153.88 0 179.69 16.25 213.79 16.57 185.43 0.64 153.88"/><polygon class="cls-4" points="59.91 206.47 66.6 206.47 65.13 212.49 58.31 212.94 59.91 206.47"/><polygon class="cls-4" points="73.61 208.06 82.85 204.24 81.55 211.42 72.94 211.97 73.61 208.06"/><polygon class="cls-4" points="95.92 206.15 100.7 206.15 96.45 210.43 91.16 210.78 95.92 206.15"/><polygon class="cls-4" points="345.11 189.9 349.1 193.81 343.36 194.18 340.66 191.48 345.11 189.9"/><polygon class="cls-4" points="360.41 187.03 361.2 193.01 354.61 193.45 354.04 189.25 360.41 187.03"/><polygon class="cls-4" points="383.71 191.53 376.74 191.99 375.7 187.98 381.13 181.6 383.71 191.53"/><polygon class="cls-3" points="446.77 159.94 447.41 185.43 16.25 213.79 16.57 185.43 446.77 159.94"/><polygon class="cls-4" points="22.94 190.84 122.05 186.38 122.37 203.91 23.58 208.05 22.94 190.84"/><polygon class="cls-5" points="21.99 189.89 121.1 185.43 121.42 202.95 22.62 207.1 21.99 189.89"/><polygon class="cls-4" points="128.74 185.75 352.76 172.68 352.44 189.25 128.11 203.59 128.74 185.75"/><polygon class="cls-5" points="127.79 184.79 351.81 171.73 351.49 188.3 127.15 202.63 127.79 184.79"/><polygon class="cls-4" points="356.59 172.05 441.99 166.63 442.63 182.88 357.55 188.62 356.59 172.05"/><polygon class="cls-5" points="355.63 171.09 441.04 165.67 441.68 181.92 356.59 187.66 355.63 171.09"/><rect class="cls-4" x="66.6" y="197.54" width="12.11" height="0.96" transform="translate(-5.19 1.98) rotate(-1.51)"/><rect class="cls-3" x="66.6" y="196.59" width="12.11" height="0.96" transform="translate(-5.17 1.98) rotate(-1.51)"/><rect class="cls-4" x="301.14" y="183.84" width="12.11" height="0.96" transform="translate(-4.75 8.16) rotate(-1.51)"/><rect class="cls-3" x="301.13" y="182.88" width="12.11" height="0.96" transform="translate(-4.73 8.16) rotate(-1.51)"/><rect class="cls-4" x="169.53" y="191.48" width="12.11" height="0.96" transform="translate(-5 4.69) rotate(-1.51)"/><rect class="cls-3" x="169.53" y="190.53" width="12.11" height="0.96" transform="translate(-4.97 4.69) rotate(-1.51)"/><rect class="cls-4" x="395.14" y="177.47" width="12.11" height="0.96" transform="translate(-4.55 10.63) rotate(-1.51)"/><rect class="cls-3" x="395.14" y="176.51" width="12.11" height="0.96" transform="translate(-4.52 10.63) rotate(-1.51)"/><polygon class="cls-3" points="547.48 297.92 536 297.28 535.23 264.35 535.04 256.49 547.15 254.27 547.22 264.38 547.48 297.92"/><polygon class="cls-3" points="538.55 292.19 479.59 328.83 478.32 339.98 484.69 340.3 484.69 332.33 523.25 310.67 476.73 368.35 476.73 377.27 484.37 377.27 483.74 367.39 537.59 306.21 544.28 306.84 601.01 371.21 602.28 382.05 609.93 382.37 608.65 371.21 563.72 315.13 593.68 335.84 594.32 344.76 600.37 345.08 599.73 334.25 542.69 290.27 538.55 292.19"/><path class="cls-6" d="M464.48,229.49a105,105,0,0,0,13.94-22.61c4.06-9,8.51-19.34,8.85-22.41.66-5.73,16.88-17.2,34.73-17.84,11.64-.42,29.76-9.5,41-15.77a83.53,83.53,0,0,1,34.39-10.63c13.12-1,25.46,1.59,19.25,16.82l-83.49,101S462,270.62,457.6,250.46a16,16,0,0,0-1-3C455.73,245.6,455.51,240.63,464.48,229.49Z"/><path class="cls-7" d="M470.75,231.5a108.16,108.16,0,0,0,14-22.84c3.79-8.39,7.8-17.79,8.12-20.64.61-5.48,16.15-16.44,33.23-17.05,11.13-.4,28.48-9.07,39.21-15.06a79.94,79.94,0,0,1,32.91-10.14c12.56-.94,24.37,1.52,18.44,16.07L550.5,258.76s-81.65,11.58-86-7.59a19.65,19.65,0,0,0-1-3C462.75,246.32,462.65,241.67,470.75,231.5Z"/><path class="cls-4" d="M547.22,264.38c-3.84,0-7.88,0-12,0l-.18-7.85,12.1-2.23Z"/><g class="cls-8"><polygon points="593.68 333.93 563.72 313.22 567.16 317.5 593.68 335.84 594.32 344.76 600.37 345.08 600.26 343.16 594.32 342.85 593.68 333.93"/><polygon points="484.69 330.42 484.69 332.33 520.43 312.25 523.25 308.75 484.69 330.42"/><polygon points="476.73 375.36 476.73 377.27 484.37 377.27 484.25 375.36 476.73 375.36"/><polygon points="484.69 338.39 478.54 338.08 478.32 339.98 484.69 340.3 484.69 338.39"/><polygon points="602.28 380.14 601.01 369.3 544.28 304.93 537.59 304.29 483.74 365.48 483.86 367.26 537.59 306.21 544.28 306.84 601.01 371.21 602.28 382.05 609.93 382.37 609.71 380.44 602.28 380.14"/></g><path class="cls-9" d="M332.29,308.76c10.46,8.34,17,.62,17,.62s17.63-12.57,18-14.33a16.46,16.46,0,0,1,1-3.12s2.9.5,2.9-.87,3-1.86,4.78-3,12.85-10.83,12.85-10.83.38-2.11,5.46-3.73c3.58-1.14,11.2-8.25,15.4-12.37.26-1.66,1.12-6.74,2.06-8.29a2.27,2.27,0,0,1,1.66-.72l.41-1.54a103.76,103.76,0,0,0,2.72-14.29c1.13-10,9.57-13.06,11.71-13.06S447.42,216,447.42,216L475,204.83s17-5.34,16.37-9a3,3,0,0,1,0-1.15c.34-1.7,1.82-3.68,3.31-5.32a38.94,38.94,0,0,1,3.32-3.23l9.16-5.68.71-.44c-3.09-4.94-9.87-11.43-9.87-11.43s2-3.73,4.29-3.73c1.51,0,9.95-2.66,15.41-4.42-.56-6-1.68-24.45,5.24-28.18l8.3-4.48s-.3.66-.73,1.66l1.23-.67s-.15.32-.37.85c.24,0,.5-.07.77-.09.75-2.66,1.2-4.79,1-5.48-.55-1.74-.66-13.57,4.33-19.67l-4-11.57A2.26,2.26,0,0,1,534.94,90h0l10.31-3.46a2.25,2.25,0,0,1,1-.1,2.3,2.3,0,0,1,2.48,1.52l2.93,8.52a33.66,33.66,0,0,1,3.74-.67c.87-1.57,1.91-3.08,1.75-4.82a8.31,8.31,0,0,0-1-2.85,32.47,32.47,0,0,1-2.8-8.24,3.57,3.57,0,0,1,0-1.75c.44-1.4,2.27-1.88,3.05-3.13a4.3,4.3,0,0,0,.13-3.5c-.51-1.84-1.28-3.61-1.69-5.48a8,8,0,0,1,.46-5.57,8.85,8.85,0,0,1,3.32-3.11c.35-1.65,1.54-3.2,1.16-4.84-.22-1-1-1.79-1.15-2.79-.25-1.79,1.55-3.16,3.13-4.09l14-8.27c1.24-.73,2.54-1.48,3.87-2.1a13.66,13.66,0,0,1,8-1.93c3.55.45,6.48,3,8.68,5.78s3.91,6,6.36,8.54c4.49,4.7,11,7,15.93,11.28a11,11,0,0,1,3.17,4.18c2,5.42-3,11-3,16.81,0,5.07,3.92,9.29,8,12.42,1.71,1.32,3.65,2.79,4,4.92.26,1.65-.5,3.25-1,4.85a16,16,0,0,0,.48,10c3.18,2.1,5.45,3.52,5.45,3.52s13.1,11,20.41,13.45a1.35,1.35,0,0,1,.74.44c2,1.23,7.55,4.7,8.58,6.52,1.26,2.24,9.82,10.7,4.28,13.69a31,31,0,0,1-10.33,3.48s-12.84,4-17.88,6.48A55.21,55.21,0,0,1,631.9,163a19.3,19.3,0,0,0,3.82,9.7h.14A16.48,16.48,0,0,0,638,175l-1.4.22.1.09c-3.66.58-7.41,1.16-11,.33s-7-3.41-7.7-7c-.7-3.87,1.71-8.51-.92-11.45a5.63,5.63,0,0,0-3.32-1.69c-1.74,2.3-14.57,18.62-26.2,15.05,2.65,7.07,7.37,19.41,8.27,19.76,1.26.5-12.85,5-12.85,5s-2.77-.45-6.75-.83c0,.48,0,1,.09,1.5.27,4.89.45,11.45-.39,13.28a9.15,9.15,0,0,0-.51,1.41,24.51,24.51,0,0,1-7.59,12.21l-1.23,1a16.42,16.42,0,0,0-4,5.23,20.39,20.39,0,0,1-12,10.32,26.44,26.44,0,0,1-12.43.75s-28.32,2.74-43.93,4-32.62,8.47-32.62,8.47a72.13,72.13,0,0,0-13.43,12.73c-.42.55-.82,1.1-1.21,1.65l2.42,4.28s-11.52,8.39-19.25,14.67v1.13c.38,8.34-10.71,20-10.71,20s-3.4,4.72-5.16,7.09,3,3.86,3,3.86-8,2.24-4.79,10.57.88,13.82.88,13.82l-4.65,22.27H399l1.9-15.43c-3.4-.25-12.47,13.68-12.47,13.68s-23.68-3.6-28-4.85-3.53-9.21,4.64-7.46a14.08,14.08,0,0,0,13.1-3.86s5.8-6.72,9.07-23.9A124.16,124.16,0,0,1,391.54,308c-4.5,6.82-7,16.83-8,17.37-1.39.75-18.76,20.41-18.76,20.41L358,339.09l11.76-13.69s-10.71.12-15.11,3.11S344.38,330,344.38,330,331,319.43,327.79,315.45,321.84,300.4,332.29,308.76Z"/><path class="cls-10" d="M528.07,131.25s5.7-1.74,5.45,1.24,3,5.71,3,5.71l-5.21,13.65-11.66-4.23L523.32,136Z"/><path class="cls-11" d="M528.07,131.25s5.7-1.74,5.45,1.24,3,5.71,3,5.71l-5.21,13.65-11.66-4.23L523.32,136Z"/><path class="cls-12" d="M558,58c-1.76,1-3.63,2.1-4.59,3.89a8.13,8.13,0,0,0-.46,5.57c.4,1.85,1.17,3.62,1.67,5.45a4.48,4.48,0,0,1-.13,3.49c-.77,1.25-2.57,1.73-3,3.13a3.53,3.53,0,0,0,0,1.74,32.93,32.93,0,0,0,2.75,8.21,8.29,8.29,0,0,1,1,2.85c.26,2.77-2.55,5-2.79,7.75a8.72,8.72,0,0,0,1.13,4.3,9.07,9.07,0,0,0,2.79,4c1.69,1.17,4,1.08,5.93.52s3.81-1.52,5.79-2,3.81-.52,5.47-1.4c2.84-1.5,4-4.87,4.85-8a12.57,12.57,0,0,0,.53-6.36,21.43,21.43,0,0,0-1.7-3.79,28.63,28.63,0,0,0-2.3-4.64c-1-1.39-2.38-2.44-2.8-4-.47-1.85.55-3.7,1.4-5.41a37,37,0,0,0,1.92-4.65,8.33,8.33,0,0,0,.57-4c-.49-2.8-3.39-4.5-6.13-5.25-2-.55-4.14-.79-6.11-1.52a9.34,9.34,0,0,0-2.61-1A6,6,0,0,0,558,58Z"/><path class="cls-13" d="M412.94,255.56l23,3.09H436s22.95-27.42,23.32-27.54l25.93-9.18,17.37-5.09L505,205.56l-23.07-.87-7.57,1.11L447.18,217s-16.75,7.2-18.86,7.2-10.42,3.1-11.54,13a104.09,104.09,0,0,1-2.65,14.24C413.44,254,412.94,255.56,412.94,255.56Z"/><path class="cls-14" d="M412.94,254.66l23,3.1H436s22.95-27.42,23.32-27.54L485.26,221,502.63,216,505,204.66l-23.07-.87-7.57,1.12-27.17,11.17s-16.75,7.2-18.86,7.2-10.42,3.1-11.54,13a104.38,104.38,0,0,1-2.65,14.24C413.44,253.1,412.94,254.66,412.94,254.66Z"/><path class="cls-4" d="M482.29,205.31l-1.12,1.89s8,4.27,7.3,5.92L500,208.47Z"/><path class="cls-4" d="M412.94,255.56l23,3.09c1.49-5.31,2.65-9.17,2.65-9.17l-15.87,2.73s-5.49-1.07-8.63-.78C413.44,254,412.94,255.56,412.94,255.56Z"/><path class="cls-15" d="M422.74,253.7s-9.56-1.86-10.67,0-2.11,8.81-2.11,8.81-18.74,43.91-22,61-8.93,23.82-8.93,23.82a13.79,13.79,0,0,1-12.91,3.85c-8.06-1.74-8.8,6.2-4.58,7.44s27.54,4.84,27.54,4.84,8.93-13.9,12.28-13.65l-1.86,15.39h9.55L413.68,343s2.23-5.46-.87-13.77,4.71-10.55,4.71-10.55-4.71-1.49-3-3.84,5.09-7.07,5.09-7.07,10.92-11.64,10.54-20S438.61,251,438.61,251Z"/><path class="cls-4" d="M422.74,253.7s-9.56-1.86-10.67,0-2.11,8.81-2.11,8.81-18.74,43.91-22,61-8.93,23.82-8.93,23.82a13.79,13.79,0,0,1-12.91,3.85c-8.06-1.74-8.8,6.2-4.58,7.44s27.54,4.84,27.54,4.84,8.93-13.9,12.28-13.65l-1.86,15.39h9.55L413.68,343s2.23-5.46-.87-13.77,4.71-10.55,4.71-10.55-4.71-1.49-3-3.84,5.09-7.07,5.09-7.07,10.92-11.64,10.54-20S438.61,251,438.61,251Z"/><path class="cls-4" d="M403.51,321.43s-3.32,22.46-7.69,24.07S403.51,321.43,403.51,321.43Z"/><path class="cls-4" d="M412.57,303.69c-.38.37-10.67,13.77-14.77,13.89S412.57,303.69,412.57,303.69Z"/><path class="cls-13" d="M428.82,250s11.28,29.4,16.37,20.35a36.41,36.41,0,0,1,2.78-4.17,71.52,71.52,0,0,1,13.23-12.71S478,246.26,493.33,245s43.27-4,43.27-4l3.61-3.11c.38-20.09-40.19-29.52-40.19-29.52s-31,12.78-42.68,16.5-13.64,9.29-13.64,9.29l-11.64,12.32Z"/><path class="cls-4" d="M428.82,250s11.28,29.4,16.37,20.35a36.41,36.41,0,0,1,2.78-4.17l-1.86-3.32a55.28,55.28,0,0,0-10-13,24.43,24.43,0,0,0-4.06-3.32Z"/><path class="cls-15" d="M442.09,259.4S431.67,246.63,428.82,248s-15.88,11-15.88,11-13.06,13.65-18.07,15.27-5.38,3.72-5.38,3.72-10.89,9.67-12.65,10.79-4.72,1.61-4.72,3-2.85.87-2.85.87a17.79,17.79,0,0,0-1,3.1c-.37,1.74-17.73,14.27-17.73,14.27s-6.46,7.69-16.75-.59-7.7,2.72-4.47,6.69,16.38,14.52,16.38,14.52,5.7,1.49,10.05-1.49S370.64,326,370.64,326l-11.59,13.65,6.75,6.7s17.11-19.6,18.48-20.35,5.46-19.25,13.65-22.95c0,0,23.33-8.93,30.89-15.27s20.35-15.75,20.35-15.75Z"/><path class="cls-4" d="M364.66,303.69c.75-.37,17.26,2.61,13.78,4.41S364.66,303.69,364.66,303.69Z"/><path class="cls-4" d="M382.54,295.75c.74.5,9.55,2.61,7.3,5S382.54,295.75,382.54,295.75Z"/><path class="cls-5" d="M474.35,205.81s6,.12,25.18,4.09,37.07,31.15,37.07,31.15a25.89,25.89,0,0,0,12.24-.74A20.16,20.16,0,0,0,560.62,230a16.38,16.38,0,0,1,3.91-5.21l1.21-1a24.45,24.45,0,0,0,7.47-12.21,8.64,8.64,0,0,1,.5-1.4c.83-1.81.66-8.35.38-13.23-.17-3.16-.38-5.62-.38-5.62l-64-12-3.64,2.27-9,5.66a38.58,38.58,0,0,0-3.29,3.23c-1.46,1.62-2.91,3.6-3.26,5.31a3.29,3.29,0,0,0,0,1.17C491.09,200.48,474.35,205.81,474.35,205.81Z"/><path class="cls-13" d="M570.49,84.39s6.2,8.69-1.49,24.56,32.53-9.18,32.53-9.18-15.13-22.83-12.9-27S570.49,84.39,570.49,84.39Z"/><circle class="cls-4" cx="576.2" cy="74.18" r="19.6"/><circle class="cls-13" cx="576.2" cy="72.7" r="19.6"/><path class="cls-4" d="M572.72,97.92s-6.44,10.25,13.28,4.55-15.51,38.95-15.51,38.95L556.6,127l5.45-25.3Z"/><path class="cls-16" d="M572.72,98.91s-6.44,10.26,13.28,4.55-15.51,39-15.51,39L556.6,128l5.45-25.32Z"/><path class="cls-4" d="M506.06,181.54a19.32,19.32,0,0,1,1.65,2.81c2.23,5,7.68,3.72,7.68,3.72,8.94,5.46,32.53,4,32.53,4s-5.21,8.69,4.71,5.71c6.11-1.83,15.27-1.41,21.47-.82-.16-3.17-.38-5.62-.38-5.62l-64-12Z"/><path class="cls-11" d="M497.05,169.71s8.43,8.18,10.67,13.15,7.69,3.72,7.69,3.72c8.93,5.46,32.52,4,32.52,4s-5.21,8.68,4.72,5.7,28,0,28,0,13.9-4.47,12.66-5-10-24.56-10-24.56a10.16,10.16,0,0,1-.66-4.12,8.5,8.5,0,0,1,2-5.23,12.31,12.31,0,0,1,4.65-3.32c9.67-4.22,26.79-14.88,26.79-14.88s43.67-6.46,36.48-8.94-20.1-13.4-20.1-13.4S612.18,104,608.21,98.49s-12.15-7.19-12.15-7.19L584.7,99.73,564.05,118.1h0l-1-11.14s-2.24-7.45-5.21-9.44-14.05,2-14.84,2.22h0s-11.41,33-10.91,39c.12,1.57-.58,3.8-1.66,6.22-.71,1.55-1.58,3.18-2.49,4.78a122.15,122.15,0,0,1-6.77,10.37s-17.62,6-19.85,6S497.05,169.71,497.05,169.71Z"/><polygon class="cls-4" points="564.04 120.21 566.28 130.01 587.74 118.35 585.69 100.73 565.03 119.09 565.03 119.08 564.04 120.21"/><polygon class="cls-11" points="563.05 119.22 565.28 129.02 586.75 117.36 584.7 99.74 564.04 118.1 564.04 118.09 563.05 119.22"/><path class="cls-4" d="M527.89,150.69c8.13,1.69,44.47,9.29,54.81,12.91a8.55,8.55,0,0,1,2-5.24c-10.26-4.7-41.92-18.21-54.31-12.46C529.67,147.45,528.8,149.09,527.89,150.69Z"/><path class="cls-4" d="M527.89,148.71c8.13,1.68,44.47,9.29,54.81,12.91a8.53,8.53,0,0,1,2-5.24c-10.26-4.71-41.92-18.22-54.31-12.47C529.67,145.46,528.8,147.11,527.89,148.71Z"/><path class="cls-11" d="M527.89,149.69c8.13,1.7,44.47,9.33,54.81,12.92a8.53,8.53,0,0,1,2-5.24c-10.28-4.71-41.92-18.22-54.31-12.46C529.67,146.46,528.8,148.11,527.89,149.69Z"/><circle class="cls-17" cx="536.5" cy="154.33" r="2.54"/><circle class="cls-17" cx="527.89" cy="172.13" r="2.54"/><circle class="cls-17" cx="556.6" cy="159.41" r="2.54"/><circle class="cls-17" cx="546.3" cy="178.02" r="2.54"/><circle class="cls-17" cx="543" cy="134.72" r="2.54"/><path class="cls-4" d="M572.48,162s10.42,25.61,8,29.08S572.48,162,572.48,162Z"/><path class="cls-4" d="M563.67,162c1.46-.37-6.2,6.88-7.07,13.52s-6.21,12.22-6.21,12.22l5.31-13S561.93,162.39,563.67,162Z"/><path class="cls-4" d="M530.43,159.4c-.75,1.11-11,3.1-12.17,14.64Z"/><path class="cls-4" d="M599.66,141.05c-1.24,1.12-15.27,10.54-20.22,10.73S599.66,141.05,599.66,141.05Z"/><path class="cls-4" d="M577.44,146.26s-2.11,3-4.22,3S577.44,146.26,577.44,146.26Z"/><path class="cls-4" d="M490.51,195.72c9,.3,39.07,1.18,43.44-.08.42-.12-26.6-1.37-32.93-2.61a24.57,24.57,0,0,1-7.25-2.6C492.31,192.05,490.85,194,490.51,195.72Z"/><path class="cls-4" d="M540.45,201.59s14.91,10.92,8.39,11S540.45,201.59,540.45,201.59Z"/><path class="cls-12" d="M572.81,95.81c-.61,1.55-.11,1.8-.46,3.19a10.58,10.58,0,0,0-.29,3.92c.18,1.86-1,4.07,0,5.66a4.89,4.89,0,0,1,.37.72,2.16,2.16,0,0,1-.93,2.18,5.41,5.41,0,0,0-1.76,1.6c-.91,1.77.83,4.28,0,6.11a3.51,3.51,0,0,1-1.26,1.36,16.13,16.13,0,0,1-4,2.1c-.94-1.47.11-3.62-.71-5.17a7,7,0,0,0-1.68-1.71,9.36,9.36,0,0,1-2.39-5.12c-.34-1.9-.39-3.86-.77-5.76-.62-3.12-2.08-6-2.42-9.19a1.37,1.37,0,0,1,.1-.85,1,1,0,0,1,.85-.37c2.89-.25,6.05.52,8.83,0C568.86,94,570.56,93.41,572.81,95.81Z"/><path class="cls-4" d="M542.5,100.72c.86,4,3.74,15,9.88,20,7.56,6.09,13.28,21.84,13.28,21.84l-1.73,4.09a12,12,0,0,0,3.71-1.74c1.74-1.24-4.09-25.8-4.09-25.8l-1-11.16s-2.23-7.45-5.21-9.43S543.29,100.44,542.5,100.72Z"/><path class="cls-11" d="M543,99.72c.86,4,3.73,15.06,9.87,20,7.57,6.08,13.28,21.84,13.28,21.84l-1.74,4.09a12.39,12.39,0,0,0,3.72-1.73c1.74-1.25-4.09-25.81-4.09-25.81l-1-11.14s-2.24-7.45-5.21-9.44S543.79,99.45,543,99.72Z"/><rect class="cls-18" x="536.61" y="88.68" width="15.27" height="32.26" rx="1.13" transform="translate(-4.78 180.69) rotate(-18.77)"/><rect class="cls-15" x="536.05" y="88.68" width="15.27" height="32.26" rx="1.13" transform="translate(-4.81 180.52) rotate(-18.77)"/><circle class="cls-19" cx="541.29" cy="98.57" r="2.4"/><path class="cls-13" d="M525.34,146.88v.87l9.3-4.77,1-4.69,1.67-8.16s18.85-27.66,6.31-28S531,122.94,531.68,125.29c.53,1.69-2.94,12-4.95,17.77C525.92,145.33,525.34,146.88,525.34,146.88Z"/><path class="cls-4" d="M517.15,164.5s-3.23-25.56,5-30L530.3,130s-6.7,15-4,15.57S537,139.19,537,139.19v16.13Z"/><path class="cls-4" d="M525.34,146.88v.87l9.3-4.77,1-4.69c-2.53,2-6.89,5.19-8.77,4.81l-.11,0C525.92,145.33,525.34,146.88,525.34,146.88Z"/><path class="cls-11" d="M516.68,163.5s-3.22-25.55,5-30l8.18-4.46s-6.7,15-4,15.57,10.67-6.39,10.67-6.39v16.13Z"/><circle class="cls-17" cx="563.05" cy="140.43" r="2.54"/><path class="cls-6" d="M477.84,261.27s24.69-1.91,33.94-19.75c0,0,18.8-37.29,34.1-41.43s43.65-13.39,55.44-27.73S618.06,147,618.06,147s3,11.63-6.54,25.33-13.07,34.74-19.76,57-9.24,31.2-21.35,32.53c-9.13,1-57.39.47-80.46,0C482.41,261.76,477.84,261.27,477.84,261.27Z"/><path class="cls-7" d="M477.84,261.27s24.69-1.91,33.94-19.75c0,0,18.8-37.29,34.1-41.43s43.65-13.39,55.44-27.73S618.06,147,618.06,147s3,11.63-6.54,25.33-13.07,34.74-19.76,57-9.24,31.2-21.35,32.53c-9.13,1-57.39.47-80.46,0C482.41,261.76,477.84,261.27,477.84,261.27Z"/><path class="cls-20" d="M484.05,261.31s23.61-1.85,32.45-19.13c0,0,18-36.1,32.58-40.11s41.73-13,53-26.84,16-24.53,16-24.53S621,162,611.83,175.23s-12.49,33.63-18.89,55.2-8.83,30.24-20.4,31.47c-8.73.93-54.86.46-76.92,0C488.42,261.78,484.05,261.31,484.05,261.31Z"/><path class="cls-13" d="M621.11,145.64s-11.42.74-14.89,2.11c-1.85.72-6.55,1.33-10.54,1.77a21.42,21.42,0,0,0-14.61,7.89c-3.25,4.12-4.89,9.21,1.56,13.06,12.9,7.69,28.54-14.14,28.54-14.14l13.64-2Z"/><path class="cls-11" d="M615.65,144.59c4.46-.31,9.43,20.41,9.43,20.41s8.18-1.74,13.15-4.23,17.62-6.44,17.62-6.44A30.17,30.17,0,0,0,666,150.85c5.45-3-3-11.41-4.22-13.64s-9.18-7-9.18-7L646.41,129l-28,5,18.11,4.22-2.26.69-6.07,1.86Z"/><path class="cls-11" d="M628.16,140.75l5.36,14.32c10.79,8.43,10-3.32,10-3.32l-9.2-12.88Z"/><path class="cls-4" d="M629.11,141.23l5.36,14.32c10.8,8.43,10-3.32,10-3.32l-9.21-12.88Z"/><circle class="cls-17" cx="640.03" cy="154.33" r="2.54"/><path class="cls-4" d="M559.42,62.92a3.52,3.52,0,0,1-2.88-3.39c0-1.94,1.67-3.71,1.23-5.61-.22-1-1-1.78-1.13-2.78-.25-1.79,1.53-3.15,3.08-4.08l13.78-8.24c3.28-2,6.89-4,10.68-3.52,3.5.45,6.39,3,8.55,5.76s3.84,6,6.27,8.51c4.42,4.69,10.86,7,15.66,11.24A11,11,0,0,1,617.78,65c2,5.4-2.94,11-2.91,16.76,0,5.06,3.86,9.25,7.83,12.38,1.69,1.33,3.59,2.79,3.93,4.91.27,1.64-.48,3.24-1,4.83-2.37,8.12,2.8,16.71,9.45,21.91,2,1.56,4.23,3.11,5,5.52,1.08,3.53-1.59,7-3.85,9.91-4,5.12-7.3,10.94-8.26,17.34s.77,13.45,5.6,17.77c-3.6.57-7.3,1.15-10.85.33s-6.94-3.4-7.58-7c-.7-3.85,1.69-8.48-.91-11.42-2-2.23-5.47-1.81-8.42-2.21a13.75,13.75,0,0,1-11.57-12.61c-.2-4.37,1.75-8.51,3.26-12.61s2.6-8.78.78-12.77c-2.93-6.41-12.49-9.09-12.9-16.12-.24-4.14,3-8.35,1.33-12.13-1.14-2.54-4-3.67-6.21-5.4-3.42-2.73-5.08-7-7.31-10.77a51.13,51.13,0,0,0-6.45-8.28c-.78-.84-2.25-3-3.42-3.32C562,61.75,560.9,63.14,559.42,62.92Z"/><path class="cls-12" d="M560.41,62.42A3.52,3.52,0,0,1,557.53,59c0-1.94,1.67-3.72,1.24-5.61-.23-1-1-1.79-1.13-2.79-.25-1.79,1.52-3.15,3.07-4.08l13.78-8.24c3.28-2,6.89-4,10.68-3.52,3.5.45,6.38,3,8.55,5.76s3.85,6,6.27,8.52c4.42,4.68,10.86,6.94,15.66,11.24a10.86,10.86,0,0,1,3.12,4.16c2,5.41-2.95,11-2.91,16.76,0,5.06,3.86,9.25,7.83,12.38,1.69,1.33,3.6,2.79,3.94,4.91.26,1.64-.49,3.24-1,4.84-2.37,8.11,2.81,16.7,9.45,21.9,2,1.56,4.23,3.12,5,5.53,1.07,3.53-1.59,7-3.85,9.91-4,5.11-7.31,10.93-8.27,17.33s.78,13.45,5.6,17.77c-3.59.58-7.3,1.16-10.84.34s-6.94-3.41-7.59-7c-.66-3.85,1.69-8.48-.9-11.41-2-2.24-5.47-1.82-8.43-2.21a13.77,13.77,0,0,1-11.57-12.62c-.19-4.37,1.75-8.51,3.26-12.61s2.6-8.75.78-12.73c-2.93-6.41-12.48-9.08-12.9-16.13-.24-4.13,3-8.35,1.33-12.12-1.14-2.55-4-3.68-6.22-5.41-3.42-2.72-5.07-7-7.3-10.77a51.11,51.11,0,0,0-6.46-8.27c-.77-.84-2.25-3-3.42-3.32C562.94,61.26,561.89,62.65,560.41,62.42Z"/><path class="cls-4" d="M559.05,53.62c-.22-1-1-1.79-1.12-2.78-.26-1.8,1.52-3.16,3.08-4.09l.31-.19a2.43,2.43,0,0,0-.17,1.33c.14,1,.9,1.8,1.13,2.78.43,1.89-1.21,3.67-1.23,5.61a3.51,3.51,0,0,0,2.88,3.39c1.48.22,2.53-1.17,3.88-.87,1.17.27,2.66,2.46,3.43,3.32a51.69,51.69,0,0,1,6.45,8.28c2.25,3.74,3.9,8,7.3,10.77,2.18,1.73,5.08,2.86,6.22,5.4,1.69,3.78-1.59,8-1.33,12.13.41,7,10,9.71,12.89,16.12,1.82,4,.73,8.63-.77,12.77s-3.45,8.24-3.26,12.61a13.75,13.75,0,0,0,11.57,12.61c3,.4,6.45,0,8.42,2.21,2.6,2.94.21,7.57.91,11.42.66,3.58,4,6.16,7.58,7a18.68,18.68,0,0,0,5.53.35,17,17,0,0,0,2.09,2.23c-3.59.58-7.3,1.16-10.84.33s-6.93-3.39-7.58-7c-.66-3.86,1.69-8.48-.91-11.42-2-2.23-5.47-1.81-8.42-2.2a13.77,13.77,0,0,1-11.57-12.61c-.19-4.38,1.74-8.52,3.26-12.62s2.6-8.78.77-12.76c-2.92-6.42-12.48-9.08-12.89-16.12-.24-4.14,3-8.35,1.33-12.14-1.13-2.53-4-3.66-6.22-5.39-3.42-2.73-5.06-7-7.3-10.78A51.62,51.62,0,0,0,568,65c-.78-.83-2.25-3-3.42-3.32-1.33-.3-2.41,1.09-3.89.87a3.51,3.51,0,0,1-2.88-3.39C557.84,57.29,559.49,55.51,559.05,53.62Z"/><path class="cls-4" d="M464.94,252s12.9,4.94,20.23,2.23,25.49-10.67,25.49-10.67S480.07,245.5,464.94,252Z"/><path class="cls-21" d="M355.21,115.7s-3,14.19,10.52,15.87l.83-1.58S356,120.11,355.21,115.7Z"/><path class="cls-21" d="M370.88,129.89l-3.16.66-.31.07s-8.42-6.84-8.31-22.08a38.32,38.32,0,0,0,4,6.36C366.46,119.32,370.25,125.21,370.88,129.89Z"/><path class="cls-21" d="M372,131.35a2,2,0,0,1-1.7.22c-8.1-1.89-5.36-28.28-5.36-28.28.45.21.94,3.57,2.8,7.9C371,118.81,374.54,129.44,372,131.35Z"/><path class="cls-21" d="M389.89,115.7s.52,14.19-13,15.87L376,130S389.06,120.11,389.89,115.7Z"/><path class="cls-21" d="M386,108.55c.1,15.27-10.82,22.07-10.82,22.07l-.32-.06-3.16-.67c.63-4.68,4.42-10.57,7.76-15A34.56,34.56,0,0,1,386,108.55Z"/><path class="cls-21" d="M374.82,130a5,5,0,0,1-1.81,1.38h0a3.65,3.65,0,0,1-.66.22c-2,.47-2.69-1-2.57-3.41.19-4.35,2.92-11.88,5.37-17.53a21.79,21.79,0,0,1,5.09-7.34S380.11,123.84,374.82,130Z"/><path class="cls-21" d="M372.56,94s-9,32.06-1.26,36.9S374.55,96.88,372.56,94Z"/><path class="cls-4" d="M355.21,115.7s-3,14.19,10.52,15.87l.83-1.58S356,120.11,355.21,115.7Z"/><path class="cls-4" d="M370.88,129.89l-3.16.66-.31.07s-8.42-6.84-8.31-22.08a38.32,38.32,0,0,0,4,6.36C366.46,119.32,370.25,125.21,370.88,129.89Z"/><path class="cls-4" d="M372,131.35a2,2,0,0,1-1.7.22c-8.1-1.89-5.36-28.28-5.36-28.28.45.21.94,3.57,2.8,7.9C371,118.81,374.54,129.44,372,131.35Z"/><path class="cls-4" d="M389.89,115.7s.52,14.19-13,15.87L376,130S389.06,120.11,389.89,115.7Z"/><path class="cls-4" d="M386,108.55c.1,15.27-10.82,22.07-10.82,22.07l-.32-.06-3.16-.67c.63-4.68,4.42-10.57,7.76-15A34.56,34.56,0,0,1,386,108.55Z"/><path class="cls-4" d="M374.82,130a5,5,0,0,1-1.81,1.38h0a3.65,3.65,0,0,1-.66.22c-2,.47-2.69-1-2.57-3.41.19-4.35,2.92-11.88,5.37-17.53a21.79,21.79,0,0,1,5.09-7.34S380.11,123.84,374.82,130Z"/><path class="cls-4" d="M372.56,94s-9,32.06-1.26,36.9S374.55,96.88,372.56,94Z"/><path class="cls-22" d="M355.21,115.7s-1.79,14.19,11.78,15.87l.83-1.58S356,120.11,355.21,115.7Z"/><path class="cls-22" d="M372.14,129.89l-3.15.66-.32.07s-9.68-6.84-9.57-22.08c0,0,2.48,2.66,5.31,6.36C367.72,119.32,371.51,125.21,372.14,129.89Z"/><path class="cls-4" d="M372.14,129.89l-3.15.66c-3-2.66-4.18-9.47-4.61-15.65C367.72,119.32,371.51,125.21,372.14,129.89Z"/><path class="cls-22" d="M373.2,131.35a2,2,0,0,1-1.69.22c-8.1-1.89-6.64-28.28-6.64-28.28.45.21,2.2,3.57,4.06,7.9C372.21,118.81,375.8,129.44,373.2,131.35Z"/><path class="cls-22" d="M389.89,115.7s1.78,14.19-11.78,15.87l-.83-1.58S389.06,120.11,389.89,115.7Z"/><path class="cls-22" d="M386,108.55c.1,15.27-9.56,22.07-9.56,22.07l-.32-.06-3.16-.67c.63-4.68,4.43-10.57,7.76-15C383.54,111.21,386,108.55,386,108.55Z"/><path class="cls-4" d="M380.73,114.92c-.41,5.76-1.46,12.1-4,15.07a5.39,5.39,0,0,1-.58.59l-3.16-.67C373.6,125.21,377.4,119.32,380.73,114.92Z"/><path class="cls-22" d="M376.08,130a5.08,5.08,0,0,1-1.8,1.38h0a4,4,0,0,1-.67.22c-2,.47-2.69-1-2.57-3.41.19-4.35,2.92-11.88,5.37-17.53,1.77-4.06,3.4-7.13,3.83-7.34C380.23,103.29,381.37,123.84,376.08,130Z"/><path class="cls-4" d="M373.2,131.35a2.29,2.29,0,0,1-1.27-.41c-3.81-2.38-3.89-11.28-3-19.75C372.21,118.81,375.8,129.44,373.2,131.35Z"/><path class="cls-4" d="M376.08,130c-.44.94-1,1.45-1.8,1.38h0a2.54,2.54,0,0,1-1.09-.41,5.75,5.75,0,0,1-2.15-2.78c.19-4.35,2.92-11.88,5.37-17.53C377.28,118.46,377.58,126.76,376.08,130Z"/><path class="cls-22" d="M372.56,94s-7.78,32.06,0,36.9S374.55,96.88,372.56,94Z"/><polygon class="cls-23" points="387.49 129.36 355.1 129.36 355.1 134.72 360.05 134.72 360.17 135.36 362.15 145.76 380.97 145.76 382.95 135.36 383.07 134.72 387.49 134.72 387.49 129.36"/><polygon class="cls-4" points="387.49 129.36 355.1 129.36 355.1 134.72 360.05 134.72 360.17 135.36 362.15 145.76 380.97 145.76 382.95 135.36 383.07 134.72 387.49 134.72 387.49 129.36"/><polygon class="cls-23" points="384.75 132.51 384.21 135.36 382.23 145.76 363.41 145.76 361.43 135.36 360.89 132.51 384.75 132.51"/><polygon class="cls-4" points="384.75 132.51 384.21 135.36 361.43 135.36 360.89 132.51 384.75 132.51"/><rect class="cls-23" x="356.37" y="129.36" width="32.38" height="5.36"/><path class="cls-24" d="M419,153.72c0,2.88-6.2,6.28-13.84,6.28s-13.84-3.4-13.84-6.28,6.2-4.17,13.84-4.17S419,150.84,419,153.72Z"/><path class="cls-4" d="M419,153.72c0,2.88-6.2,6.28-13.84,6.28s-13.84-3.4-13.84-6.28,6.2-4.17,13.84-4.17S419,150.84,419,153.72Z"/><ellipse class="cls-24" cx="405.14" cy="153.72" rx="13.84" ry="5.22"/><ellipse class="cls-4" cx="405.14" cy="153.72" rx="7.83" ry="2.95"/><path class="cls-11" d="M416.48,147.45c-1.33,3.43-3.4,4.43-5,4.65a5.33,5.33,0,0,1-2.41-.25l1-2a3.2,3.2,0,0,0,1.84,0,4,4,0,0,0,2.43-2.66c1-2.6-.26-3-1.14-3a5,5,0,0,0-.54.06l.76-1.62a6.35,6.35,0,0,1,.76-.13C415.56,142.35,418.35,142.62,416.48,147.45Z"/><path class="cls-25" d="M410.36,154.6a12.29,12.29,0,0,1-10.68,0l.08-.78.05-.58,10.42-.2.08.93Z"/><path class="cls-4" d="M411.86,149.78a14.73,14.73,0,0,1-.39,2.3,5.32,5.32,0,0,1-2.41-.24l1-2.05A3.2,3.2,0,0,0,411.86,149.78Z"/><path class="cls-4" d="M414.13,142.49a2.13,2.13,0,0,1-.3.58l-.08.11c-.22.33-.41.67-.6,1a5,5,0,0,0-.54.06l.76-1.62A6.35,6.35,0,0,1,414.13,142.49Z"/><path class="cls-4" d="M410.31,154c-1.85,1-8.77,1.27-10.55-.15l.05-.58,10.42-.2Z"/><path class="cls-11" d="M413.63,143.07l-.08.11a10.39,10.39,0,0,0-1.75,5.07c-.32,4.48-1,4.93-1.06,5.12-.54,1.36-9.83,1.89-11.23,0-1.15-1.56-2.27-5-1.75-6.86a3.82,3.82,0,0,0-.91-3,2.31,2.31,0,0,1,.52-3.22l.1-.07c2.66-1.69,7.3-1.78,7.3-1.78,4-.31,6.53.46,8.09,1.33l.2.12a2.28,2.28,0,0,1,.57,3.18h0Z"/><ellipse class="cls-4" cx="405" cy="142.64" rx="7.06" ry="1.67"/><ellipse class="cls-26" cx="405" cy="142.84" rx="7.06" ry="1.67"/><path class="cls-7" d="M406.48,141.79s-5.07.16-4.92,2A12.75,12.75,0,0,1,406.48,141.79Z"/><path class="cls-7" d="M407.91,142.25s-3,0-2.54,1.51c0,0,.7-.11.6-.5s1.94-.79,1.94-.79Z"/><path class="cls-27" d="M397.14,141.79s-.19,3.1,7.72,2.93,7.87-2.23,8-2.93h-.43s-.1,2.53-7.39,2.47-7.5-2.47-7.5-2.47Z"/><path class="cls-4" d="M414,141.28l-4.77,2.55a.45.45,0,0,1-.56-.12l-.08-.1a.58.58,0,0,1,.09-.83l.05,0,4.36-2.77A2.23,2.23,0,0,1,414,141.28Z"/><path class="cls-24" d="M408.7,142.6l12.39-7.86a1.82,1.82,0,0,1,.93-.29c.62,0,1.51.1,1.23,1.1a1.89,1.89,0,0,1-.94,1.13l-13.09,7a.44.44,0,0,1-.56-.11l-.08-.1a.59.59,0,0,1,.08-.84Z"/><path class="cls-4" d="M408.7,142.6l12.39-7.86a1.82,1.82,0,0,1,.93-.29c.62,0,1.51.1,1.23,1.1a1.89,1.89,0,0,1-.94,1.13l-13.09,7a.44.44,0,0,1-.56-.11l-.08-.1a.59.59,0,0,1,.08-.84Z"/><path class="cls-24" d="M408.7,142.5l12.39-7.85a1.74,1.74,0,0,1,.93-.3c.62,0,1.51.1,1.23,1.1a1.89,1.89,0,0,1-.94,1.13l-13.09,7a.46.46,0,0,1-.56-.11l-.08-.1a.59.59,0,0,1,.08-.84Z"/><path class="cls-4" d="M408,142.72s1.33-.28,1.15.07.57.79.57.79-1.37.33-1.57.13S408,142.72,408,142.72Z"/><path class="cls-28" d="M407.91,142.8s1.33-.28,1.15.07.57.8.57.8-1.37.32-1.57.12S407.91,142.8,407.91,142.8Z"/><path class="cls-29" d="M405.82,129a4.9,4.9,0,0,0-1.18,2.21,7.33,7.33,0,0,0,.07,2.29,13,13,0,0,0,.27,1.54c.07.3.26.61.4.42,0-.72-.15-1.43-.12-2.14a4.89,4.89,0,0,1,.67-2.11,10.63,10.63,0,0,0,.9-1.86c.1-.31.48-3.12-.05-2.65-.1.1-.23,1-.33,1.25A4.31,4.31,0,0,1,405.82,129Z"/><path class="cls-29" d="M406.05,133.66c0,.26.26.45.36.7a1.61,1.61,0,0,1,.08.48,3.57,3.57,0,0,1-.35,2.34A1.62,1.62,0,0,0,407,136a3.78,3.78,0,0,0,.12-.81q0-.39,0-.78c0-.39.12-1.4-.37-1.6S406.05,133.28,406.05,133.66Z"/><path class="cls-4" d="M397.86,146a3,3,0,0,0,2.27,1,4.32,4.32,0,0,1-2.39-.28Z"/><polygon class="cls-18" points="259.99 116.79 259.99 148.78 226.83 149.74 226.83 117.74 259.99 116.79"/><polygon class="cls-4" points="259.82 144.78 259.99 149.74 226.83 149.74 226.77 146.69 259.82 144.78"/><path class="cls-18" d="M270.12,150.35l-51.58,1.91h0a5,5,0,0,1,5.05-5l41.5-1.91a5,5,0,0,1,5.05,5Z"/><path class="cls-18" d="M335.32,116.25,152.5,122a3.21,3.21,0,0,1-3.21-3.2h0V8.94a3.2,3.2,0,0,1,3.2-3.2h0L335.32,0a3.21,3.21,0,0,1,3.21,3.19h0V113a3.2,3.2,0,0,1-3.17,3.23Z"/><polygon class="cls-5" points="334.15 108.52 153.28 114.25 153.28 19.31 334.15 13.57 334.15 108.52"/><ellipse class="cls-5" cx="243.39" cy="9.94" rx="1.59" ry="1.57"/><polygon class="cls-4" points="259.96 121.7 226.91 122.66 226.91 122.03 259.96 121.08 259.96 121.7"/><polygon class="cls-30" points="334.26 16.68 153.27 22.41 153.27 19.13 334.26 13.4 334.26 16.68"/><polygon class="cls-18" points="53.59 147.1 55.34 150.28 112.59 138.14 110.32 134.55 53.59 147.1"/><path class="cls-18" d="M46.72,150.19,38.06,98.77a1.64,1.64,0,0,1,1.34-1.89h.1l65.72-7a1.64,1.64,0,0,1,1.8,1.41l6.14,45Z"/><path class="cls-4" d="M46.72,150.19,38.06,98.77a1.64,1.64,0,0,1,1.34-1.89h.1l65.72-7a1.64,1.64,0,0,1,1.8,1.41l6.14,45Z"/><path class="cls-18" d="M47.73,150.19,39.06,98.77a1.64,1.64,0,0,1,1.36-1.89h.09l65.72-7a1.64,1.64,0,0,1,1.8,1.41l6.14,45Z"/><polygon class="cls-31" points="43.63 101.07 50.74 144.75 110.16 132.53 104.63 93.71 43.63 101.07"/><path class="cls-32" d="M55,149.28l-.42-.84-7.87,1.75,20,30.62a2.59,2.59,0,0,0,2.89,1.07L140,161.42a2.58,2.58,0,0,0,.84-4.55l-27.27-20.65-5.69,1.33.25.58Z"/><path class="cls-4" d="M55,149.28l-.42-.84-7.87,1.75,20,30.62a2.59,2.59,0,0,0,2.89,1.07L140,161.42a2.58,2.58,0,0,0,.84-4.55l-27.27-20.65-5.69,1.33.25.58Z"/><path class="cls-32" d="M56,149.28l-.41-.84-7.87,1.75,20,30.62a2.61,2.61,0,0,0,2.9,1.07L141,161.42a2.59,2.59,0,0,0,1.78-3.2,2.67,2.67,0,0,0-.93-1.35L114.6,136.22l-5.69,1.33.25.58Z"/><path class="cls-4" d="M87.4,161.82,110,155.94a.48.48,0,0,1,.41.1l10,9.12a.43.43,0,0,1,0,.61.49.49,0,0,1-.2.13L96.39,173a.44.44,0,0,1-.46-.14l-8.75-10.29a.45.45,0,0,1,.06-.63A.35.35,0,0,1,87.4,161.82Z"/><path class="cls-19" d="M87.9,161.32l22.61-5.9a.44.44,0,0,1,.41.1l10,9.1a.44.44,0,0,1,0,.62.46.46,0,0,1-.2.13l-23.9,7.06a.43.43,0,0,1-.45-.14l-8.76-10.24a.44.44,0,0,1,0-.61A.46.46,0,0,1,87.9,161.32Z"/><g class="cls-8"><path d="M56.05,153.54l1,1.64a.22.22,0,0,0,.21.09l3.42-.76a.21.21,0,0,0,.15-.24l0-.07-1.13-1.58a.23.23,0,0,0-.2-.08l-3.32.71a.19.19,0,0,0-.14.24A.08.08,0,0,0,56.05,153.54Z"/><path d="M60.53,152.6l1,1.64a.21.21,0,0,0,.22.09l3.42-.77a.19.19,0,0,0,.14-.24.09.09,0,0,0,0-.06l-1.13-1.58a.18.18,0,0,0-.2-.08l-3.32.71a.2.2,0,0,0-.13.25Z"/><path d="M64.88,151.67l1,1.63a.2.2,0,0,0,.2.09l3.43-.77a.2.2,0,0,0,.15-.24l0-.06-1.14-1.55a.2.2,0,0,0-.19-.08L65,151.4a.2.2,0,0,0-.12.26Z"/><path d="M69.16,150.77l1,1.61a.22.22,0,0,0,.22.1l3.4-.76a.21.21,0,0,0,.15-.26.11.11,0,0,0,0-.07l-1.11-1.56a.23.23,0,0,0-.22-.08l-3.28.71a.21.21,0,0,0-.15.26Z"/><path d="M68.81,153.23l1,1.64A.19.19,0,0,0,70,155l3.43-.76a.2.2,0,0,0,.14-.23l0-.07-1.14-1.59a.19.19,0,0,0-.2-.07l-3.31.71a.2.2,0,0,0-.14.25S68.8,153.22,68.81,153.23Z"/><path d="M64.38,154.18l1,1.63a.2.2,0,0,0,.21.08l3.43-.76a.19.19,0,0,0,.14-.24.07.07,0,0,0,0-.06L68,153.25a.2.2,0,0,0-.2-.08l-3.32.71a.21.21,0,0,0-.14.24Z"/><path d="M67.27,156.18l1,1.64a.22.22,0,0,0,.21.09l3.42-.77a.19.19,0,0,0,.14-.24.14.14,0,0,0,0-.06l-1.14-1.58a.18.18,0,0,0-.2-.08l-3.32.71a.19.19,0,0,0-.13.24Z"/><path d="M71.35,157.94l1,1.63a.23.23,0,0,0,.21.1L76,158.9a.19.19,0,0,0,.14-.24.14.14,0,0,0,0-.06L75,157a.18.18,0,0,0-.2-.08l-3.32.71a.19.19,0,0,0-.14.23Z"/><path d="M72.05,160.78l1.64,2.06a.2.2,0,0,0,.21.06l3.45-.89a.19.19,0,0,0,.14-.23.2.2,0,0,0,0-.08l-1.69-2.07a.2.2,0,0,0-.2-.07l-3.4.92a.18.18,0,0,0-.14.23A.21.21,0,0,0,72.05,160.78Z"/><path d="M76.56,159.65l1.68,2.12a.23.23,0,0,0,.21.07l4.5-1.25a.21.21,0,0,0,.14-.24.43.43,0,0,0,0-.07l-1.7-2.08a.2.2,0,0,0-.2-.07l-4.49,1.21a.19.19,0,0,0-.13.25S76.55,159.63,76.56,159.65Z"/><path d="M67.64,161.87l1.64,2.06a.19.19,0,0,0,.2.06l3.46-.89a.21.21,0,0,0,.14-.24.18.18,0,0,0,0-.07l-1.69-2.06a.17.17,0,0,0-.2-.06l-3.4.91a.19.19,0,0,0-.12.24A.08.08,0,0,0,67.64,161.87Z"/><path d="M63,163.08l1.64,2.06a.2.2,0,0,0,.2.06l3.45-.89a.21.21,0,0,0,.14-.25.25.25,0,0,0,0-.07l-1.69-2.07a.19.19,0,0,0-.2-.06l-3.4.91a.19.19,0,0,0-.14.24A.13.13,0,0,0,63,163.08Z"/><path d="M73.45,149.73l1,1.62a.2.2,0,0,0,.22.09l3.4-.76a.2.2,0,0,0,.15-.25.09.09,0,0,0,0-.07l-1.11-1.58a.2.2,0,0,0-.21-.08l-3.32.7a.22.22,0,0,0-.15.26A.18.18,0,0,0,73.45,149.73Z"/><path d="M73.17,152.24l1,1.62a.2.2,0,0,0,.22.09l3.39-.76a.2.2,0,0,0,.16-.25.15.15,0,0,0,0-.07l-1.11-1.56a.21.21,0,0,0-.22-.08l-3.32.7a.21.21,0,0,0-.12.26S73.16,152.23,73.17,152.24Z"/><path d="M77.61,148.78l1,1.61a.21.21,0,0,0,.23.09l3.4-.75a.22.22,0,0,0,.15-.26l0-.07-1.12-1.56a.21.21,0,0,0-.21-.08l-3.29.71a.21.21,0,0,0-.16.24Z"/><path d="M89.78,146.12l1.42,1.5a.18.18,0,0,0,.16,0l3-.7a.17.17,0,0,0,.13-.2.16.16,0,0,0,0-.09l-1.59-1.5a.18.18,0,0,0-.16,0l-2.85.7a.18.18,0,0,0-.12.22S89.77,146.1,89.78,146.12Z"/><path d="M93.68,145.23l1.41,1.5a.14.14,0,0,0,.16.05l3-.7a.16.16,0,0,0,.13-.19.13.13,0,0,0,0-.09l-1.59-1.51a.19.19,0,0,0-.16,0l-2.85.7a.17.17,0,0,0-.12.2A.12.12,0,0,0,93.68,145.23Z"/><path d="M89.87,148.56l1.41,1.5a.14.14,0,0,0,.16.05l3-.67a.17.17,0,0,0,.13-.2.22.22,0,0,0,0-.08L93,147.66a.16.16,0,0,0-.16,0l-2.85.71a.16.16,0,0,0-.1.21A0,0,0,0,0,89.87,148.56Z"/><path d="M85.85,149.49l1.33,1.43a.19.19,0,0,0,.2.06l2.93-.66a.21.21,0,0,0,.16-.26.21.21,0,0,0-.06-.1l-1.52-1.43a.19.19,0,0,0-.19-.05l-2.77.66a.22.22,0,0,0-.12.28A.25.25,0,0,0,85.85,149.49Z"/><path d="M88.91,154l1.33,1.43a.19.19,0,0,0,.2.06l2.93-.66a.2.2,0,0,0,.17-.24.16.16,0,0,0-.07-.11L92,153.05a.25.25,0,0,0-.19-.05l-2.77.66a.22.22,0,0,0-.12.28A.25.25,0,0,0,88.91,154Z"/><path d="M84.75,155l1.33,1.44a.24.24,0,0,0,.2.06l2.93-.67a.2.2,0,0,0,.16-.24.24.24,0,0,0-.06-.11L87.85,154a.25.25,0,0,0-.2-.06l-2.77.67a.21.21,0,0,0-.13.36Z"/><path d="M80.54,156l1.33,1.44a.21.21,0,0,0,.2.06l2.94-.67a.21.21,0,0,0,.15-.26.18.18,0,0,0-.06-.09L83.58,155a.19.19,0,0,0-.19,0l-2.77.66a.2.2,0,0,0-.13.26A.22.22,0,0,0,80.54,156Z"/><path d="M76.06,156.88l1.36,1.46a.25.25,0,0,0,.19,0l3-.66a.19.19,0,0,0,.14-.23.24.24,0,0,0-.06-.11l-1.54-1.45a.23.23,0,0,0-.18-.05l-2.79.67a.19.19,0,0,0-.15.23A.18.18,0,0,0,76.06,156.88Z"/><path d="M84.71,152.34,86,153.77a.21.21,0,0,0,.2.06l2.94-.66a.21.21,0,0,0,.15-.25.24.24,0,0,0-.06-.11l-1.51-1.43a.21.21,0,0,0-.2,0l-2.77.66a.21.21,0,0,0-.12.27A.22.22,0,0,0,84.71,152.34Z"/><path d="M80.65,153.28,82,154.71a.21.21,0,0,0,.2.06l2.93-.66a.21.21,0,0,0,.16-.24.2.2,0,0,0-.06-.11l-1.52-1.44a.19.19,0,0,0-.19,0l-2.77.66a.22.22,0,0,0-.13.28Z"/><path d="M76.3,154.2l1.33,1.43a.2.2,0,0,0,.19.06l2.94-.67a.2.2,0,0,0,.15-.25.17.17,0,0,0-.06-.1l-1.51-1.44a.21.21,0,0,0-.19,0l-2.77.66a.19.19,0,0,0-.14.24A.24.24,0,0,0,76.3,154.2Z"/><path d="M71.85,155.23l1.36,1.45a.22.22,0,0,0,.19.06l3-.67a.19.19,0,0,0,.15-.22.24.24,0,0,0-.06-.11l-1.54-1.45a.22.22,0,0,0-.19,0l-2.79.67a.19.19,0,0,0-.14.24A.22.22,0,0,0,71.85,155.23Z"/><path d="M88.89,151.35l1.33,1.44a.24.24,0,0,0,.2.06l2.93-.67a.2.2,0,0,0,.17-.24.19.19,0,0,0-.07-.11l-1.52-1.43a.22.22,0,0,0-.19-.06L89,151a.21.21,0,0,0-.13.26A.22.22,0,0,0,88.89,151.35Z"/><path d="M81.8,150.54,83.13,152a.2.2,0,0,0,.19.06l3-.66a.21.21,0,0,0,.15-.25.17.17,0,0,0-.06-.1l-1.52-1.44a.2.2,0,0,0-.19-.05l-2.77.66a.21.21,0,0,0-.14.26A.24.24,0,0,0,81.8,150.54Z"/><path d="M97.44,144.28l1.47,1.57a.14.14,0,0,0,.12,0l3.14-.73a.13.13,0,0,0,.09-.16.1.1,0,0,0,0-.05l-1.66-1.57a.12.12,0,0,0-.12,0l-2.94.73a.12.12,0,0,0-.1.14S97.42,144.27,97.44,144.28Z"/><path d="M101.22,143.47,102.7,145a.11.11,0,0,0,.12,0l3.13-.73a.13.13,0,0,0,.1-.15l0-.06-1.66-1.57a.11.11,0,0,0-.11,0l-3,.73a.12.12,0,0,0-.07.15Z"/><path d="M105.1,142.55l1.33,1.46a.14.14,0,0,0,.12,0l2.93-.8a.14.14,0,0,0,.08-.17l0-.05L108,141.76a.09.09,0,0,0-.1,0l-2.77.61a.14.14,0,0,0,0,.18Z"/><path d="M109.19,143.91l1.33,1.46a.15.15,0,0,0,.13,0l2.92-.8a.13.13,0,0,0,.09-.16l0-.06-1.51-1.27a.11.11,0,0,0-.11,0l-2.76.61a.12.12,0,0,0,0,.16Z"/><path d="M108.7,146.56l1.28,1.38a.16.16,0,0,0,.17.05l2.81-.77a.16.16,0,0,0,.12-.21.22.22,0,0,0,0-.08l-1.43-1.2a.15.15,0,0,0-.14,0l-2.66.59a.17.17,0,0,0-.14.19A.15.15,0,0,0,108.7,146.56Z"/><path d="M105.38,149.93l1.28,1.38a.14.14,0,0,0,.16.05l2.82-.77a.16.16,0,0,0,.12-.2.22.22,0,0,0-.05-.08l-1.44-1.21a.15.15,0,0,0-.14,0l-2.65.59a.17.17,0,0,0-.15.18A.19.19,0,0,0,105.38,149.93Z"/><path d="M101.38,151l1.28,1.38a.17.17,0,0,0,.17,0l2.81-.76a.19.19,0,0,0,.12-.22.18.18,0,0,0-.05-.07l-1.44-1.2a.11.11,0,0,0-.13,0l-2.66.59a.15.15,0,0,0-.14.18A.18.18,0,0,0,101.38,151Z"/><path d="M109.14,148.94l1.28,1.39a.22.22,0,0,0,.17,0l2.81-.77a.17.17,0,0,0,.13-.2.15.15,0,0,0-.06-.09L112,148.11a.23.23,0,0,0-.14,0l-2.66.6a.18.18,0,0,0-.14.2A.16.16,0,0,0,109.14,148.94Z"/><path d="M108.49,151.93l1.93,1.74a.16.16,0,0,0,.16,0l2.8-.79a.16.16,0,0,0,.11-.2.1.1,0,0,0,0-.08l-2.08-1.83a.17.17,0,0,0-.17,0l-2.65.88a.17.17,0,0,0-.11.2A.16.16,0,0,0,108.49,151.93Z"/><path d="M101.73,145.79l1.32,1.46a.11.11,0,0,0,.13,0l2.92-.79a.12.12,0,0,0,.09-.14.08.08,0,0,0,0-.07L104.64,145h-.11l-2.76.61a.13.13,0,0,0-.06.16Z"/><path d="M98,146.73l1.28,1.38a.2.2,0,0,0,.17,0l2.81-.77a.16.16,0,0,0,.11-.21.12.12,0,0,0,0-.08l-1.43-1.2a.16.16,0,0,0-.15,0l-2.65.59a.17.17,0,0,0-.14.2A.2.2,0,0,0,98,146.73Z"/><path d="M97.17,149.4l1.3,1.37a.16.16,0,0,0,.16,0l2.82-.77a.16.16,0,0,0,.11-.21.1.1,0,0,0,0-.08l-1.42-1.21a.2.2,0,0,0-.15,0l-2.66.58a.18.18,0,0,0-.16.18A.17.17,0,0,0,97.17,149.4Z"/><path d="M93.2,150.36l1.28,1.39a.16.16,0,0,0,.17.05l2.81-.77a.18.18,0,0,0,.12-.21.16.16,0,0,0-.06-.08l-1.42-1.2a.17.17,0,0,0-.15,0l-2.65.59a.16.16,0,0,0-.14.2A.16.16,0,0,0,93.2,150.36Z"/><path d="M93.91,147.62,95.19,149a.16.16,0,0,0,.17.05l2.81-.77a.17.17,0,0,0,.12-.21.14.14,0,0,0-.05-.08l-1.43-1.21a.15.15,0,0,0-.14,0l-2.66.59a.16.16,0,0,0-.15.17A.16.16,0,0,0,93.91,147.62Z"/><path d="M97.24,151.87l1.28,1.39a.21.21,0,0,0,.17.05l2.81-.77a.18.18,0,0,0,.12-.21.22.22,0,0,0-.05-.08L100.13,151a.17.17,0,0,0-.14,0l-2.65.58a.18.18,0,0,0-.15.19A.16.16,0,0,0,97.24,151.87Z"/><path d="M93.33,152.93l1.22,1.32a.19.19,0,0,0,.21.06l2.71-.73a.22.22,0,0,0,.15-.27.61.61,0,0,0-.07-.1l-1.33-1.14a.22.22,0,0,0-.18,0l-2.57.57a.2.2,0,0,0-.18.24A.36.36,0,0,0,93.33,152.93Z"/><path d="M105.58,144.83l1.32,1.46a.13.13,0,0,0,.13,0l2.92-.79a.12.12,0,0,0,.09-.15.13.13,0,0,0,0-.07L108.49,144h-.11l-2.76.61a.13.13,0,0,0-.05.17Z"/><path d="M105,147.45l1.28,1.39a.17.17,0,0,0,.17,0l2.82-.77a.17.17,0,0,0,.11-.2.22.22,0,0,0,0-.08l-1.43-1.21a.16.16,0,0,0-.15,0l-2.65.58a.17.17,0,0,0-.14.2A.2.2,0,0,0,105,147.45Z"/><path d="M101.21,148.51l1.28,1.38a.21.21,0,0,0,.17.05l2.82-.77a.17.17,0,0,0,.11-.22.15.15,0,0,0,0-.07l-1.43-1.2a.17.17,0,0,0-.15,0l-2.65.59a.17.17,0,0,0-.14.19A.36.36,0,0,0,101.21,148.51Z"/><path d="M85.81,147l1.41,1.5a.18.18,0,0,0,.16,0l3-.7a.17.17,0,0,0,.13-.2.12.12,0,0,0-.05-.09l-1.59-1.5a.17.17,0,0,0-.15,0l-2.86.7a.16.16,0,0,0-.12.2A.2.2,0,0,0,85.81,147Z"/><path d="M81.76,148l1.33,1.44a.22.22,0,0,0,.19.06l2.94-.67a.22.22,0,0,0,.16-.25.24.24,0,0,0-.06-.11L84.8,147a.2.2,0,0,0-.19-.05l-2.77.67a.2.2,0,0,0-.14.25A.15.15,0,0,0,81.76,148Z"/><path d="M77.42,151.35l1,1.6a.19.19,0,0,0,.21.1l3.4-.76a.21.21,0,0,0,.17-.24.36.36,0,0,0,0-.09l-1.12-1.55a.2.2,0,0,0-.22-.08l-3.27.7a.2.2,0,0,0-.16.25A.14.14,0,0,0,77.42,151.35Z"/><path d="M55.18,151.94l3.35-.77a.2.2,0,0,1,.2.07l.59.78a.19.19,0,0,1,0,.27.09.09,0,0,1-.07,0l-3.47.81a.2.2,0,0,1-.22-.09l-.47-.81a.19.19,0,0,1,.07-.26Z"/><path d="M59.79,150.94l3.32-.77a.19.19,0,0,1,.2.07l.59.77a.2.2,0,0,1,0,.28l-.07,0-3.47.81a.21.21,0,0,1-.22-.09l-.47-.81a.19.19,0,0,1,.08-.26A.11.11,0,0,1,59.79,150.94Z"/><path d="M64.25,150l3.35-.77a.2.2,0,0,1,.2.07l.59.77a.19.19,0,0,1,0,.27l-.07,0-3.48.81a.18.18,0,0,1-.21-.09l-.47-.81a.21.21,0,0,1,.07-.27Z"/><path d="M68.59,149l3.36-.78a.19.19,0,0,1,.2.07l.59.77a.21.21,0,0,1,0,.28l-.07,0-3.48.8a.2.2,0,0,1-.21-.09l-.47-.81a.2.2,0,0,1,.08-.27Z"/><path d="M73,148l3.32-.77a.24.24,0,0,1,.21.08l.57.75a.22.22,0,0,1,0,.3l-.08,0-3.44.8a.21.21,0,0,1-.23-.1l-.45-.78a.21.21,0,0,1,.08-.29Z"/><path d="M77.28,147.13l3.32-.77a.21.21,0,0,1,.22.07l.57.76a.2.2,0,0,1,0,.28l-.08,0-3.45.8a.2.2,0,0,1-.22-.1l-.46-.78a.21.21,0,0,1,.09-.29Z"/><path d="M81.48,146.25l3.07-.74a.19.19,0,0,1,.2.06l.6.62a.21.21,0,0,1,0,.3.12.12,0,0,1-.08,0l-3,.77a.19.19,0,0,1-.2-.06l-.66-.66a.21.21,0,0,1,.05-.3A.19.19,0,0,1,81.48,146.25Z"/><path d="M85.55,145.31l3.16-.77a.21.21,0,0,1,.17.05l.66.7a.15.15,0,0,1,0,.22.13.13,0,0,1-.09.05l-3.12.79a.18.18,0,0,1-.16,0l-.7-.71a.16.16,0,0,1,0-.23Z"/><path d="M89.62,144.36l3.16-.77a.16.16,0,0,1,.16,0l.67.67a.17.17,0,0,1,0,.23l-.08.05-3.13.79a.18.18,0,0,1-.16-.05l-.66-.71a.16.16,0,0,1,0-.23Z"/><path d="M93.68,143.52l3.17-.77a.2.2,0,0,1,.16.05l.66.69a.18.18,0,0,1,0,.25.15.15,0,0,1-.07,0l-3.1.79a.2.2,0,0,1-.16,0l-.69-.71a.18.18,0,0,1,0-.25Z"/><path d="M97.53,142.6l3.26-.79a.11.11,0,0,1,.12,0l.73.76a.12.12,0,0,1,0,.17.1.1,0,0,1-.07,0l-3.22.81a.13.13,0,0,1-.12,0l-.77-.79a.12.12,0,0,1,0-.17A.05.05,0,0,1,97.53,142.6Z"/><path d="M101.42,141.77l3.27-.8a.12.12,0,0,1,.11,0l.73.76a.12.12,0,0,1,0,.17.1.1,0,0,1-.07,0l-3.22.82a.11.11,0,0,1-.12,0l-.77-.78a.13.13,0,0,1,0-.18A.1.1,0,0,1,101.42,141.77Z"/><path d="M105.3,140.88l3-.67a.13.13,0,0,1,.12,0l.59.72a.13.13,0,0,1,0,.17l-.05,0-2.83.75a.12.12,0,0,1-.12,0l-.77-.78a.12.12,0,0,1,0-.17A.11.11,0,0,1,105.3,140.88Z"/><path d="M109,140l3-.66a.12.12,0,0,1,.13,0l.58.72a.14.14,0,0,1,0,.18l0,0-2.84.75a.13.13,0,0,1-.12,0l-.77-.79a.12.12,0,0,1,0-.17A.1.1,0,0,1,109,140Z"/><path d="M57.53,155.94l1.11,1.59a.2.2,0,0,0,.2.08l5.81-1.36a.21.21,0,0,0,.15-.23.2.2,0,0,0,0-.08l-1.23-1.63a.21.21,0,0,0-.2-.06l-5.69,1.39a.19.19,0,0,0-.14.24S57.51,155.92,57.53,155.94Z"/><path d="M59.3,158.07l1.11,1.77a.19.19,0,0,0,.21.08l7-1.66a.19.19,0,0,0,.14-.23.12.12,0,0,0,0-.08l-1.38-1.72a.2.2,0,0,0-.2-.07l-6.74,1.62a.2.2,0,0,0-.15.23Z"/><path d="M60.87,160.41l1.33,1.92a.21.21,0,0,0,.21.08l9.29-2.3a.19.19,0,0,0,.14-.24l0-.07-1.5-1.92a.19.19,0,0,0-.2-.07l-9.18,2.3a.19.19,0,0,0-.08.26A.08.08,0,0,0,60.87,160.41Z"/><path d="M82.15,158.31l1.7,2.05a.2.2,0,0,0,.2.07l20.46-5.11a.2.2,0,0,0,.14-.25.12.12,0,0,0-.05-.09l-2.08-2.08a.21.21,0,0,0-.2-.05L82.26,158a.21.21,0,0,0-.15.25A.2.2,0,0,0,82.15,158.31Z"/><path d="M103.26,153l2,2a.18.18,0,0,0,.17.05l4.19-1.12a.17.17,0,0,0,.11-.21.16.16,0,0,0,0-.07l-2.08-2a.18.18,0,0,0-.16,0l-4.11,1.18a.17.17,0,0,0-.09.23Z"/><path d="M113.38,151.76l.91,1a.1.1,0,0,0,.12,0l3.1-.83a.11.11,0,0,0,.09-.14.1.1,0,0,0,0-.07l-1.1-1a.13.13,0,0,0-.12,0l-2.91.91a.13.13,0,0,0-.06.17Z"/><path d="M116,149.69l1.09,1.14a.11.11,0,0,0,.13,0l2.85-1a.11.11,0,0,0,.08-.14.09.09,0,0,0,0-.06l-1.08-1a.13.13,0,0,0-.12,0l-2.87.8a.13.13,0,0,0,0,.17Z"/><path d="M118.12,151.67l-.78-.67a.12.12,0,0,1,0-.17l0,0,2.84-1a.11.11,0,0,1,.13,0l.89.85a.13.13,0,0,1,0,.18l-.06,0-2.94.76A.13.13,0,0,1,118.12,151.67Z"/><path d="M121,149.91c.24.24.66.71.83.87a.15.15,0,0,0,.13,0l3-.8a.13.13,0,0,0,.09-.16l0-.06-1.05-.94a.15.15,0,0,0-.13,0l-2.74.88a.14.14,0,0,0-.07.16S121,149.91,121,149.91Z"/><path d="M112.74,148l1.58,1.53a.13.13,0,0,0,.12,0l7.62-2a.13.13,0,0,0,.09-.16.1.1,0,0,0,0,0l-1.85-1.54a.11.11,0,0,0-.11,0l-7.36,2a.12.12,0,0,0-.07.15S112.73,148,112.74,148Z"/><path d="M112.22,145.69l1.63,1.46H114l5.73-1.33a.13.13,0,0,0,.09-.16l0-.06L117.87,144a.11.11,0,0,0-.11,0l-5.49,1.43a.12.12,0,0,0-.11.14A.15.15,0,0,0,112.22,145.69Z"/><path d="M112.75,143.19l1.54,1.38a.11.11,0,0,0,.11,0l2.95-.66a.14.14,0,0,0,.09-.16s0-.05,0-.06l-1.83-1.55a.13.13,0,0,0-.12,0l-2.65.85a.13.13,0,0,0-.08.16Z"/><path d="M108.72,141.81l1.49,1.37h.11l4.65-1.11a.13.13,0,0,0,.09-.15.25.25,0,0,0,0-.07l-1.78-1.49a.24.24,0,0,0-.12,0l-4.38,1.24a.12.12,0,0,0-.06.17Z"/></g><path class="cls-18" d="M56.05,153.05l1,1.63a.21.21,0,0,0,.21.09L60.7,154a.2.2,0,0,0,.15-.24l0-.06-1.13-1.6a.23.23,0,0,0-.2-.08l-3.32.71A.19.19,0,0,0,56,153S56,153,56.05,153.05Z"/><path class="cls-18" d="M60.53,152.1l1,1.63a.21.21,0,0,0,.22.09l3.42-.77a.2.2,0,0,0,.11-.26l0,0-1.13-1.58a.19.19,0,0,0-.2-.07l-3.32.71a.2.2,0,0,0-.1.26Z"/><path class="cls-18" d="M64.88,151.16l1,1.63a.17.17,0,0,0,.2.09l3.43-.76a.2.2,0,0,0,.15-.23l0-.07-1.14-1.59a.18.18,0,0,0-.19-.07l-3.32.71a.18.18,0,0,0-.14.23A.14.14,0,0,0,64.88,151.16Z"/><path class="cls-18" d="M69.16,150.24l1,1.61a.2.2,0,0,0,.22.09l3.4-.76a.21.21,0,0,0,.16-.24.12.12,0,0,0,0-.08l-1.11-1.56a.23.23,0,0,0-.22-.08l-3.28.7a.22.22,0,0,0-.16.25Z"/><path class="cls-18" d="M68.81,152.76l1,1.64a.22.22,0,0,0,.21.09l3.43-.77a.19.19,0,0,0,.14-.24l0-.06-1.14-1.58a.18.18,0,0,0-.2-.08l-3.31.71a.2.2,0,0,0-.14.25S68.8,152.75,68.81,152.76Z"/><path class="cls-18" d="M64.38,153.67l1,1.63a.23.23,0,0,0,.21.1l3.43-.77a.19.19,0,0,0,.14-.24.09.09,0,0,0,0-.06L68,152.76a.21.21,0,0,0-.2-.08l-3.32.71a.2.2,0,0,0-.13.24Z"/><path class="cls-18" d="M67.27,155.68l1,1.64a.19.19,0,0,0,.21.08l3.43-.76a.2.2,0,0,0,.14-.25.09.09,0,0,0,0-.06l-1.13-1.58a.2.2,0,0,0-.2-.07l-3.32.71a.19.19,0,0,0-.14.23A.11.11,0,0,0,67.27,155.68Z"/><path class="cls-18" d="M71.35,157.41l1,1.64a.2.2,0,0,0,.21.08l3.43-.76a.19.19,0,0,0,.14-.24.14.14,0,0,0,0-.06L75,156.49a.18.18,0,0,0-.2-.08l-3.32.71a.19.19,0,0,0-.14.23Z"/><path class="cls-18" d="M72.05,160.28l1.64,2.05a.21.21,0,0,0,.21.07l3.45-.9a.19.19,0,0,0,.14-.23.2.2,0,0,0,0-.08l-1.69-2.07a.22.22,0,0,0-.2-.07l-3.4.92a.2.2,0,0,0-.14.25Z"/><path class="cls-18" d="M76.56,159.15l1.68,2.11a.21.21,0,0,0,.21.07l4.5-1.25a.2.2,0,0,0,.14-.23l0-.08-1.7-2.07a.2.2,0,0,0-.2-.07l-4.49,1.21a.21.21,0,0,0-.14.24A.25.25,0,0,0,76.56,159.15Z"/><path class="cls-18" d="M67.64,161.39l1.64,2.05a.2.2,0,0,0,.2.07l3.46-.9a.19.19,0,0,0,.14-.23.22.22,0,0,0,0-.08l-1.69-2.07a.19.19,0,0,0-.2-.07l-3.4.92a.21.21,0,0,0-.14.24A.16.16,0,0,0,67.64,161.39Z"/><path class="cls-18" d="M63,162.58l1.64,2.06a.18.18,0,0,0,.2.06l3.45-.89a.21.21,0,0,0,.14-.25l0-.06-1.69-2.08a.19.19,0,0,0-.2-.06l-3.4.91a.19.19,0,0,0-.14.24A.16.16,0,0,0,63,162.58Z"/><path class="cls-18" d="M73.45,149.23l1,1.61a.21.21,0,0,0,.22.1l3.4-.76a.21.21,0,0,0,.15-.26.11.11,0,0,0,0-.07l-1.11-1.56a.24.24,0,0,0-.21-.08l-3.32.71a.2.2,0,0,0-.12.27A.05.05,0,0,0,73.45,149.23Z"/><path class="cls-18" d="M73.17,151.74l1,1.61a.21.21,0,0,0,.22.1l3.39-.76a.2.2,0,0,0,.17-.24.36.36,0,0,0,0-.09l-1.11-1.55a.24.24,0,0,0-.22-.09l-3.32.71a.2.2,0,0,0-.11.27S73.17,151.73,73.17,151.74Z"/><path class="cls-18" d="M77.61,148.29l1,1.61a.21.21,0,0,0,.23.09l3.4-.75a.22.22,0,0,0,.15-.26l0-.07-1.12-1.55a.22.22,0,0,0-.21-.09l-3.29.71a.2.2,0,0,0-.15.25A.14.14,0,0,0,77.61,148.29Z"/><path class="cls-18" d="M89.78,145.63l1.42,1.5a.16.16,0,0,0,.16.05l3-.71a.15.15,0,0,0,.12-.19.12.12,0,0,0,0-.08l-1.59-1.51a.16.16,0,0,0-.16,0l-2.85.7a.17.17,0,0,0-.12.21A.15.15,0,0,0,89.78,145.63Z"/><path class="cls-18" d="M93.68,144.74l1.41,1.49a.18.18,0,0,0,.16.05l3-.7a.17.17,0,0,0,.13-.2.2.2,0,0,0,0-.09l-1.59-1.5a.18.18,0,0,0-.16,0l-2.85.71a.16.16,0,0,0-.12.2S93.66,144.71,93.68,144.74Z"/><path class="cls-18" d="M89.87,148.06l1.41,1.5a.2.2,0,0,0,.16.05l3-.71a.16.16,0,0,0,.12-.19.13.13,0,0,0,0-.09L93,147.12a.16.16,0,0,0-.16,0l-2.85.7a.19.19,0,0,0-.12.22Z"/><path class="cls-18" d="M85.85,149l1.33,1.43a.19.19,0,0,0,.2.06l2.93-.67a.2.2,0,0,0,.17-.24.19.19,0,0,0-.07-.11L88.89,148a.19.19,0,0,0-.19-.05l-2.77.66a.21.21,0,0,0-.13.27A.22.22,0,0,0,85.85,149Z"/><path class="cls-18" d="M88.91,153.5l1.33,1.44a.21.21,0,0,0,.2.06l2.93-.67a.2.2,0,0,0,.16-.25.17.17,0,0,0-.06-.1L92,152.54a.19.19,0,0,0-.19,0l-2.77.66a.21.21,0,0,0-.13.26A.22.22,0,0,0,88.91,153.5Z"/><path class="cls-18" d="M84.75,154.45l1.33,1.43a.19.19,0,0,0,.2.06l2.93-.66a.21.21,0,0,0,.16-.26.21.21,0,0,0-.06-.1l-1.46-1.45a.21.21,0,0,0-.2,0l-2.77.66a.21.21,0,0,0-.2.21A.26.26,0,0,0,84.75,154.45Z"/><path class="cls-18" d="M80.54,155.5l1.33,1.43a.24.24,0,0,0,.2.06l2.94-.66a.21.21,0,0,0,.15-.25.17.17,0,0,0-.06-.11l-1.52-1.43a.19.19,0,0,0-.19,0l-2.77.66a.21.21,0,0,0-.12.27A.2.2,0,0,0,80.54,155.5Z"/><path class="cls-18" d="M76.06,156.38l1.36,1.45a.22.22,0,0,0,.19.06l3-.67a.18.18,0,0,0,.14-.23.21.21,0,0,0-.06-.1l-1.54-1.47a.19.19,0,0,0-.18-.06l-2.79.67a.19.19,0,0,0-.18.2A.21.21,0,0,0,76.06,156.38Z"/><path class="cls-18" d="M84.71,151.83,86,153.27a.23.23,0,0,0,.2.06l2.94-.67a.21.21,0,0,0,.15-.26.21.21,0,0,0-.06-.1l-1.51-1.43a.21.21,0,0,0-.2-.05l-2.77.67a.21.21,0,0,0-.12.27A.18.18,0,0,0,84.71,151.83Z"/><path class="cls-18" d="M80.65,152.76,82,154.2a.2.2,0,0,0,.2.05l2.93-.66a.21.21,0,0,0,.16-.24.24.24,0,0,0-.06-.11l-1.52-1.43a.22.22,0,0,0-.19-.06l-2.77.67a.21.21,0,0,0-.13.27A.18.18,0,0,0,80.65,152.76Z"/><path class="cls-18" d="M76.3,153.7l1.33,1.43a.2.2,0,0,0,.19.06l2.94-.66a.22.22,0,0,0,.16-.25.14.14,0,0,0-.07-.1l-1.51-1.44a.19.19,0,0,0-.19-.05l-2.77.66a.2.2,0,0,0-.13.26A.41.41,0,0,0,76.3,153.7Z"/><path class="cls-18" d="M71.85,154.75l1.36,1.46a.19.19,0,0,0,.19,0l3-.66a.2.2,0,0,0,.15-.23.24.24,0,0,0-.06-.11l-1.54-1.45a.19.19,0,0,0-.19-.05l-2.79.66a.19.19,0,0,0-.14.24A.13.13,0,0,0,71.85,154.75Z"/><path class="cls-18" d="M88.89,150.85l1.33,1.43a.19.19,0,0,0,.2.06l2.93-.66a.2.2,0,0,0,.17-.24.16.16,0,0,0-.07-.11l-1.52-1.44a.25.25,0,0,0-.19,0L89,150.5a.22.22,0,0,0-.13.26A.19.19,0,0,0,88.89,150.85Z"/><path class="cls-18" d="M81.8,150l1.33,1.44a.22.22,0,0,0,.19.06l3-.67a.21.21,0,0,0,.15-.26.27.27,0,0,0-.06-.1l-1.52-1.43a.2.2,0,0,0-.19,0l-2.77.67a.21.21,0,0,0-.13.27A.18.18,0,0,0,81.8,150Z"/><path class="cls-18" d="M97.44,143.78l1.47,1.57a.11.11,0,0,0,.12,0l3.14-.73a.12.12,0,0,0,.09-.15l0-.06-1.66-1.57a.16.16,0,0,0-.12,0l-2.94.73a.13.13,0,0,0-.09.16A.05.05,0,0,0,97.44,143.78Z"/><path class="cls-18" d="M101.22,142.94l1.48,1.58a.13.13,0,0,0,.12,0l3.13-.72a.14.14,0,0,0,.1-.16l0-.06L104.35,142a.11.11,0,0,0-.11,0l-3,.73a.12.12,0,0,0-.1.14S101.2,142.93,101.22,142.94Z"/><path class="cls-18" d="M105.1,142.05l1.33,1.46a.13.13,0,0,0,.12,0l2.93-.8a.12.12,0,0,0,.08-.16l0-.05L108,141.26a.09.09,0,0,0-.1,0l-2.77.61a.13.13,0,0,0,0,.17Z"/><path class="cls-18" d="M109.19,143.41l1.33,1.46a.14.14,0,0,0,.13,0l2.92-.8a.12.12,0,0,0,.09-.14.16.16,0,0,0,0-.07l-1.51-1.27a.11.11,0,0,0-.11,0l-2.76.61a.13.13,0,0,0,0,.17Z"/><path class="cls-18" d="M108.7,146.06l1.28,1.38a.16.16,0,0,0,.17.05l2.81-.77a.16.16,0,0,0,.12-.2.2.2,0,0,0,0-.09l-1.43-1.2a.12.12,0,0,0-.14,0l-2.66.58a.18.18,0,0,0-.11.22Z"/><path class="cls-18" d="M105.38,149.44l1.28,1.39a.14.14,0,0,0,.16,0l2.82-.77a.16.16,0,0,0,.11-.21.2.2,0,0,0,0-.08l-1.44-1.21a.17.17,0,0,0-.14,0l-2.65.59a.16.16,0,0,0-.15.17A.12.12,0,0,0,105.38,149.44Z"/><path class="cls-18" d="M101.38,150.47l1.28,1.39a.18.18,0,0,0,.17,0l2.81-.77a.17.17,0,0,0,.12-.21.22.22,0,0,0-.05-.08l-1.44-1.2a.15.15,0,0,0-.13,0l-2.66.58a.19.19,0,0,0-.14.21A.25.25,0,0,0,101.38,150.47Z"/><path class="cls-18" d="M109.14,148.44l1.28,1.39a.15.15,0,0,0,.17,0l2.81-.77a.16.16,0,0,0,.12-.2.22.22,0,0,0,0-.08L112,147.61a.14.14,0,0,0-.14,0l-2.66.59a.17.17,0,0,0-.14.19A.2.2,0,0,0,109.14,148.44Z"/><path class="cls-18" d="M108.49,151.43l1.93,1.74a.16.16,0,0,0,.16,0l2.8-.79a.16.16,0,0,0,.11-.2s0-.06,0-.09l-2.08-1.82a.17.17,0,0,0-.17,0l-2.65.88a.16.16,0,0,0-.1.21A.18.18,0,0,0,108.49,151.43Z"/><path class="cls-18" d="M101.73,145.29l1.32,1.46a.16.16,0,0,0,.13,0l2.92-.8a.12.12,0,0,0,.09-.15.16.16,0,0,0,0-.07l-1.51-1.27h-.11l-2.76.61a.12.12,0,0,0,0,.16Z"/><path class="cls-18" d="M98,146.22l1.28,1.39a.18.18,0,0,0,.17,0l2.81-.77a.18.18,0,0,0,.12-.21.22.22,0,0,0,0-.08l-1.43-1.21a.2.2,0,0,0-.15,0l-2.65.59a.16.16,0,0,0-.11.21A0,0,0,0,0,98,146.22Z"/><path class="cls-18" d="M97.17,148.9l1.28,1.39a.17.17,0,0,0,.17,0l2.82-.76a.18.18,0,0,0,.11-.22.18.18,0,0,0,0-.07l-1.43-1.21a.18.18,0,0,0-.14,0l-2.66.6a.16.16,0,0,0-.14.18A.13.13,0,0,0,97.17,148.9Z"/><path class="cls-18" d="M93.2,149.87l1.28,1.38a.17.17,0,0,0,.17,0l2.81-.76a.18.18,0,0,0,.11-.22.12.12,0,0,0,0-.07L96.1,149a.16.16,0,0,0-.15,0l-2.65.59a.17.17,0,0,0-.14.2A.2.2,0,0,0,93.2,149.87Z"/><path class="cls-18" d="M93.91,147.13l1.28,1.38a.22.22,0,0,0,.17.05l2.81-.77a.17.17,0,0,0,.12-.22.18.18,0,0,0-.05-.07l-1.43-1.2a.15.15,0,0,0-.14,0l-2.66.59a.16.16,0,0,0-.14.18A.18.18,0,0,0,93.91,147.13Z"/><path class="cls-18" d="M97.24,151.37l1.28,1.38a.16.16,0,0,0,.17.05l2.81-.76a.18.18,0,0,0,.11-.22.1.1,0,0,0,0-.07l-1.44-1.21a.12.12,0,0,0-.14,0l-2.65.59a.15.15,0,0,0-.12.19S97.23,151.35,97.24,151.37Z"/><path class="cls-18" d="M93.33,152.43l1.22,1.33a.22.22,0,0,0,.21.06l2.71-.75a.2.2,0,0,0,.15-.25.26.26,0,0,0-.07-.11l-1.33-1.14a.19.19,0,0,0-.18,0l-2.57.57a.21.21,0,0,0-.18.24A.36.36,0,0,0,93.33,152.43Z"/><path class="cls-18" d="M105.58,144.33l1.32,1.45a.13.13,0,0,0,.13,0L110,145a.13.13,0,0,0,.09-.16l0-.06-1.51-1.27a.11.11,0,0,0-.11,0l-2.76.61a.12.12,0,0,0-.06.16Z"/><path class="cls-18" d="M105,147l1.28,1.39a.18.18,0,0,0,.17,0l2.82-.77a.16.16,0,0,0,.1-.22.13.13,0,0,0,0-.07l-1.43-1.21a.2.2,0,0,0-.15,0l-2.65.59a.18.18,0,0,0-.14.19A.2.2,0,0,0,105,147Z"/><path class="cls-18" d="M101.21,148l1.28,1.39a.22.22,0,0,0,.17.05l2.82-.77a.16.16,0,0,0,.11-.21.1.1,0,0,0,0-.08l-1.43-1.21a.2.2,0,0,0-.15,0l-2.65.58a.18.18,0,0,0-.14.19A.19.19,0,0,0,101.21,148Z"/><path class="cls-18" d="M85.81,146.49l1.41,1.5a.18.18,0,0,0,.16,0l3-.7a.17.17,0,0,0,.13-.2.14.14,0,0,0-.05-.09l-1.59-1.5a.14.14,0,0,0-.15,0l-2.86.71a.15.15,0,0,0-.12.18A.13.13,0,0,0,85.81,146.49Z"/><path class="cls-18" d="M81.76,147.48l1.33,1.43a.19.19,0,0,0,.19.07l2.94-.67a.21.21,0,0,0,.16-.24.24.24,0,0,0-.06-.11l-1.52-1.43a.23.23,0,0,0-.19-.06l-2.77.67a.21.21,0,0,0-.13.27A.18.18,0,0,0,81.76,147.48Z"/><path class="cls-18" d="M77.42,150.84l1,1.62a.2.2,0,0,0,.21.09l3.4-.76a.2.2,0,0,0,.16-.25l0-.07-1.12-1.56a.2.2,0,0,0-.22-.08l-3.27.7a.2.2,0,0,0-.17.24Z"/><path class="cls-18" d="M55.18,151.43l3.35-.77a.2.2,0,0,1,.2.07l.59.78a.19.19,0,0,1,0,.27.15.15,0,0,1-.07,0l-3.47.81a.19.19,0,0,1-.22-.09l-.47-.8a.21.21,0,0,1,.08-.28Z"/><path class="cls-18" d="M59.79,150.44l3.32-.78a.21.21,0,0,1,.2.07l.59.78a.18.18,0,0,1,0,.27l-.07,0-3.47.81a.2.2,0,0,1-.22-.1l-.47-.81a.19.19,0,0,1,.08-.26Z"/><path class="cls-18" d="M64.25,149.48l3.35-.77a.2.2,0,0,1,.2.07l.59.77a.22.22,0,0,1,0,.28l-.07,0-3.48.81a.2.2,0,0,1-.21-.09l-.47-.81a.21.21,0,0,1,.07-.27Z"/><path class="cls-18" d="M68.59,148.49l3.32-.77a.19.19,0,0,1,.2.07l.59.78a.19.19,0,0,1,0,.27l-.07,0-3.48.81a.2.2,0,0,1-.21-.09l-.47-.81a.2.2,0,0,1,.09-.27Z"/><path class="cls-18" d="M73,147.52l3.32-.77a.21.21,0,0,1,.21.07l.57.76a.2.2,0,0,1,0,.29.19.19,0,0,1-.08,0l-3.44.81a.21.21,0,0,1-.23-.1l-.45-.79a.2.2,0,0,1,.07-.28Z"/><path class="cls-18" d="M77.28,146.62l3.32-.77a.21.21,0,0,1,.22.08l.57.75a.22.22,0,0,1,0,.29l-.08,0-3.45.8a.2.2,0,0,1-.22-.1l-.46-.78a.2.2,0,0,1,.09-.29Z"/><path class="cls-18" d="M81.48,145.75l3.07-.75a.24.24,0,0,1,.2.06l.6.66a.21.21,0,0,1,0,.3.14.14,0,0,1-.08,0l-3,.72a.19.19,0,0,1-.2-.06l-.66-.66a.21.21,0,0,1,.05-.29Z"/><path class="cls-18" d="M85.55,144.8l3.16-.77a.17.17,0,0,1,.17,0l.66.7a.15.15,0,0,1,0,.23.14.14,0,0,1-.08.05l-3.12.78a.14.14,0,0,1-.16-.05l-.7-.71a.16.16,0,0,1,0-.23A.12.12,0,0,1,85.55,144.8Z"/><path class="cls-18" d="M89.62,143.85l3.16-.77a.18.18,0,0,1,.16,0l.67.7a.17.17,0,0,1,0,.23.12.12,0,0,1-.08,0l-3.13.79a.16.16,0,0,1-.16,0l-.66-.71a.16.16,0,0,1,0-.23A.1.1,0,0,1,89.62,143.85Z"/><path class="cls-18" d="M93.68,143l3.17-.77a.19.19,0,0,1,.16.05l.66.7a.17.17,0,0,1,0,.23.2.2,0,0,1-.08,0l-3.1.79a.2.2,0,0,1-.16-.05l-.69-.71a.16.16,0,0,1,0-.23Z"/><path class="cls-18" d="M97.53,142.1l3.26-.8a.11.11,0,0,1,.12,0l.73.77a.12.12,0,0,1,0,.17.05.05,0,0,1,0,0l-3.22.81a.13.13,0,0,1-.12,0l-.77-.78a.13.13,0,0,1,0-.18S97.51,142.11,97.53,142.1Z"/><path class="cls-18" d="M101.42,141.26l3.27-.79a.1.1,0,0,1,.11,0l.73.76a.13.13,0,0,1,0,.18.09.09,0,0,1-.06,0l-3.22.81a.11.11,0,0,1-.12,0l-.77-.77a.13.13,0,0,1,0-.18Z"/><path class="cls-18" d="M105.3,140.37l3-.66a.11.11,0,0,1,.12,0l.59.72a.12.12,0,0,1,0,.17l-.05,0-2.83.75a.16.16,0,0,1-.12,0l-.77-.78a.13.13,0,0,1,0-.18A.19.19,0,0,1,105.3,140.37Z"/><path class="cls-18" d="M109,139.52l3-.66a.15.15,0,0,1,.13,0l.58.72a.12.12,0,0,1,0,.17l0,0-2.84.75a.11.11,0,0,1-.12,0l-.77-.77a.14.14,0,0,1,0-.18A.17.17,0,0,1,109,139.52Z"/><path class="cls-18" d="M57.53,155.42,58.64,157a.19.19,0,0,0,.2.08l5.81-1.36a.2.2,0,0,0,.15-.23.25.25,0,0,0,0-.07l-1.23-1.62a.2.2,0,0,0-.2-.08l-5.69,1.4a.19.19,0,0,0-.14.23A.11.11,0,0,0,57.53,155.42Z"/><path class="cls-18" d="M59.3,157.57l1.11,1.77a.22.22,0,0,0,.21.09l7-1.68a.18.18,0,0,0,.14-.23s0-.05,0-.08l-1.38-1.72a.21.21,0,0,0-.2-.06l-6.74,1.62a.2.2,0,0,0-.15.23Z"/><path class="cls-18" d="M60.87,159.91l1.33,1.92a.21.21,0,0,0,.21.07l9.29-2.29a.2.2,0,0,0,.14-.24.21.21,0,0,0,0-.07l-1.5-1.93a.2.2,0,0,0-.2-.06l-9.18,2.3a.2.2,0,0,0-.08.27Z"/><path class="cls-18" d="M82.15,157.81l1.7,2.05a.19.19,0,0,0,.2.06l20.46-5.09a.23.23,0,0,0,.14-.27.41.41,0,0,0-.05-.09l-2.08-2.07a.21.21,0,0,0-.2-.05l-20.06,5.12a.22.22,0,0,0-.15.27A.25.25,0,0,0,82.15,157.81Z"/><path class="cls-18" d="M103.26,152.52l2,2a.16.16,0,0,0,.17,0l4.19-1.12a.16.16,0,0,0,.11-.2.2.2,0,0,0,0-.08l-2.08-2a.16.16,0,0,0-.16,0l-4.12,1.14a.17.17,0,0,0-.12.21A.15.15,0,0,0,103.26,152.52Z"/><path class="cls-18" d="M113.38,151.25l.91,1a.13.13,0,0,0,.12,0l3.1-.83a.13.13,0,0,0,.09-.16.1.1,0,0,0,0,0l-1.1-1a.12.12,0,0,0-.12,0l-2.91.91a.12.12,0,0,0-.08.16S113.36,151.24,113.38,151.25Z"/><path class="cls-18" d="M116,149.19l1.09,1.14a.11.11,0,0,0,.13,0l2.85-1a.13.13,0,0,0,.08-.16.1.1,0,0,0,0-.05l-1.08-.93a.09.09,0,0,0-.12,0l-2.87.8a.13.13,0,0,0,0,.17Z"/><path class="cls-18" d="M118.12,151.16l-.78-.63a.13.13,0,0,1,0-.17.12.12,0,0,1,0-.05l2.84-1a.15.15,0,0,1,.13,0l.89.86a.14.14,0,0,1,0,.18l0,0-2.94.76Z"/><path class="cls-18" d="M121,149.44c.24.24.66.71.83.87a.15.15,0,0,0,.13,0l3-.8a.12.12,0,0,0,.09-.15l0-.06-1.05-1a.15.15,0,0,0-.13,0l-2.74.88a.13.13,0,0,0-.06.17Z"/><path class="cls-18" d="M112.74,147.54l1.58,1.53a.13.13,0,0,0,.12,0l7.62-2a.12.12,0,0,0,.09-.15.1.1,0,0,0,0-.07l-1.85-1.53a.2.2,0,0,0-.11,0l-7.36,2a.13.13,0,0,0-.09.16A.08.08,0,0,0,112.74,147.54Z"/><path class="cls-18" d="M112.22,145.19l1.63,1.45a.13.13,0,0,0,.12,0l5.73-1.33a.11.11,0,0,0,.09-.14.1.1,0,0,0,0-.07l-1.88-1.57a.11.11,0,0,0-.11,0L112.27,145a.13.13,0,0,0-.06.17Z"/><path class="cls-18" d="M112.75,142.68l1.54,1.39a.11.11,0,0,0,.11,0l2.95-.66a.12.12,0,0,0,.09-.14.08.08,0,0,0,0-.07l-1.83-1.58a.09.09,0,0,0-.12,0l-2.65.85a.12.12,0,0,0-.1.14S112.72,142.67,112.75,142.68Z"/><path class="cls-18" d="M108.72,141.31l1.49,1.36a.11.11,0,0,0,.11,0l4.65-1.1a.13.13,0,0,0,.09-.16l0-.06-1.78-1.49a.13.13,0,0,0-.12,0l-4.38,1.23a.12.12,0,0,0-.07.17A.12.12,0,0,0,108.72,141.31Z"/><text class="cls-33" transform="translate(200.09 69.93)">pi<tspan class="cls-34" x="26.47" y="0">devs</tspan></text><text class="cls-35" transform="translate(62.83 123.15) rotate(-9.26)">pi<tspan class="cls-5" x="8.82" y="0">devs</tspan></text></g></g></svg>