<svg xmlns="http://www.w3.org/2000/svg" viewBox="0 0 237.54 84.27"><defs><style>.cls-1{fill:#4d4d4d;}.cls-2{font-size:72px;font-family:CenturyGothic, Century Gothic;}.cls-2,.cls-4{fill:#fff;}.cls-3{fill:#50cc00;}.cls-4{stroke:#ff5703;stroke-miterlimit:10;}.cls-5{fill:gray;}</style></defs><title>pidevs</title><g id="Layer_2" data-name="Layer 2"><g id="Layer_1-2" data-name="Layer 1"><rect class="cls-1" y="0.55" width="69" height="69"/><text class="cls-2" transform="translate(3 62.19)">P<tspan class="cls-3" x="42.61" y="0">i</tspan></text><rect class="cls-4" x="74.54" y="0.5" width="162.5" height="69"/><path class="cls-5" d="M120.37,10.27V58.13H116V52.2a19.35,19.35,0,0,1-6.27,5.11A17.53,17.53,0,0,1,89.59,53.7a17.84,17.84,0,0,1-5.18-12.93A17.51,17.51,0,0,1,89.64,28a17.08,17.08,0,0,1,12.6-5.3,16.38,16.38,0,0,1,7.7,1.81A17.69,17.69,0,0,1,116,30V10.27ZM102.61,27a13.38,13.38,0,0,0-11.84,6.94,14,14,0,0,0,0,14,13.54,13.54,0,0,0,5,5.18,13.1,13.1,0,0,0,6.77,1.86,13.94,13.94,0,0,0,6.91-1.84,12.92,12.92,0,0,0,5-5A14.23,14.23,0,0,0,116.27,41a13.73,13.73,0,0,0-4-10A13.08,13.08,0,0,0,102.61,27Z"/><path class="cls-5" d="M160.66,39.37l4.23-.19a20.64,20.64,0,0,1-.73,7.19,17,17,0,0,1-3,5.65,18.94,18.94,0,0,1-5.32,4.45q-7.29,4.26-14.2,1.87A18.92,18.92,0,0,1,128.8,37.78a16.52,16.52,0,0,1,8.53-12.55,17.07,17.07,0,0,1,15.56-1.32,18.62,18.62,0,0,1,9.24,8.28L135.3,47.85a14,14,0,0,0,8.29,6.58,12.28,12.28,0,0,0,9.87-1.31,14.59,14.59,0,0,0,4-3.38,13.48,13.48,0,0,0,2.44-4.24A20.76,20.76,0,0,0,160.66,39.37Zm-4.68-8a14.86,14.86,0,0,0-5.1-3.6,12.32,12.32,0,0,0-5.61-.69,13.75,13.75,0,0,0-5.74,1.84,12.63,12.63,0,0,0-5.9,7.22,14.8,14.8,0,0,0,.11,8.21Z"/><path class="cls-5" d="M169.4,23.6h4.73l11.59,25.17L197.17,23.6h4.76l-15.8,34.53h-.83Z"/><path class="cls-5" d="M226.05,27.38l-2.85,2.95q-3.57-3.46-7-3.46a5.29,5.29,0,0,0-3.71,1.43A4.39,4.39,0,0,0,211,31.63a5,5,0,0,0,1.27,3.21,18.13,18.13,0,0,0,5.34,3.65q5,2.57,6.75,4.95a9,9,0,0,1,1.75,5.42,9.76,9.76,0,0,1-3,7.21,10.2,10.2,0,0,1-7.47,3,13,13,0,0,1-5.71-1.3,12.41,12.41,0,0,1-4.5-3.59l2.8-3.17c2.27,2.56,4.67,3.84,7.22,3.84A6.52,6.52,0,0,0,220,53.09a5.31,5.31,0,0,0,1.87-4,5.15,5.15,0,0,0-1.24-3.4c-.82-1-2.69-2.2-5.59-3.68q-4.68-2.41-6.37-4.76A9,9,0,0,1,207,31.85a8.71,8.71,0,0,1,2.69-6.54,9.36,9.36,0,0,1,6.78-2.6Q221.22,22.71,226.05,27.38Z"/></g></g></svg>