<svg xmlns="http://www.w3.org/2000/svg" xmlns:xlink="http://www.w3.org/1999/xlink" viewBox="0 0 438.46 343.39"><defs><style>.cls-1,.cls-2,.cls-3,.cls-4,.cls-5,.cls-7{fill:none;}.cls-1{stroke:#bcea13;}.cls-1,.cls-2,.cls-3,.cls-4,.cls-5{stroke-miterlimit:10;stroke-width:5px;}.cls-2{stroke:#f935bd;}.cls-3{stroke:#bf99b5;}.cls-4{stroke:#a7ce93;}.cls-5{stroke:#4b9ef9;}.cls-6{opacity:0.36;}.cls-8{fill:#231f20;}.cls-9{clip-path:url(#clip-path);}.cls-10{clip-path:url(#clip-path-2);}.cls-11{clip-path:url(#clip-path-3);}.cls-12{clip-path:url(#clip-path-4);}.cls-13{clip-path:url(#clip-path-5);}</style><clipPath id="clip-path"><circle class="cls-1" cx="381.44" cy="317.9" r="22.99"/></clipPath><clipPath id="clip-path-2"><circle class="cls-2" cx="33.99" cy="292.71" r="31.49"/></clipPath><clipPath id="clip-path-3"><circle class="cls-3" cx="418.39" cy="20.07" r="17.57"/></clipPath><clipPath id="clip-path-4"><circle class="cls-4" cx="245.54" cy="169.65" r="38.87"/></clipPath><clipPath id="clip-path-5"><ellipse class="cls-5" cx="155.25" cy="34.09" rx="24.05" ry="23.27"/></clipPath></defs><title>testimonial</title><g id="Layer_2" data-name="Layer 2"><g id="Layer_1-2" data-name="Layer 1"><g class="cls-6"><rect class="cls-7" x="415.23" y="44.61" width="13.33" height="15" transform="matrix(0.09, -1, 1, 0.09, 330.17, 467.19)"/><rect class="cls-8" x="420.02" y="55.76" width="2.47" height="1.5" transform="translate(325.2 470.54) rotate(-84.58)"/><rect class="cls-8" x="420.44" y="51.34" width="2.47" height="1.5" transform="translate(329.98 466.96) rotate(-84.58)"/><rect class="cls-8" x="420.86" y="46.94" width="2.47" height="1.5" transform="translate(334.74 463.39) rotate(-84.58)"/><rect class="cls-7" x="413.97" y="57.87" width="13.33" height="15" transform="matrix(0.09, -1, 1, 0.09, 315.82, 477.95)"/><rect class="cls-8" x="418.76" y="69.03" width="2.47" height="1.5" transform="translate(310.86 481.3) rotate(-84.58)"/><rect class="cls-8" x="419.18" y="64.61" width="2.47" height="1.5" transform="translate(315.63 477.72) rotate(-84.58)"/><rect class="cls-8" x="419.6" y="60.21" width="2.47" height="1.5" transform="translate(320.39 474.15) rotate(-84.58)"/><rect class="cls-7" x="412.71" y="71.14" width="13.33" height="15" transform="translate(301.47 488.71) rotate(-84.58)"/><rect class="cls-8" x="417.5" y="82.3" width="2.47" height="1.5" transform="translate(296.51 492.07) rotate(-84.58)"/><rect class="cls-8" x="417.92" y="77.88" width="2.47" height="1.5" transform="translate(301.28 488.48) rotate(-84.58)"/><rect class="cls-8" x="418.34" y="73.47" width="2.47" height="1.5" transform="translate(306.04 484.91) rotate(-84.58)"/><rect class="cls-7" x="411.45" y="84.41" width="13.33" height="15" transform="matrix(0.09, -1, 1, 0.09, 287.12, 499.48)"/><rect class="cls-8" x="416.24" y="95.56" width="2.47" height="1.5" transform="translate(282.16 502.83) rotate(-84.58)"/><rect class="cls-8" x="416.66" y="91.15" width="2.47" height="1.5" transform="translate(286.93 499.24) rotate(-84.58)"/><rect class="cls-8" x="417.08" y="86.74" width="2.47" height="1.5" transform="matrix(0.09, -1, 1, 0.09, 291.7, 495.67)"/><rect class="cls-7" x="410.19" y="97.68" width="13.33" height="15" transform="matrix(0.09, -1, 1, 0.09, 272.77, 510.24)"/><rect class="cls-8" x="414.98" y="108.83" width="2.47" height="1.5" transform="translate(267.81 513.59) rotate(-84.58)"/><rect class="cls-8" x="415.4" y="104.42" width="2.47" height="1.5" transform="translate(272.58 510.01) rotate(-84.58)"/><rect class="cls-8" x="415.82" y="100.01" width="2.47" height="1.5" transform="matrix(0.09, -1, 1, 0.09, 277.35, 506.44)"/><rect class="cls-7" x="408.93" y="110.95" width="13.33" height="15" transform="matrix(0.09, -1, 1, 0.09, 258.42, 521)"/><rect class="cls-8" x="413.72" y="122.1" width="2.47" height="1.5" transform="translate(253.45 524.35) rotate(-84.58)"/><rect class="cls-8" x="414.14" y="117.69" width="2.47" height="1.5" transform="translate(258.23 520.77) rotate(-84.58)"/><rect class="cls-8" x="414.56" y="113.28" width="2.47" height="1.5" transform="matrix(0.09, -1, 1, 0.09, 263, 517.2)"/><rect class="cls-7" x="407.68" y="124.22" width="13.33" height="15" transform="matrix(0.09, -1, 1, 0.09, 244.07, 531.76)"/><rect class="cls-8" x="412.46" y="135.37" width="2.47" height="1.5" transform="translate(239.1 535.11) rotate(-84.58)"/><rect class="cls-8" x="412.88" y="130.95" width="2.47" height="1.5" transform="translate(243.88 531.53) rotate(-84.58)"/><rect class="cls-8" x="413.3" y="126.55" width="2.47" height="1.5" transform="translate(248.65 527.96) rotate(-84.58)"/><rect class="cls-7" x="406.42" y="137.49" width="13.33" height="15" transform="matrix(0.09, -1, 1, 0.09, 229.72, 542.52)"/><rect class="cls-8" x="411.21" y="148.64" width="2.47" height="1.5" transform="translate(224.75 545.87) rotate(-84.58)"/><rect class="cls-8" x="411.62" y="144.22" width="2.47" height="1.5" transform="translate(229.53 542.29) rotate(-84.58)"/><rect class="cls-8" x="412.04" y="139.82" width="2.47" height="1.5" transform="translate(234.3 538.72) rotate(-84.58)"/><rect class="cls-7" x="405.16" y="150.76" width="13.33" height="15" transform="matrix(0.09, -1, 1, 0.09, 215.37, 553.29)"/><rect class="cls-8" x="409.95" y="161.91" width="2.47" height="1.5" transform="translate(210.4 556.64) rotate(-84.58)"/><rect class="cls-8" x="410.37" y="157.49" width="2.47" height="1.5" transform="translate(215.18 553.05) rotate(-84.58)"/><rect class="cls-8" x="410.78" y="153.09" width="2.47" height="1.5" transform="translate(219.95 549.49) rotate(-84.58)"/><rect class="cls-7" x="403.9" y="164.03" width="13.33" height="15" transform="matrix(0.09, -1, 1, 0.09, 201.01, 564.05)"/><rect class="cls-8" x="408.69" y="175.18" width="2.47" height="1.5" transform="translate(196.05 567.4) rotate(-84.58)"/><rect class="cls-8" x="409.11" y="170.76" width="2.47" height="1.5" transform="translate(200.83 563.81) rotate(-84.58)"/><rect class="cls-8" x="409.52" y="166.36" width="2.47" height="1.5" transform="translate(205.6 560.25) rotate(-84.58)"/><rect class="cls-7" x="402.64" y="177.3" width="13.33" height="15" transform="matrix(0.09, -1, 1, 0.09, 186.66, 574.81)"/><rect class="cls-8" x="407.43" y="188.45" width="2.47" height="1.5" transform="translate(181.7 578.16) rotate(-84.58)"/><rect class="cls-8" x="407.85" y="184.03" width="2.47" height="1.5" transform="translate(186.48 574.58) rotate(-84.58)"/><rect class="cls-8" x="408.27" y="179.63" width="2.47" height="1.5" transform="translate(191.25 571.01) rotate(-84.58)"/><rect class="cls-7" x="401.38" y="190.57" width="13.33" height="15" transform="matrix(0.09, -1, 1, 0.09, 172.31, 585.57)"/><rect class="cls-8" x="406.17" y="201.72" width="2.47" height="1.5" transform="translate(167.35 588.92) rotate(-84.58)"/><rect class="cls-8" x="406.59" y="197.3" width="2.47" height="1.5" transform="translate(172.14 585.34) rotate(-84.58)"/><rect class="cls-8" x="407.01" y="192.9" width="2.47" height="1.5" transform="translate(176.89 581.77) rotate(-84.58)"/><rect class="cls-7" x="400.12" y="203.84" width="13.33" height="15" transform="matrix(0.09, -1, 1, 0.09, 157.96, 596.33)"/><rect class="cls-8" x="404.91" y="214.99" width="2.47" height="1.5" transform="translate(153.01 599.69) rotate(-84.58)"/><rect class="cls-8" x="405.33" y="210.57" width="2.47" height="1.5" transform="translate(157.79 596.11) rotate(-84.58)"/><rect class="cls-8" x="405.75" y="206.17" width="2.47" height="1.5" transform="translate(162.54 592.53) rotate(-84.58)"/><rect class="cls-7" x="398.86" y="217.1" width="13.33" height="15" transform="matrix(0.09, -1, 1, 0.09, 143.61, 607.1)"/><rect class="cls-8" x="403.65" y="228.26" width="2.47" height="1.5" transform="translate(138.66 610.45) rotate(-84.58)"/><rect class="cls-8" x="404.07" y="223.84" width="2.47" height="1.5" transform="translate(143.44 606.87) rotate(-84.58)"/><rect class="cls-8" x="404.49" y="219.44" width="2.47" height="1.5" transform="translate(148.19 603.29) rotate(-84.58)"/><rect class="cls-7" x="397.6" y="230.37" width="13.33" height="15" transform="translate(129.26 617.86) rotate(-84.58)"/><rect class="cls-8" x="402.39" y="241.53" width="2.47" height="1.5" transform="translate(124.31 621.21) rotate(-84.58)"/><rect class="cls-8" x="402.81" y="237.11" width="2.47" height="1.5" transform="translate(129.09 617.63) rotate(-84.58)"/><rect class="cls-8" x="403.23" y="232.7" width="2.47" height="1.5" transform="translate(133.84 614.05) rotate(-84.58)"/><rect class="cls-7" x="396.34" y="243.64" width="13.33" height="15" transform="matrix(0.09, -1, 1, 0.09, 114.91, 628.62)"/><rect class="cls-8" x="401.13" y="254.79" width="2.47" height="1.5" transform="translate(109.96 631.97) rotate(-84.58)"/><rect class="cls-8" x="401.55" y="250.38" width="2.47" height="1.5" transform="translate(114.74 628.39) rotate(-84.58)"/><rect class="cls-8" x="401.97" y="245.97" width="2.47" height="1.5" transform="translate(119.49 624.82) rotate(-84.58)"/><rect class="cls-7" x="395.08" y="256.91" width="13.33" height="15" transform="matrix(0.09, -1, 1, 0.09, 100.56, 639.38)"/><rect class="cls-8" x="399.87" y="268.06" width="2.47" height="1.5" transform="translate(95.61 642.74) rotate(-84.58)"/><rect class="cls-8" x="400.29" y="263.65" width="2.47" height="1.5" transform="translate(100.39 639.16) rotate(-84.58)"/><rect class="cls-8" x="400.71" y="259.24" width="2.47" height="1.5" transform="translate(105.14 635.58) rotate(-84.58)"/><rect class="cls-7" x="393.82" y="270.18" width="13.33" height="15" transform="matrix(0.09, -1, 1, 0.09, 86.21, 650.15)"/><rect class="cls-8" x="398.61" y="281.33" width="2.47" height="1.5" transform="translate(81.26 653.5) rotate(-84.58)"/><rect class="cls-8" x="399.03" y="276.92" width="2.47" height="1.5" transform="translate(86.04 649.92) rotate(-84.58)"/><rect class="cls-8" x="399.45" y="272.51" width="2.47" height="1.5" transform="translate(90.79 646.34) rotate(-84.58)"/><rect class="cls-7" x="392.57" y="283.45" width="13.33" height="15" transform="matrix(0.09, -1, 1, 0.09, 71.86, 660.91)"/><rect class="cls-8" x="397.35" y="294.6" width="2.47" height="1.5" transform="translate(66.91 664.26) rotate(-84.58)"/><rect class="cls-8" x="397.77" y="290.18" width="2.47" height="1.5" transform="translate(71.68 660.67) rotate(-84.58)"/><rect class="cls-8" x="398.19" y="285.78" width="2.47" height="1.5" transform="translate(76.44 657.1) rotate(-84.58)"/></g><g class="cls-6"><rect class="cls-7" x="187.12" y="23.78" width="13.87" height="15" transform="matrix(1, -0.07, 0.07, 1, -1.64, 12.86)"/><rect class="cls-8" x="197.39" y="30.44" width="2.57" height="1.5" transform="matrix(1, -0.07, 0.07, 1, -1.62, 13.16)"/><rect class="cls-8" x="192.79" y="30.74" width="2.57" height="1.5" transform="matrix(1, -0.07, 0.07, 1, -1.65, 12.86)"/><rect class="cls-8" x="188.19" y="31.05" width="2.57" height="1.5" transform="translate(-1.68 12.56) rotate(-3.78)"/><rect class="cls-7" x="200.96" y="22.86" width="13.87" height="15" transform="matrix(1, -0.07, 0.07, 1, -1.55, 13.77)"/><rect class="cls-8" x="211.23" y="29.53" width="2.57" height="1.5" transform="translate(-1.53 14.07) rotate(-3.78)"/><rect class="cls-8" x="206.63" y="29.83" width="2.57" height="1.5" transform="matrix(1, -0.07, 0.07, 1, -1.56, 13.77)"/><rect class="cls-8" x="202.03" y="30.13" width="2.57" height="1.5" transform="matrix(1, -0.07, 0.07, 1, -1.59, 13.47)"/><rect class="cls-7" x="214.8" y="21.95" width="13.87" height="15" transform="translate(-1.46 14.68) rotate(-3.78)"/><rect class="cls-8" x="225.07" y="28.61" width="2.57" height="1.5" transform="matrix(1, -0.07, 0.07, 1, -1.44, 14.98)"/><rect class="cls-8" x="220.46" y="28.92" width="2.57" height="1.5" transform="matrix(1, -0.07, 0.07, 1, -1.47, 14.68)"/><rect class="cls-8" x="215.87" y="29.22" width="2.57" height="1.5" transform="matrix(1, -0.07, 0.07, 1, -1.5, 14.38)"/><rect class="cls-7" x="228.64" y="21.03" width="13.87" height="15" transform="matrix(1, -0.07, 0.07, 1, -1.37, 15.59)"/><rect class="cls-8" x="238.91" y="27.7" width="2.57" height="1.5" transform="matrix(1, -0.07, 0.07, 1, -1.35, 15.9)"/><rect class="cls-8" x="234.3" y="28" width="2.57" height="1.5" transform="translate(-1.38 15.59) rotate(-3.78)"/><rect class="cls-8" x="229.71" y="28.31" width="2.57" height="1.5" transform="matrix(1, -0.07, 0.07, 1, -1.41, 15.29)"/><rect class="cls-7" x="242.47" y="20.12" width="13.87" height="15" transform="translate(-1.28 16.5) rotate(-3.78)"/><rect class="cls-8" x="252.75" y="26.78" width="2.57" height="1.5" transform="matrix(1, -0.07, 0.07, 1, -1.26, 16.81)"/><rect class="cls-8" x="248.14" y="27.09" width="2.57" height="1.5" transform="matrix(1, -0.07, 0.07, 1, -1.29, 16.5)"/><rect class="cls-8" x="243.55" y="27.39" width="2.57" height="1.5" transform="translate(-1.32 16.2) rotate(-3.78)"/><rect class="cls-7" x="256.31" y="19.21" width="13.87" height="15" transform="matrix(1, -0.07, 0.07, 1, -1.19, 17.41)"/><rect class="cls-8" x="266.59" y="25.87" width="2.57" height="1.5" transform="translate(-1.17 17.72) rotate(-3.78)"/><rect class="cls-8" x="261.98" y="26.17" width="2.57" height="1.5" transform="matrix(1, -0.07, 0.07, 1, -1.2, 17.41)"/><rect class="cls-8" x="257.39" y="26.48" width="2.57" height="1.5" transform="matrix(1, -0.07, 0.07, 1, -1.23, 17.11)"/><rect class="cls-7" x="270.15" y="18.29" width="13.87" height="15" transform="translate(-1.1 18.32) rotate(-3.78)"/><rect class="cls-8" x="280.43" y="24.96" width="2.57" height="1.5" transform="matrix(1, -0.07, 0.07, 1, -1.08, 18.62)"/><rect class="cls-8" x="275.82" y="25.26" width="2.57" height="1.5" transform="matrix(1, -0.07, 0.07, 1, -1.11, 18.32)"/><rect class="cls-8" x="271.23" y="25.56" width="2.57" height="1.5" transform="matrix(1, -0.07, 0.07, 1, -1.14, 18.02)"/><rect class="cls-7" x="283.99" y="17.38" width="13.87" height="15" transform="matrix(1, -0.07, 0.07, 1, -1.01, 19.23)"/><rect class="cls-8" x="294.26" y="24.04" width="2.57" height="1.5" transform="matrix(1, -0.07, 0.07, 1, -0.99, 19.54)"/><rect class="cls-8" x="289.66" y="24.35" width="2.57" height="1.5" transform="translate(-1.02 19.23) rotate(-3.78)"/><rect class="cls-8" x="285.07" y="24.65" width="2.57" height="1.5" transform="matrix(1, -0.07, 0.07, 1, -1.05, 18.93)"/><rect class="cls-7" x="297.83" y="16.46" width="13.87" height="15" transform="matrix(1, -0.07, 0.07, 1, -0.92, 20.14)"/><rect class="cls-8" x="308.1" y="23.13" width="2.57" height="1.5" transform="matrix(1, -0.07, 0.07, 1, -0.9, 20.45)"/><rect class="cls-8" x="303.5" y="23.43" width="2.57" height="1.5" transform="matrix(1, -0.07, 0.07, 1, -0.93, 20.14)"/><rect class="cls-8" x="298.9" y="23.73" width="2.57" height="1.5" transform="translate(-0.96 19.84) rotate(-3.78)"/><rect class="cls-7" x="311.67" y="15.55" width="13.87" height="15" transform="matrix(1, -0.07, 0.07, 1, -0.83, 21.05)"/><rect class="cls-8" x="321.94" y="22.21" width="2.57" height="1.5" transform="translate(-0.81 21.36) rotate(-3.78)"/><rect class="cls-8" x="317.33" y="22.52" width="2.57" height="1.5" transform="matrix(1, -0.07, 0.07, 1, -0.84, 21.05)"/><rect class="cls-8" x="312.74" y="22.82" width="2.57" height="1.5" transform="matrix(1, -0.07, 0.07, 1, -0.87, 20.75)"/><rect class="cls-7" x="325.51" y="14.64" width="13.87" height="15" transform="translate(-0.74 21.96) rotate(-3.78)"/><rect class="cls-8" x="335.78" y="21.3" width="2.57" height="1.5" transform="matrix(1, -0.07, 0.07, 1, -0.72, 22.27)"/><rect class="cls-8" x="331.17" y="21.6" width="2.57" height="1.5" transform="matrix(1, -0.07, 0.07, 1, -0.75, 21.96)"/><rect class="cls-8" x="326.58" y="21.91" width="2.57" height="1.5" transform="matrix(1, -0.07, 0.07, 1, -0.78, 21.66)"/><rect class="cls-7" x="339.34" y="13.72" width="13.87" height="15" transform="matrix(1, -0.07, 0.07, 1, -0.65, 22.87)"/><rect class="cls-8" x="349.62" y="20.38" width="2.57" height="1.5" transform="matrix(1, -0.07, 0.07, 1, -0.63, 23.18)"/><rect class="cls-8" x="345.01" y="20.69" width="2.57" height="1.5" transform="translate(-0.66 22.87) rotate(-3.78)"/><rect class="cls-8" x="340.42" y="20.99" width="2.57" height="1.5" transform="matrix(1, -0.07, 0.07, 1, -0.69, 22.57)"/><rect class="cls-7" x="353.18" y="12.81" width="13.87" height="15" transform="translate(-0.56 23.78) rotate(-3.78)"/><rect class="cls-8" x="363.46" y="19.47" width="2.57" height="1.5" transform="matrix(1, -0.07, 0.07, 1, -0.54, 24.09)"/><rect class="cls-8" x="358.85" y="19.77" width="2.57" height="1.5" transform="matrix(1, -0.07, 0.07, 1, -0.57, 23.78)"/><rect class="cls-8" x="354.26" y="20.08" width="2.57" height="1.5" transform="matrix(1, -0.07, 0.07, 1, -0.6, 23.48)"/><rect class="cls-7" x="367.02" y="11.89" width="13.87" height="15" transform="matrix(1, -0.07, 0.07, 1, -0.46, 24.69)"/><rect class="cls-8" x="377.3" y="18.56" width="2.57" height="1.5" transform="translate(-0.45 25) rotate(-3.78)"/><rect class="cls-8" x="372.69" y="18.86" width="2.57" height="1.5" transform="matrix(1, -0.07, 0.07, 1, -0.48, 24.69)"/><rect class="cls-8" x="368.1" y="19.16" width="2.57" height="1.5" transform="matrix(1, -0.07, 0.07, 1, -0.51, 24.39)"/><rect class="cls-7" x="380.86" y="10.98" width="13.87" height="15" transform="translate(-0.37 25.6) rotate(-3.78)"/><rect class="cls-8" x="391.13" y="17.64" width="2.57" height="1.5" transform="translate(-0.36 25.89) rotate(-3.78)"/><rect class="cls-8" x="386.53" y="17.95" width="2.57" height="1.5" transform="translate(-0.39 25.59) rotate(-3.78)"/><rect class="cls-8" x="381.94" y="18.25" width="2.57" height="1.5" transform="matrix(1, -0.07, 0.07, 1, -0.42, 25.3)"/></g><g class="cls-6"><rect class="cls-7" x="67.72" y="300.51" width="15" height="13.71" transform="translate(-237.01 358.74) rotate(-85.59)"/><rect class="cls-8" x="79.01" y="306.66" width="1.5" height="2.55" transform="matrix(0.08, -1, 1, 0.08, -233.39, 363.8)"/><rect class="cls-8" x="74.46" y="306.31" width="1.5" height="2.55" transform="matrix(0.08, -1, 1, 0.08, -237.24, 358.94)"/><rect class="cls-8" x="69.92" y="305.96" width="1.5" height="2.55" transform="matrix(0.08, -1, 1, 0.08, -241.08, 354.09)"/><rect class="cls-7" x="81.39" y="301.56" width="15" height="13.71" transform="translate(-225.44 373.35) rotate(-85.59)"/><rect class="cls-8" x="92.68" y="307.71" width="1.5" height="2.55" transform="matrix(0.08, -1, 1, 0.08, -221.82, 378.4)"/><rect class="cls-8" x="88.13" y="307.36" width="1.5" height="2.55" transform="matrix(0.08, -1, 1, 0.08, -225.67, 373.54)"/><rect class="cls-8" x="83.59" y="307.01" width="1.5" height="2.55" transform="matrix(0.08, -1, 1, 0.08, -229.51, 368.69)"/><rect class="cls-7" x="95.06" y="302.61" width="15" height="13.71" transform="translate(-213.87 387.95) rotate(-85.59)"/><rect class="cls-8" x="106.35" y="308.77" width="1.5" height="2.55" transform="matrix(0.08, -1, 1, 0.08, -210.25, 393)"/><rect class="cls-8" x="101.8" y="308.41" width="1.5" height="2.55" transform="matrix(0.08, -1, 1, 0.08, -214.1, 388.14)"/><rect class="cls-8" x="97.26" y="308.07" width="1.5" height="2.55" transform="matrix(0.08, -1, 1, 0.08, -217.94, 383.3)"/><rect class="cls-7" x="108.73" y="303.67" width="15" height="13.71" transform="translate(-202.3 402.55) rotate(-85.59)"/><rect class="cls-8" x="120.02" y="309.82" width="1.5" height="2.55" transform="translate(-198.68 407.61) rotate(-85.59)"/><rect class="cls-8" x="115.47" y="309.47" width="1.5" height="2.55" transform="translate(-202.53 402.74) rotate(-85.59)"/><rect class="cls-8" x="110.93" y="309.12" width="1.5" height="2.55" transform="matrix(0.08, -1, 1, 0.08, -206.37, 397.9)"/><rect class="cls-7" x="122.4" y="304.72" width="15" height="13.71" transform="translate(-190.73 417.16) rotate(-85.59)"/><rect class="cls-8" x="133.69" y="310.87" width="1.5" height="2.55" transform="translate(-187.11 422.21) rotate(-85.59)"/><rect class="cls-8" x="129.14" y="310.52" width="1.5" height="2.55" transform="matrix(0.08, -1, 1, 0.08, -190.96, 417.35)"/><rect class="cls-8" x="124.6" y="310.17" width="1.5" height="2.55" transform="translate(-194.8 412.5) rotate(-85.59)"/><rect class="cls-7" x="136.07" y="305.77" width="15" height="13.71" transform="translate(-179.16 431.76) rotate(-85.59)"/><rect class="cls-8" x="147.36" y="311.93" width="1.5" height="2.55" transform="matrix(0.08, -1, 1, 0.08, -175.54, 436.81)"/><rect class="cls-8" x="142.81" y="311.57" width="1.5" height="2.55" transform="translate(-179.39 431.95) rotate(-85.59)"/><rect class="cls-8" x="138.28" y="311.23" width="1.5" height="2.55" transform="translate(-183.23 427.11) rotate(-85.59)"/><rect class="cls-7" x="149.75" y="306.83" width="15" height="13.71" transform="translate(-167.59 446.36) rotate(-85.59)"/><rect class="cls-8" x="161.03" y="312.98" width="1.5" height="2.55" transform="matrix(0.08, -1, 1, 0.08, -163.97, 451.42)"/><rect class="cls-8" x="156.48" y="312.63" width="1.5" height="2.55" transform="translate(-167.82 446.55) rotate(-85.59)"/><rect class="cls-8" x="151.95" y="312.28" width="1.5" height="2.55" transform="matrix(0.08, -1, 1, 0.08, -171.66, 441.71)"/><rect class="cls-7" x="163.42" y="307.88" width="15" height="13.71" transform="translate(-156.02 460.97) rotate(-85.59)"/><rect class="cls-8" x="174.71" y="314.03" width="1.5" height="2.55" transform="matrix(0.08, -1, 1, 0.08, -152.4, 466.02)"/><rect class="cls-8" x="170.15" y="313.68" width="1.5" height="2.55" transform="matrix(0.08, -1, 1, 0.08, -156.25, 461.16)"/><rect class="cls-8" x="165.62" y="313.33" width="1.5" height="2.55" transform="matrix(0.08, -1, 1, 0.08, -160.09, 456.31)"/><rect class="cls-7" x="177.09" y="308.93" width="15" height="13.71" transform="translate(-144.45 475.57) rotate(-85.59)"/><rect class="cls-8" x="188.38" y="315.09" width="1.5" height="2.55" transform="matrix(0.08, -1, 1, 0.08, -140.83, 480.62)"/><rect class="cls-8" x="183.82" y="314.74" width="1.5" height="2.55" transform="matrix(0.08, -1, 1, 0.08, -144.68, 475.76)"/><rect class="cls-8" x="179.29" y="314.39" width="1.5" height="2.55" transform="translate(-148.52 470.91) rotate(-85.59)"/><rect class="cls-7" x="190.76" y="309.99" width="15" height="13.71" transform="translate(-132.88 490.17) rotate(-85.59)"/><rect class="cls-8" x="202.05" y="316.14" width="1.5" height="2.55" transform="matrix(0.08, -1, 1, 0.08, -129.26, 495.23)"/><rect class="cls-8" x="197.5" y="315.79" width="1.5" height="2.55" transform="matrix(0.08, -1, 1, 0.08, -133.11, 490.36)"/><rect class="cls-8" x="192.96" y="315.44" width="1.5" height="2.55" transform="matrix(0.08, -1, 1, 0.08, -136.95, 485.52)"/><rect class="cls-7" x="204.43" y="311.04" width="15" height="13.71" transform="translate(-121.31 504.77) rotate(-85.59)"/><rect class="cls-8" x="215.72" y="317.19" width="1.5" height="2.55" transform="translate(-117.69 509.83) rotate(-85.59)"/><rect class="cls-8" x="211.17" y="316.84" width="1.5" height="2.55" transform="matrix(0.08, -1, 1, 0.08, -121.54, 504.97)"/><rect class="cls-8" x="206.63" y="316.49" width="1.5" height="2.55" transform="matrix(0.08, -1, 1, 0.08, -125.38, 500.12)"/><rect class="cls-7" x="218.1" y="312.09" width="15" height="13.71" transform="translate(-109.74 519.38) rotate(-85.59)"/><rect class="cls-8" x="229.39" y="318.25" width="1.5" height="2.55" transform="matrix(0.08, -1, 1, 0.08, -106.12, 524.43)"/><rect class="cls-8" x="224.84" y="317.9" width="1.5" height="2.55" transform="translate(-109.97 519.57) rotate(-85.59)"/><rect class="cls-8" x="220.3" y="317.55" width="1.5" height="2.55" transform="translate(-113.81 514.72) rotate(-85.59)"/><rect class="cls-7" x="231.77" y="313.15" width="15" height="13.71" transform="translate(-98.17 533.98) rotate(-85.59)"/><rect class="cls-8" x="243.06" y="319.3" width="1.5" height="2.55" transform="translate(-94.55 539.03) rotate(-85.59)"/><rect class="cls-8" x="238.51" y="318.95" width="1.5" height="2.55" transform="translate(-98.4 534.17) rotate(-85.59)"/><rect class="cls-8" x="233.97" y="318.6" width="1.5" height="2.55" transform="matrix(0.08, -1, 1, 0.08, -102.24, 529.33)"/><rect class="cls-7" x="245.44" y="314.2" width="15" height="13.71" transform="translate(-86.6 548.58) rotate(-85.59)"/><rect class="cls-8" x="256.73" y="320.35" width="1.5" height="2.55" transform="matrix(0.08, -1, 1, 0.08, -82.97, 553.64)"/><rect class="cls-8" x="252.18" y="320" width="1.5" height="2.55" transform="matrix(0.08, -1, 1, 0.08, -86.83, 548.78)"/><rect class="cls-8" x="247.64" y="319.65" width="1.5" height="2.55" transform="matrix(0.08, -1, 1, 0.08, -90.67, 543.93)"/><rect class="cls-7" x="259.11" y="315.25" width="15" height="13.71" transform="translate(-75.03 563.19) rotate(-85.59)"/><rect class="cls-8" x="270.4" y="321.41" width="1.5" height="2.55" transform="matrix(0.08, -1, 1, 0.08, -71.4, 568.24)"/><rect class="cls-8" x="265.85" y="321.06" width="1.5" height="2.55" transform="matrix(0.08, -1, 1, 0.08, -75.26, 563.38)"/><rect class="cls-8" x="261.31" y="320.71" width="1.5" height="2.55" transform="translate(-79.1 558.53) rotate(-85.59)"/><rect class="cls-7" x="272.78" y="316.31" width="15" height="13.71" transform="translate(-63.46 577.79) rotate(-85.59)"/><rect class="cls-8" x="284.07" y="322.46" width="1.5" height="2.55" transform="translate(-59.84 582.84) rotate(-85.59)"/><rect class="cls-8" x="279.52" y="322.11" width="1.5" height="2.55" transform="matrix(0.08, -1, 1, 0.08, -63.69, 577.98)"/><rect class="cls-8" x="274.98" y="321.76" width="1.5" height="2.55" transform="matrix(0.08, -1, 1, 0.08, -67.53, 573.14)"/><rect class="cls-7" x="286.45" y="317.36" width="15" height="13.71" transform="translate(-51.89 592.39) rotate(-85.59)"/><rect class="cls-8" x="297.74" y="323.51" width="1.5" height="2.55" transform="translate(-48.26 597.45) rotate(-85.59)"/><rect class="cls-8" x="293.19" y="323.16" width="1.5" height="2.55" transform="matrix(0.08, -1, 1, 0.08, -52.12, 592.58)"/><rect class="cls-8" x="288.66" y="322.81" width="1.5" height="2.55" transform="matrix(0.08, -1, 1, 0.08, -55.96, 587.74)"/><rect class="cls-7" x="300.13" y="318.41" width="15" height="13.71" transform="translate(-40.32 606.99) rotate(-85.59)"/><rect class="cls-8" x="311.41" y="324.57" width="1.5" height="2.55" transform="translate(-36.69 612.05) rotate(-85.59)"/><rect class="cls-8" x="306.86" y="324.22" width="1.5" height="2.55" transform="translate(-40.55 607.19) rotate(-85.59)"/><rect class="cls-8" x="302.33" y="323.87" width="1.5" height="2.55" transform="translate(-44.39 602.33) rotate(-85.59)"/><rect class="cls-7" x="313.8" y="319.47" width="15" height="13.71" transform="translate(-28.75 621.6) rotate(-85.59)"/><rect class="cls-8" x="325.09" y="325.62" width="1.5" height="2.55" transform="translate(-25.13 626.65) rotate(-85.59)"/><rect class="cls-8" x="320.53" y="325.27" width="1.5" height="2.55" transform="translate(-28.98 621.79) rotate(-85.59)"/><rect class="cls-8" x="316" y="324.92" width="1.5" height="2.55" transform="translate(-32.81 616.94) rotate(-85.59)"/><rect class="cls-7" x="327.47" y="320.52" width="15" height="13.71" transform="translate(-17.18 636.2) rotate(-85.59)"/><rect class="cls-8" x="338.76" y="326.67" width="1.5" height="2.55" transform="translate(-13.57 641.24) rotate(-85.59)"/><rect class="cls-8" x="334.2" y="326.32" width="1.5" height="2.55" transform="matrix(0.08, -1, 1, 0.08, -17.4, 636.39)"/><rect class="cls-8" x="329.67" y="325.97" width="1.5" height="2.55" transform="matrix(0.08, -1, 1, 0.08, -21.24, 631.55)"/><rect class="cls-7" x="341.14" y="321.57" width="15" height="13.71" transform="translate(-5.61 650.8) rotate(-85.59)"/><rect class="cls-8" x="352.43" y="327.73" width="1.5" height="2.55" transform="matrix(0.08, -1, 1, 0.08, -1.98, 655.86)"/><rect class="cls-8" x="347.88" y="327.38" width="1.5" height="2.55" transform="translate(-5.85 650.98) rotate(-85.59)"/><rect class="cls-8" x="343.34" y="327.03" width="1.5" height="2.55" transform="matrix(0.08, -1, 1, 0.08, -9.67, 646.15)"/></g><g class="cls-6"><rect class="cls-7" x="31.46" y="239.02" width="13.79" height="15" transform="translate(-199.95 172.66) rotate(-63.94)"/><rect class="cls-8" x="39.29" y="241.74" width="2.56" height="1.5" transform="translate(-195.08 172.39) rotate(-63.94)"/><rect class="cls-8" x="37.27" y="245.86" width="2.56" height="1.5" transform="translate(-199.92 172.89) rotate(-63.94)"/><rect class="cls-8" x="35.26" y="249.97" width="2.56" height="1.5" transform="translate(-204.74 173.39) rotate(-63.94)"/><rect class="cls-7" x="37.52" y="226.63" width="13.79" height="15" transform="translate(-185.42 171.15) rotate(-63.94)"/><rect class="cls-8" x="45.35" y="229.35" width="2.56" height="1.5" transform="translate(-180.55 170.88) rotate(-63.94)"/><rect class="cls-8" x="43.33" y="233.47" width="2.56" height="1.5" transform="translate(-185.39 171.39) rotate(-63.94)"/><rect class="cls-8" x="41.32" y="237.58" width="2.56" height="1.5" transform="translate(-190.21 171.89) rotate(-63.94)"/><rect class="cls-7" x="43.58" y="214.24" width="13.79" height="15" transform="translate(-170.89 169.65) rotate(-63.94)"/><rect class="cls-8" x="51.41" y="216.96" width="2.56" height="1.5" transform="translate(-166.03 169.39) rotate(-63.94)"/><rect class="cls-8" x="49.39" y="221.08" width="2.56" height="1.5" transform="translate(-170.86 169.89) rotate(-63.94)"/><rect class="cls-8" x="47.38" y="225.19" width="2.56" height="1.5" transform="translate(-175.68 170.38) rotate(-63.94)"/><rect class="cls-7" x="49.64" y="201.85" width="13.79" height="15" transform="translate(-156.36 168.15) rotate(-63.94)"/><rect class="cls-8" x="57.47" y="204.57" width="2.56" height="1.5" transform="translate(-151.5 167.88) rotate(-63.94)"/><rect class="cls-8" x="55.45" y="208.69" width="2.56" height="1.5" transform="translate(-156.34 168.38) rotate(-63.94)"/><rect class="cls-8" x="53.44" y="212.8" width="2.56" height="1.5" transform="translate(-161.16 168.88) rotate(-63.94)"/><rect class="cls-7" x="55.7" y="189.46" width="13.79" height="15" transform="translate(-141.84 166.65) rotate(-63.94)"/><rect class="cls-8" x="63.53" y="192.18" width="2.56" height="1.5" transform="translate(-136.97 166.38) rotate(-63.94)"/><rect class="cls-8" x="61.51" y="196.3" width="2.56" height="1.5" transform="translate(-141.81 166.88) rotate(-63.94)"/><rect class="cls-8" x="59.5" y="200.41" width="2.56" height="1.5" transform="translate(-146.63 167.38) rotate(-63.94)"/><rect class="cls-7" x="61.76" y="177.07" width="13.79" height="15" transform="translate(-127.31 165.15) rotate(-63.94)"/><rect class="cls-8" x="69.59" y="179.79" width="2.56" height="1.5" transform="translate(-122.44 164.88) rotate(-63.94)"/><rect class="cls-8" x="67.57" y="183.91" width="2.56" height="1.5" transform="translate(-127.28 165.37) rotate(-63.93)"/><rect class="cls-8" x="65.56" y="188.02" width="2.56" height="1.5" transform="translate(-132.1 165.87) rotate(-63.93)"/><rect class="cls-7" x="67.82" y="164.68" width="13.79" height="15" transform="translate(-112.78 163.64) rotate(-63.94)"/><rect class="cls-8" x="75.65" y="167.4" width="2.56" height="1.5" transform="translate(-107.92 163.37) rotate(-63.94)"/><rect class="cls-8" x="73.63" y="171.52" width="2.56" height="1.5" transform="translate(-112.75 163.87) rotate(-63.94)"/><rect class="cls-8" x="71.62" y="175.63" width="2.56" height="1.5" transform="translate(-117.57 164.37) rotate(-63.94)"/><rect class="cls-7" x="73.88" y="152.29" width="13.79" height="15" transform="translate(-98.26 162.14) rotate(-63.94)"/><rect class="cls-8" x="81.71" y="155.01" width="2.56" height="1.5" transform="translate(-93.39 161.87) rotate(-63.93)"/><rect class="cls-8" x="79.69" y="159.13" width="2.56" height="1.5" transform="translate(-98.23 162.37) rotate(-63.94)"/><rect class="cls-8" x="77.68" y="163.24" width="2.56" height="1.5" transform="translate(-103.05 162.87) rotate(-63.94)"/><rect class="cls-7" x="79.94" y="139.9" width="13.79" height="15" transform="translate(-83.73 160.64) rotate(-63.94)"/><rect class="cls-8" x="87.77" y="142.62" width="2.56" height="1.5" transform="translate(-78.86 160.37) rotate(-63.93)"/><rect class="cls-8" x="85.75" y="146.74" width="2.56" height="1.5" transform="translate(-83.7 160.87) rotate(-63.93)"/><rect class="cls-8" x="83.74" y="150.85" width="2.56" height="1.5" transform="translate(-88.52 161.37) rotate(-63.93)"/><rect class="cls-7" x="86" y="127.51" width="13.79" height="15" transform="translate(-69.2 159.14) rotate(-63.94)"/><rect class="cls-8" x="93.83" y="130.23" width="2.56" height="1.5" transform="translate(-64.34 158.87) rotate(-63.93)"/><rect class="cls-8" x="91.82" y="134.35" width="2.56" height="1.5" transform="translate(-69.17 159.37) rotate(-63.94)"/><rect class="cls-8" x="89.8" y="138.46" width="2.56" height="1.5" transform="translate(-73.99 159.87) rotate(-63.94)"/><rect class="cls-7" x="92.06" y="115.12" width="13.79" height="15" transform="translate(-54.67 157.64) rotate(-63.94)"/><rect class="cls-8" x="99.89" y="117.84" width="2.56" height="1.5" transform="translate(-49.81 157.37) rotate(-63.94)"/><rect class="cls-8" x="97.88" y="121.96" width="2.56" height="1.5" transform="translate(-54.64 157.87) rotate(-63.94)"/><rect class="cls-8" x="95.86" y="126.07" width="2.56" height="1.5" transform="translate(-59.46 158.37) rotate(-63.94)"/><rect class="cls-7" x="98.12" y="102.73" width="13.79" height="15" transform="translate(-40.15 156.13) rotate(-63.94)"/><rect class="cls-8" x="105.95" y="105.45" width="2.56" height="1.5" transform="translate(-35.28 155.86) rotate(-63.94)"/><rect class="cls-8" x="103.94" y="109.57" width="2.56" height="1.5" transform="translate(-40.12 156.37) rotate(-63.94)"/><rect class="cls-8" x="101.92" y="113.68" width="2.56" height="1.5" transform="translate(-44.94 156.86) rotate(-63.94)"/><rect class="cls-7" x="104.18" y="90.34" width="13.79" height="15" transform="translate(-25.62 154.63) rotate(-63.94)"/><rect class="cls-8" x="112.01" y="93.06" width="2.56" height="1.5" transform="translate(-20.75 154.36) rotate(-63.94)"/><rect class="cls-8" x="110" y="97.18" width="2.56" height="1.5" transform="translate(-25.59 154.86) rotate(-63.94)"/><rect class="cls-8" x="107.98" y="101.29" width="2.56" height="1.5" transform="translate(-30.41 155.36) rotate(-63.94)"/><rect class="cls-7" x="110.24" y="77.95" width="13.79" height="15" transform="translate(-11.09 153.13) rotate(-63.94)"/><rect class="cls-8" x="118.07" y="80.67" width="2.56" height="1.5" transform="translate(-6.23 152.86) rotate(-63.94)"/><rect class="cls-8" x="116.06" y="84.79" width="2.56" height="1.5" transform="translate(-11.06 153.36) rotate(-63.94)"/><rect class="cls-8" x="114.04" y="88.9" width="2.56" height="1.5" transform="translate(-15.88 153.86) rotate(-63.94)"/><rect class="cls-7" x="116.3" y="65.56" width="13.79" height="15" transform="translate(3.43 151.63) rotate(-63.94)"/><rect class="cls-8" x="124.13" y="68.28" width="2.56" height="1.5" transform="translate(8.3 151.36) rotate(-63.94)"/><rect class="cls-8" x="122.12" y="72.4" width="2.56" height="1.5" transform="translate(3.46 151.86) rotate(-63.94)"/><rect class="cls-8" x="120.11" y="76.51" width="2.56" height="1.5" transform="translate(-1.36 152.36) rotate(-63.94)"/><rect class="cls-7" x="122.36" y="53.17" width="13.79" height="15" transform="translate(17.96 150.13) rotate(-63.94)"/><rect class="cls-8" x="130.19" y="55.89" width="2.56" height="1.5" transform="translate(22.83 149.86) rotate(-63.94)"/><rect class="cls-8" x="128.18" y="60.01" width="2.56" height="1.5" transform="translate(17.99 150.36) rotate(-63.94)"/><rect class="cls-8" x="126.17" y="64.12" width="2.56" height="1.5" transform="translate(13.17 150.86) rotate(-63.94)"/></g><g class="cls-9"><image width="128" height="128" transform="translate(358.37 294.79) scale(0.36)" xlink:href="../../figure/2.jpg"/></g><circle class="cls-1" cx="381.44" cy="317.9" r="22.99"/><g class="cls-10"><image width="500" height="500" transform="translate(3.61 262.33) scale(0.12)" xlink:href="../../figure/3.jpg"/></g><circle class="cls-2" cx="33.99" cy="292.71" r="31.49"/><g class="cls-11"><image width="128" height="128" transform="translate(399.87 1.18) scale(0.28)" xlink:href="../../figure/female2.jpg"/></g><circle class="cls-3" cx="418.39" cy="20.07" r="17.57"/><g class="cls-12"><image width="128" height="128" transform="translate(205.24 129.11) scale(0.62)" xlink:href="../../figure/1.jpg"/></g><circle class="cls-4" cx="245.54" cy="169.65" r="38.87"/><g class="cls-13"><image width="200" height="300" transform="translate(130.14 6.23) scale(0.25)" xlink:href="../../figure/female1.jpg"/></g><ellipse class="cls-5" cx="155.25" cy="34.09" rx="24.05" ry="23.27"/></g></g></svg>