<svg xmlns="http://www.w3.org/2000/svg" xmlns:xlink="http://www.w3.org/1999/xlink" viewBox="0 0 701.31 528.99"><defs><style>.cls-1{fill:#39b54a;}.cls-2,.cls-9{fill:#6c63ff;}.cls-2,.cls-4,.cls-7{opacity:0.1;}.cls-18,.cls-2,.cls-22,.cls-34,.cls-4,.cls-5{isolation:isolate;}.cls-3{fill:#2d293d;}.cls-5{fill:#3fa9f5;opacity:0.2;}.cls-6{fill:#fff;}.cls-34,.cls-8{opacity:0.2;}.cls-10{fill:#ffd2c6;}.cls-11{fill:#626696;}.cls-12{fill:#ffcde5;}.cls-13{fill:#985c7e;}.cls-14{fill:#7ac943;}.cls-15{fill:url(#linear-gradient);}.cls-16{fill:#cc818c;}.cls-17{fill:#444053;}.cls-18,.cls-30{opacity:0.05;}.cls-19{fill:#ff748f;}.cls-20,.cls-22{fill:#575988;}.cls-21{fill:#dce6f2;}.cls-22{opacity:0.5;}.cls-23{fill:#67647e;}.cls-24{fill:#585268;}.cls-25{fill:#e4aab4;}.cls-26{fill:#ffd037;}.cls-27{fill:#65617d;}.cls-28{fill:#9d9cb5;}.cls-29{fill:url(#linear-gradient-2);}.cls-31{fill:#ffcdd3;}.cls-32{fill:#656691;}.cls-33{fill:#a8a8a8;}</style><linearGradient id="linear-gradient" x1="683.11" y1="1641.21" x2="683.11" y2="1899.48" gradientTransform="matrix(1, 0, 0, -1, -138.09, 1928.38)" gradientUnits="userSpaceOnUse"><stop offset="0" stop-color="gray" stop-opacity="0.25"/><stop offset="0.54" stop-color="gray" stop-opacity="0.12"/><stop offset="1" stop-color="gray" stop-opacity="0.1"/></linearGradient><linearGradient id="linear-gradient-2" x1="443.69" y1="1414.73" x2="443.69" y2="1708.06" gradientTransform="matrix(1, 0, 0, -1, -61.06, 1928.38)" xlink:href="#linear-gradient"/></defs><title>working</title><g id="Layer_2" data-name="Layer 2"><g id="Layer_1-2" data-name="Layer 1"><path class="cls-1" d="M339.15,497.08s-24.75-1.5-21.83,15.85a4.24,4.24,0,0,0,2.2,4.46s0-1.3,2.53-.85a11.54,11.54,0,0,0,2.69.13,5.56,5.56,0,0,0,3.29-1.36h0s7-2.88,9.67-14.25c0,0,2-2.48,1.95-3.11l-4.18,1.78s1.43,3,.3,5.52c0,0-.13-5.41-.94-5.28-.16,0-2.16,1-2.16,1s2.45,5.25.6,9.06c0,0,.7-6.46-1.37-8.68L329,503.1s2.87,5.43.92,9.86c0,0,.5-6.79-1.54-9.43l-2.67,2.07s2.7,5.34,1.06,9c0,0-.22-7.89-1.64-8.45a16.09,16.09,0,0,0-2.68,2.89s1.84,3.91.7,5.93c0,0-.7-5.26-1.3-5.28,0,0-2.33,3.48-2.57,5.85a12.71,12.71,0,0,1,2-6.21,6.92,6.92,0,0,0-3.55,1.84s.36-2.47,4.12-2.68a18.3,18.3,0,0,1,2.44-2.81s-3.75-.31-6,.7c0,0,2-2.33,6.71-1.3l2.6-2.15s-4.93-.65-7,.07c0,0,2.41-2.06,7.74-.56l2.86-1.71a25.76,25.76,0,0,0-6.71-.58s2.64-1.43,7.55.12l2.05-.92s-3.08-.61-4-.7-.95-.34-.95-.34a10.58,10.58,0,0,1,5.78.65S339.23,497.35,339.15,497.08Z"/><ellipse class="cls-2" cx="322.1" cy="518.9" rx="17.52" ry="2.96"/><ellipse class="cls-2" cx="516.06" cy="497.69" rx="17.52" ry="2.96"/><ellipse class="cls-2" cx="420.17" cy="513.59" rx="54.68" ry="8.97"/><path class="cls-3" d="M394.67,513l-8.4-3c-2.31-1.88-1.57-4-.41-5.57a4.51,4.51,0,0,1,3.33-1.67,4,4,0,0,0,1.61-.57,3.79,3.79,0,0,0,1.3-1.22,6.13,6.13,0,0,0,.95-3.25s9.22-2.7,11.71,0a7,7,0,0,1,1.12,1.63,13.81,13.81,0,0,1,1.18,5.94s.47,2.93,1.22,6.28S394.67,513,394.67,513Z"/><path class="cls-4" d="M404.82,497.78a6.84,6.84,0,0,1,1.12,1.63h0L392.12,501a6.14,6.14,0,0,0,1-3.25S402.3,495.08,404.82,497.78Z"/><path class="cls-5" d="M431.91,72.45C401.82,98,362.79,96.34,328.58,83.05S263,46.1,229.63,29.28A277.88,277.88,0,0,0,142.7,1.8C100.22-4.1,52.79,3.1,23.2,44.38c-33,46-30.43,128.93,5.2,171.12C46.54,237,70.28,247.51,91,264.3s39.88,44.61,38.12,77c-1.64,29.93-20.61,52.94-40.26,67.37C73.66,419.78,55,432,53.14,455.05c-1.77,22.33,14,39.84,29,49.8,49,32.47,109.31,32.16,158.11-.82,17.4-11.77,33.38-27.43,51.63-36.59,47.92-24.07,100.73.16,151.47,9a252,252,0,0,0,128.83-11.38c25.13-9,50.35-22.77,68-48.38,12.74-18.48,20.67-41.87,28.11-65q11.91-36.93,22.9-74.4c4.39-15,8.72-30.28,9.86-46.32,2-29.07-6.62-57.81-18.42-82.34-28-58.26-75.22-99.21-126.33-109.62S451.06,49,411.42,93.44"/><ellipse class="cls-2" cx="318.52" cy="346.49" rx="147.68" ry="6.74"/><path class="cls-6" d="M313.56,318.65c-73.83,0-133.89-60.06-133.89-133.89A134,134,0,0,1,313.56,50.87c73.85,0,133.87,60.07,133.87,133.89S387.37,318.65,313.56,318.65Zm0-266.48C240.45,52.17,181,111.66,181,184.76a132.59,132.59,0,1,0,265.18,0C446.15,111.65,386.65,52.17,313.56,52.17Z"/><path class="cls-6" d="M313.56,288.61A103.85,103.85,0,1,1,417.41,184.76,104,104,0,0,1,313.56,288.61Zm0-206.39A102.54,102.54,0,1,0,416.11,184.76,102.67,102.67,0,0,0,313.56,82.22Z"/><path class="cls-6" d="M313.56,256.33a71.57,71.57,0,1,1,71.57-71.57A71.57,71.57,0,0,1,313.56,256.33Zm0-141.84a70.27,70.27,0,1,0,70.27,70.27,70.27,70.27,0,0,0-70.27-70.27Z"/><ellipse class="cls-2" cx="637.62" cy="262.31" rx="9.28" ry="3.07"/><ellipse class="cls-2" cx="116.16" cy="424.1" rx="54.68" ry="8.97"/><g class="cls-7"><path d="M212,175.49H45.2a8.74,8.74,0,0,0-8.72,8.72v105.4a8.74,8.74,0,0,0,8.72,8.72H176.06s3.39,18-7.75,19.94c0,0,24.95,1.79,20.59-19.94H212a8.75,8.75,0,0,0,8.72-8.72V184.21A8.75,8.75,0,0,0,212,175.49Z"/><g class="cls-8"><rect x="61.03" y="203.47" width="135.14" height="8.24" rx="3.69"/><rect x="61.03" y="240.28" width="135.14" height="8.24" rx="3.69"/><rect x="61.03" y="258.68" width="113.33" height="8.24" rx="3.69"/><rect x="61.03" y="221.87" width="58.6" height="8.24" rx="3.69"/></g></g><path class="cls-6" d="M213.47,174.76H46.65a8.75,8.75,0,0,0-8.72,8.72V288.89a8.74,8.74,0,0,0,8.72,8.71H177.51s3.4,18-7.75,19.93c0,0,25,1.79,20.59-19.93h23.12a8.74,8.74,0,0,0,8.72-8.71V183.48A8.75,8.75,0,0,0,213.47,174.76Z"/><g class="cls-8"><rect class="cls-9" x="62.49" y="202.74" width="135.14" height="8.24" rx="3.69"/><rect class="cls-9" x="62.49" y="239.55" width="135.14" height="8.24" rx="3.69"/><rect class="cls-9" x="62.49" y="257.96" width="113.33" height="8.24" rx="3.69"/><rect class="cls-9" x="62.49" y="221.15" width="58.6" height="8.24" rx="3.69"/></g><path class="cls-10" d="M151.55,173.09l-9.24,19.66s-1.37,3.69-2.25,4.37-4.76,12.37-4.76,12.37l-9.91,15.31h0l-.65,1-3.91-1.07-2.72-10.2.17-3v-.37s6.13-6.41,7.49-6.9c0,0,1.07.12,3.12-4.85s3.9-6.05,3.9-6.05l1.07-3.6,11.49-18.29s9.63-13.82,12.25-7.69S151.55,173.09,151.55,173.09Z"/><path class="cls-10" d="M113.16,312.75a2.06,2.06,0,0,1-.31.94c-1.07,1.56-7.1,33.38-7.1,33.38.48,2.14-.87,6.42-1.75,8.37s-2.83,12.06-2.83,12.06-.48,21.8-1.74,25.2.4,10.71.4,10.71c-.12,3.35,1.9,6.9,3.09,8.71l.24.33c.39.56.65.88.65.88a4.92,4.92,0,0,0,1.36,1.68l.27.21a15.46,15.46,0,0,0,5.45,2.3l.19,0a13.08,13.08,0,0,0,1.3.24l.48,2.61-5.15,1.06-9.82.65s-11.59.88-9-4.28a7.07,7.07,0,0,0,.48-1.09h0c.1-.25.19-.51.27-.77,1.58-5,.51-11,.51-11l-2.26-17.54c-3.69-16.34,2.91-34.54,2.91-34.54s-.58-1.46.69-5.15,0-11.77,0-11.77-.65-10.41-1.56-15.57a31.92,31.92,0,0,1-.35-6.55A32.81,32.81,0,0,1,90,310l22.19-2.94S113.41,310.69,113.16,312.75Z"/><path class="cls-4" d="M112.84,420.44l-5.15,1.07-9.83.65s-11.58.88-9-4.28a8.87,8.87,0,0,0,.47-1.1h0c.1-.24.19-.5.27-.76a17.88,17.88,0,0,1,5.86,1.18c3.29,1.3,5.78-2.05,5.78-2.05l1.6-3.06.23-.44c.39.56.65.88.65.88a5.22,5.22,0,0,0,1.64,1.88l-.28.58-1.55,3.25s2,.2,4.72.65a2.1,2.1,0,0,0,2.56-1.4l.19,0c.78.18,1.3.25,1.3.25Z"/><path class="cls-11" d="M117.61,422.87c-.39,1.75-11.24,2.29-11.24,2.29s-6-.59-7.73.82-6.67,1.08-6.87,1.08S89,427,87.92,422.24s1.35-5.39,1.46-5.43h0A17.68,17.68,0,0,1,95.52,418c3.3,1.3,5.78-2,5.78-2l1.84-3.51c.39.56.65.88.65.88a5.21,5.21,0,0,0,1.63,1.89l-1.83,3.85s2,.2,4.72.65a2.25,2.25,0,0,0,2.75-2.14,1.5,1.5,0,0,0,0-.3l3.79,1.08A3.91,3.91,0,0,1,117.61,422.87Z"/><path class="cls-10" d="M138,335.94c-.26,1.56-.52,5.58-.52,5.58.91,3.37-1.43,11.38-1.43,11.38l-1.16,4.56c.52,5.85-3.21,20.11-3.21,20.11s-2.5,13.23-3.8,18.95a15.69,15.69,0,0,0,.65,9.53l.11.24a1.23,1.23,0,0,0,.07.32c0,.1.09.31.14.46a7,7,0,0,0,1.3,2.17,6,6,0,0,0,.7.72l0,0a14.08,14.08,0,0,0,4.13,2.54h0l.66.26a18.25,18.25,0,0,0,2.06.65h0l.23.05-.53,3.06-6.87-1.75-9.2-3-4.56-2.6.15-.73v-.07c0-.21.07-.45.13-.72.78-4,2.54-15.23,1.66-23.49-1.1-10.25,3.16-24.39,4.2-27.76a16.8,16.8,0,0,0,.79-6c-1.7-2.47-2.09-12.32-2.09-12.32s-3.11-6.36-5.68-13.11a35.13,35.13,0,0,1-1.86-6.82,23.73,23.73,0,0,1-.37-5s20.89-19.08,23.18-.61c.08.65.15,1.22.23,1.81C139.19,331.33,138.29,334.44,138,335.94Z"/><path class="cls-4" d="M138,413.52l-.52,3.06-6.87-1.76-9.21-3-4.55-2.6s0-.25.14-.73v-.07c0-.21.08-.45.14-.72l.65-.07h.05a8.61,8.61,0,0,1,3.86.53c1.49.56,3.46,1.21,3.86.93a4.93,4.93,0,0,1,2.21-.39l1-2.09.14-.32a7,7,0,0,0,1.3,2.17,7.57,7.57,0,0,0,.74.76l0,.74,0,1a12.87,12.87,0,0,0,3.3,1.53,1.79,1.79,0,0,0,.92,0h0l.66.26a16.41,16.41,0,0,0,2.06.65h0A1.22,1.22,0,0,0,138,413.52Z"/><path class="cls-11" d="M134.64,420.05c-1.92-.55-6.55-1.43-7.3-.75s-7.16,0-7.16,0a3.89,3.89,0,0,1-3.31-1.95c-1.3-2.08-.25-8.79-.25-8.79l.47-.05.8-.07h0a8.47,8.47,0,0,1,3.86.52c1.49.56,3.46,1.2,3.86.93a4.93,4.93,0,0,1,2.21-.39l1.09-2.41a7,7,0,0,0,1.3,2.17,8.85,8.85,0,0,0,.74.76l-.09,1.79a13.73,13.73,0,0,0,3.3,1.52,1.3,1.3,0,0,0,1.59-.5,1.59,1.59,0,0,0,.12-.27h0a10.9,10.9,0,0,0,2.71.9h0a5,5,0,0,1,5.3,3.82C144.9,420.26,136.52,420.6,134.64,420.05Z"/><path class="cls-4" d="M113.16,312.75c-.43.12-.82.24-1.18.36a15.75,15.75,0,0,1-2.87.6c-6.14.87-16.27.35-19.47.15A32.81,32.81,0,0,1,90,310l22.18-2.94S113.41,310.69,113.16,312.75Z"/><path class="cls-11" d="M132.5,307.36s-8.15,1.27-14.77,2.72c-2.21.48-4.25,1-5.76,1.47a17.66,17.66,0,0,1-2.87.61c-7.38,1-20.49.08-20.49.08C85,300.56,93,285.87,93,285.87c-.19-1.17,1.66-4.77,1.66-4.77l0-.11,1.13-4.17h30.26l.37,1.79.77,3.65L132,304.81Z"/><path class="cls-4" d="M137.19,314.44l-.19.08-3.54,1.57c-3.83,1.77-15.3,2.1-19.31,2.13a23.73,23.73,0,0,1-.37-5s20.89-19.07,23.18-.61C137,313.29,137.11,313.86,137.19,314.44Z"/><path class="cls-11" d="M137.75,312.64,137,313l-3.54,1.57c-3.9,1.8-15.74,2.11-19.52,2.13h-1c-1.75-.05-3.5-1.69-3.5-2.12,0-.24-.18-1.39-.34-2.38-.13-.79-.25-1.48-.25-1.48s-7.8-3.37-11.77-6.09c-3-2-2.22-16.4-1.64-23.63.2-2.5.37-4.13.37-4.13l30.64,1.78,4.29.25,2.46.55.65.13s1.76,12.85,2.6,13.92.3,4.67.2,6.72a12.71,12.71,0,0,1-.29,2.6s1.26,3.6,1,5.62A11,11,0,0,0,137.75,312.64Z"/><circle class="cls-10" cx="104.96" cy="193.43" r="12.55"/><path class="cls-10" d="M98.85,198.67s.87,11.88-1.56,14.61a107,107,0,0,1-8.75,7.88l1.95,8.07,11,1.27,12.85-13.72-2.92-3.6s-2.24-7.59-.39-11.38S98.85,198.67,98.85,198.67Z"/><path class="cls-4" d="M125.39,224.8h0l-.65,1-3.91-1.07-2.72-10.2.17-3,.8-1.15s4.28.11,4.09,4C123,217.87,124.93,223.5,125.39,224.8Z"/><path class="cls-4" d="M133.85,281.1s-3.09.69-6.64,1.16-7.64.69-9.32-.28c-2.81-1.67-18.08-1.2-22.46-1a4,4,0,0,0-.75,0l1.13-4.17h30.26l.37,1.79,4.3.25,2.46.55C133.61,280.41,133.85,281.1,133.85,281.1Z"/><path class="cls-12" d="M118.29,211.24s4.28.09,4.09,4,2.33,10.6,2.33,10.6l-1,2.24s-1.36,5.44-.3,6.81,5,1.36,2.73,12.55c0,0-.48,8.37.68,11.1s1.17,9.24,2.92,12a65.89,65.89,0,0,1,4.09,9.05s-12.65,2.82-16,.87-23.64-1-23.64-1,.09-3.41,0-3.8a3.24,3.24,0,0,1,.48-2.48c.65-.93,1.75-2.48,1.17-3.84s1.46-3.37.39-5.48-2.38-2.53-2.12-3.68A5,5,0,0,0,93,256.5c-.77-1-6-11.26-6-11.26l-.88-4.82s-6.77-5-6.65-7.3S82,227.55,82,227.55l6.5-6.4s3.6,3.91,7.1,2.53,11.06-7.88,11.06-7.88,2.69-1.45,2.89-2.52,1.84-.1,1.84-.1,2.44-1.33,2.93-.86a8.29,8.29,0,0,0,2.6.86Z"/><path class="cls-10" d="M81.51,231.5l-2.08,1.62a27.88,27.88,0,0,0-2.6,10.61,144.43,144.43,0,0,1-2.6,16.44l-4.09,7.3s-6.73,14.1-7.6,17.84-4.87,10.08-4.87,10.08-13.53,12.15-4.09,14.31S63.31,300,63.31,300s2.21-2.43,2.56-4.08S78.2,273.12,78.2,273.12s4.19-5.69,3.31-8.71c0,0,5.45-12.81,5.45-16a57.49,57.49,0,0,0-.88-8L87,233.7Z"/><path class="cls-4" d="M109.53,258.33s-9.54,5-11.38,5.25,8.07-1,8.07-1Z"/><path class="cls-4" d="M117.31,262.22s-12.64,4.28-18.21,3.5C99.12,265.72,112.94,268.35,117.31,262.22Z"/><path class="cls-4" d="M118.1,263.62s-11.39,7.16-18.11,6c0,0,15.67,3.12,18.11,1.47l-7-2S118.88,265,118.1,263.62Z"/><path class="cls-4" d="M105,171.35c-3.29-.66-6.94-.26-9.58,1.8-2,1.54-3.25,3.91-5.44,5a32.68,32.68,0,0,1-3.56,1.25,10.27,10.27,0,0,0-6.27,11.06c.35,2,1.25,3.71,1.69,5.61.8,3.4.1,7-.77,10.33a108.67,108.67,0,0,1-10.83,26.83,2.84,2.84,0,0,0-.54,1.8,2.62,2.62,0,0,0,.65,1.16c4.5,5.2,11.82,7,18.69,7.21,2.53.09,5.2,0,7.4-1.23a11,11,0,0,0,3.61-3.31,17.55,17.55,0,0,0,3.37-11.33c-.18-3.25-1.3-6.56-.46-9.72a2.57,2.57,0,0,1,.59-1.19c.74-.75,2-.56,3-.68,2.85-.33,4.7-3.35,5-6.2s-.38-5.73-.39-8.6a18,18,0,0,1,3.39-10.59c1-1.3,2.17-2.6,2.48-4.24.41-2.05-.78-3.56-1.81-5.2-1.6-2.53-2.38-5.47-4.8-7.4A13,13,0,0,0,105,171.35Z"/><path class="cls-13" d="M104.2,170.56c-3.29-.65-6.94-.26-9.58,1.82-2,1.53-3.25,3.9-5.45,5a29.28,29.28,0,0,1-3.55,1.25,10.28,10.28,0,0,0-6.27,11.06c.34,2,1.25,3.71,1.7,5.62.79,3.39.09,6.95-.77,10.32a108.61,108.61,0,0,1-10.81,26.83,2.7,2.7,0,0,0-.54,1.8,2.59,2.59,0,0,0,.65,1.15c4.51,5.2,11.82,7,18.69,7.21,2.53.09,5.21,0,7.4-1.22a11.28,11.28,0,0,0,3.62-3.32,17.64,17.64,0,0,0,3.35-11.3c-.19-3.25-1.31-6.56-.46-9.73a2.65,2.65,0,0,1,.58-1.19c.74-.75,1.95-.56,3-.65,2.85-.33,4.69-3.34,5-6.2s-.37-5.72-.39-8.6a18.09,18.09,0,0,1,3.38-10.63c1-1.3,2.16-2.6,2.48-4.24.41-2.05-.78-3.55-1.81-5.2-1.59-2.53-2.37-5.47-4.8-7.39A12.94,12.94,0,0,0,104.2,170.56Z"/><path class="cls-4" d="M100,292.22s2.5,11.68,6.65,14.86Z"/><g class="cls-7"><path d="M80.09,192.32c-.13-.46-.28-.91-.43-1.36C79.79,191.41,79.94,191.87,80.09,192.32Z"/><path d="M115.59,182.13a4.53,4.53,0,0,1,0,1.1c-.33,1.64-1.54,2.92-2.49,4.24a18,18,0,0,0-3.39,10.58c0,2.88.73,5.75.39,8.61s-2.18,5.85-5,6.2c-1.05.12-2.28-.08-3,.65a2.65,2.65,0,0,0-.58,1.19c-.83,3.16.27,6.47.45,9.73a17.58,17.58,0,0,1-3.34,11.3,11.46,11.46,0,0,1-3.61,3.32c-2.24,1.2-4.88,1.3-7.41,1.22-6.76-.23-13.94-2-18.46-7a1.78,1.78,0,0,0-.11.94,2.59,2.59,0,0,0,.65,1.15c4.51,5.2,11.82,7,18.69,7.21,2.53.1,5.21,0,7.4-1.22a11.28,11.28,0,0,0,3.62-3.32,17.64,17.64,0,0,0,3.35-11.3c-.19-3.25-1.31-6.56-.46-9.73a2.65,2.65,0,0,1,.58-1.19c.74-.75,1.95-.56,3-.65,2.85-.33,4.69-3.34,5-6.2s-.37-5.72-.39-8.6a18,18,0,0,1,3.38-10.59c1-1.3,2.16-2.6,2.48-4.24A4.76,4.76,0,0,0,115.59,182.13Z"/></g><path class="cls-14" d="M533.12,475.86s-24.73-1.1-21.84,11.76c0,0-.58,2.27,2.2,3.31,0,0,0-1,2.54-.64a15.1,15.1,0,0,0,2.69.1,6.64,6.64,0,0,0,3.29-1h0a16.16,16.16,0,0,0,9.66-10.56s2-1.85,2-2.32l-4.2,1.35s1.42,2.24.31,4.1c0,0-.14-4-.94-3.92-.16,0-2.17.77-2.17.77s2.45,3.89.6,6.73c0,0,.7-4.8-1.37-6.45l-2.94,1.28s2.87,4,.92,7.3c0,0,.5-5-1.54-7l-2.66,1.53s2.69,4,1,6.68c0,0-.21-5.86-1.62-6.3a15,15,0,0,0-2.69,2.15s1.85,2.9.7,4.4c0,0-.7-3.9-1.3-3.92,0,0-2.32,2.58-2.56,4.34a7.83,7.83,0,0,1,2-4.61,8.17,8.17,0,0,0-3.56,1.37s.37-1.83,4.14-2a15.31,15.31,0,0,1,2.43-2.08,20.41,20.41,0,0,0-6,.52s2-1.73,6.71-.94l2.6-1.6s-4.93-.48-7,.06c0,0,2.41-1.53,7.73-.42l2.87-1.27a35,35,0,0,0-6.72-.43s2.64-1.05,7.56.09l2.05-.68s-3.09-.45-4-.52-1-.26-1-.26a14.26,14.26,0,0,1,5.79.48S533.2,476.06,533.12,475.86Z"/><ellipse class="cls-2" cx="551.8" cy="284.22" rx="50.46" ry="8.28"/><path class="cls-15" d="M610.55,121a27.1,27.1,0,0,0,0-13.83v-6.51s2.35-12.76-8.14-21l-7-6.13s-3.9-3.35-5-3.56a4.63,4.63,0,0,0-.65-.1l-.21-.12a20.83,20.83,0,0,1-1.52-3.2,3,3,0,0,0,2.48-.85,3.21,3.21,0,0,0,.58-1h0c.41-.91.47-2,.82-3a6.81,6.81,0,0,1,1.3-2.12l-.21.34c1-1.22,2.27-2.28,3.19-3.57.18-.25.35-.52.51-.79l-.14.16c1.3-2.06,1.67-4.56,2-7a6.32,6.32,0,0,0,0-2.49,9.13,9.13,0,0,0-.69-1.57c-1.51-3.12-1.48-7-3.91-9.53-1.81-1.87-4.55-2.44-7.16-2.76s-5.31-.5-7.54-1.86a8.3,8.3,0,0,0-2-1.13,1.69,1.69,0,0,0-2,.75,1.38,1.38,0,0,1-.27.54.87.87,0,0,1-.77,0L570.81,30l0,.18h-.09l.13.54a.29.29,0,0,1,.32.19l-.55.86a8.58,8.58,0,0,1-3.12-.65v.16h0c-.07,1,1,1.61,1.38,2.53a2,2,0,0,1,0,1.24,3,3,0,0,1-.65,1c-1.23,1.21-2.79,1-4.21,1.74a.91.91,0,0,0-.51.57.47.47,0,0,0,0,.31.79.79,0,0,0,.29.36,6.38,6.38,0,0,0,1.34.83l-.4.39A15.45,15.45,0,0,0,570,65.39c.06.26.09.54.13.83v.08l0,.37-4.65,2a3.69,3.69,0,0,1-3.33-2.14c-1.08-2.24-4.9,0-4.9,0s-11.67-.88-16,1.27c0,0-7-2.92-7.94-3.12s-2.45-1-3.14-.78-1.57-1.3-2.06-1.17-.65-1-2.25-1.36-2.16.1-3.9-1.66S506,51,506,51l-6.47-5.27-6.86-5.45-.13.23a4.77,4.77,0,0,0-.13-.51,64.08,64.08,0,0,0-2.54-8c-.44-1.06-.65-2.39-1.23-1.69-.36.42-1-.5-2-1.12a1.61,1.61,0,0,0-2.26.4,1.43,1.43,0,0,0-.16.3h0c-5.34,8.37-7.26,9-4.16,12,2.75,2.73,4.59,5.15,6.84,5.86l.27.08a.38.38,0,0,1-.15,0l13,15.58s9.41,8.19,15.88,10.82,6,3.41,6,3.41,19.61,9.93,22.64,9.76,2.46,20.36,1.18,23.67-3.33,27.27-3.33,27.27-1.95,5.07.1,8.57c0,0,.45,6.72,0,8.32-1.79,2.76-4.33,7.43-4.75,12.24,0,.25,0,.49-.07.74a1.74,1.74,0,0,1-.47.38s.17,0,.44-.13a25,25,0,0,1-1.3,5.85,23.79,23.79,0,0,0-1.6,8.46v15.48l-1.3,9.6s-1.57,7.26,0,9a4.05,4.05,0,0,1,.86,3,5.59,5.59,0,0,0,1,3.48,2.6,2.6,0,0,1,.65,2.24c-.52,1.69.77,19.61.77,19.61s-.38,4.93-.9,5.2.88,5.67.88,5.67-5.3,4.42-4,6.76l1.35,2.08-.36.35-.22.22a2.11,2.11,0,0,0-1.35-.25,50.88,50.88,0,0,1-5.32,4.74c-2.39,1.73-8.89,4.22-8.89,4.22l-5.13.42h-.1s-2.45-.23-1.08,3.57,13.67,2.61,13.67,2.61l7.15-1.14s12.81.06,16.47-.74c1.54-.35,1.9-1.16,1.8-2h0l0,0a5.11,5.11,0,0,0-1-2.16l-.09-.11.23-2.6c5.43-3.13-1.54-9.29-1.54-9.29a62.33,62.33,0,0,1,3.62-6.88c1.23-1.67,1.22-26.49,1.22-26.49s.65-9-1-11.07a3.72,3.72,0,0,1,1.83-3.37c1.21-.83,4.87-12.21,7.74-21.66l1.8,11.14s-.39,5.32.79,6.88a2.63,2.63,0,0,1,.48,2.07,9.32,9.32,0,0,0,.27,4.51,2.92,2.92,0,0,0,.94,1.6c1,.52,1.12,2.37,1.51,2.76s2.81-.55,2.94.88a33.69,33.69,0,0,1,0,3.76l.78,23.12s-1.3,1.95-1.56,7a8.94,8.94,0,0,1-1,4.14,2.12,2.12,0,0,0,.2,2.49l.23.26-1,.75a2.12,2.12,0,0,0-.6,2.6,2.09,2.09,0,0,0-.61,2.24c.05.13.11.25.17.37a3.64,3.64,0,0,0-2,1,16,16,0,0,1-3.45,3.48,63.24,63.24,0,0,0-5.5,4.71,8,8,0,0,1-3.22,2.6,5.18,5.18,0,0,1-1,.29c-2.6.52-1.76,3.22.33,3.64s9,2.56,14.41,1.3a5,5,0,0,0,3.95-.55,55.29,55.29,0,0,1,7.7-2.6s2.94,0,3.33-1.17a4.83,4.83,0,0,0,.17-1.14l.08-.08-.08-.07a15.11,15.11,0,0,0-.2-2.6c-.07-.44-.15-.85-.23-1.17-.26-1-.72-2.23-.92-2.76a.42.42,0,0,0,.09-.14c1.12-1.89-.74-6.5-.74-6.5a12.33,12.33,0,0,1,2.22-2.61c1-.77,3.79-21,3.79-21s-.13-5.21,1.3-7.54-2-16.49-2-16.49-1.44-3.25-.91-4.42-.53-5.45-.53-5.45v-5.11a5.48,5.48,0,0,0-.3-1.8c-.4-1.2-1-3.51-.35-5.21.92-2.33,3-16.75,3-16.75s-1.63-6.36.75-11.42c.2-.4.41-.8.65-1.18,1.77-2.78,1.25-7.73.38-11.71-.14-.62-.28-1.21-.43-1.77-.06-.24-.13-.47-.19-.7l.28-.12a8.35,8.35,0,0,1,.09-1,7.15,7.15,0,0,0,4.72-3.25s6-6.72,11.27-9.54,5.69-6.92,5.69-6.92c-.79-1.37,1.4-6.92,1.4-6.92Zm-17.23,9-5.66,6.56v0c-1.47-2,1.38-6.62,1.38-6.62l4.67-10.48a6.3,6.3,0,0,1-.61,3.09c-1.3,1.76,2.35,4.68,2.35,4.68-2,0-2.15,2.81-2.15,2.81Z"/><path class="cls-16" d="M493.62,43.92l-3.08,6a12.28,12.28,0,0,1-2.88-.59,10.91,10.91,0,0,1-6.75-5.86c-2.76-6.1,1.81-10.05,3.94-11.2s4.1-2.5,5.69,1.3a66.68,66.68,0,0,1,2.51,7.95C493.4,43,493.62,43.92,493.62,43.92Z"/><path class="cls-16" d="M591.82,75.15l-4.93,7.36s-23.33,11.13-18.87-2c2-5.76,2.19-10,1.84-12.89v-.08c-.46-3.64-1.83-5.2-1.83-5.2s22.74-11.64,19.36-3.68a11.06,11.06,0,0,0-.81,5.24A17.8,17.8,0,0,0,589,71.22,23.46,23.46,0,0,0,591.82,75.15Z"/><path class="cls-17" d="M584.75,220.76s3.36,14.07,2,16.39-1.31,7.48-1.31,7.48-2.71,20.14-3.74,20.92a12.19,12.19,0,0,0-2.2,2.6s1.85,4.55.74,6.44a1.56,1.56,0,0,1-.74.65c-1.73.73-8.12-2.5-11.75-4.49a2,2,0,0,1-1-1.15,2.07,2.07,0,0,1,.6-2.23,2.11,2.11,0,0,1,.59-2.6l1-.74-.22-.26a2.11,2.11,0,0,1-.19-2.47,9.23,9.23,0,0,0,.93-4.11c.26-5,1.55-7,1.55-7l-.78-23a33.33,33.33,0,0,0,0-3.74c-.13-1.42-2.52-.48-2.9-.87s-.45-2.23-1.48-2.75a2.86,2.86,0,0,1-.94-1.59,9.2,9.2,0,0,1-.27-4.48,2.62,2.62,0,0,0-.47-2.06c-1.17-1.54-.78-6.83-.78-6.83l-1.78-11.07c-2.84,9.39-6.45,20.7-7.64,21.52a3.73,3.73,0,0,0-1.81,3.36c1.68,2.06,1,11,1,11s0,24.65-1.21,26.32a64.58,64.58,0,0,0-3.57,6.84s6.92,6.16,1.48,9.26l-.06,0c-5.55,3.1-17-5.54-17-5.54l1.19-1.2.36-.35L533,263c-1.33-2.32,3.91-6.71,3.91-6.71s-1.39-5.42-.88-5.68.88-5.16.88-5.16-1.27-17.81-.76-19.48a2.59,2.59,0,0,0-.61-2.23,5.58,5.58,0,0,1-1-3.45,4.12,4.12,0,0,0-.84-3c-1.55-1.68,0-8.91,0-8.91l1.3-9.55V183.65a24.18,24.18,0,0,1,1.56-8.54,25.92,25.92,0,0,0,1.41-6.87c.42-4.89,3-9.65,4.82-12.36.93-1.43,1.63-2.29,1.63-2.29l41.3-1.62s.65,1.84,1.3,4.4c.14.56.28,1.14.41,1.76.87,4,1.39,8.88-.36,11.65a11.19,11.19,0,0,0-.65,1.17c-2.36,5-.75,11.35-.75,11.35s-2.06,14.31-3,16.65c-.65,1.64-.05,3.94.36,5.14a5.63,5.63,0,0,1,.29,1.78V211s1,4.26.52,5.42S584.75,220.76,584.75,220.76Z"/><path class="cls-4" d="M586.65,170.15a11.9,11.9,0,0,0-.65,1.16l-2.32-.13c.22-1.19-1.36-12.42-1.36-12.42l4.68-.26C587.88,162.49,588.4,167.41,586.65,170.15Z"/><path class="cls-17" d="M587,169.79a8.32,8.32,0,0,0-.65,1.17l-2.33-.13c.23-1.2-1.36-12.43-1.36-12.43l4.68-.26C588.27,162.11,588.79,167,587,169.79Z"/><path class="cls-18" d="M587,169.79a8.32,8.32,0,0,0-.65,1.17l-2.33-.13c.23-1.2-1.36-12.43-1.36-12.43l4.68-.26C588.27,162.11,588.79,167,587,169.79Z"/><path class="cls-4" d="M580.2,274.57a1.56,1.56,0,0,1-.74.65c-1.73.73-8.12-2.5-11.75-4.49a2,2,0,0,1-1-1.15c2.07-.38,3.43,1.95,3.43,1.95a3,3,0,0,1,4.21,1l0,.08c1.77,2.6,5.58,1.51,5.58,1.51S580.09,274.25,580.2,274.57Z"/><path class="cls-19" d="M581.27,282.48c-.39,1.16-3.29,1.16-3.29,1.16a61.83,61.83,0,0,0-7.52,2.65,5.13,5.13,0,0,1-3.9.55c-5.33,1.23-12.17-.9-14.23-1.31s-2.88-3.09-.33-3.61a4.62,4.62,0,0,0,1-.29,7.8,7.8,0,0,0,3.17-2.6,67.1,67.1,0,0,1,5.43-4.69,15.5,15.5,0,0,0,3.41-3.45c3-2.68,5.21,1,5.21,1a3.06,3.06,0,0,1,4.21,1l0,.08c1.78,2.6,5.59,1.51,5.59,1.51s.65,1.74,1,3c.08.32.16.72.23,1.16A10.13,10.13,0,0,1,581.27,282.48Z"/><circle class="cls-20" cx="572.4" cy="273.97" r="0.36"/><circle class="cls-20" cx="569.37" cy="276.8" r="0.36"/><circle class="cls-20" cx="566.28" cy="279.35" r="0.36"/><circle class="cls-20" cx="567.88" cy="278.21" r="0.36"/><circle class="cls-20" cx="570.95" cy="275.29" r="0.36"/><path class="cls-21" d="M581.27,282.48c-.39,1.16-3.29,1.16-3.29,1.16a61.83,61.83,0,0,0-7.52,2.65,5.13,5.13,0,0,1-3.9.55c-5.33,1.23-12.17-.9-14.23-1.31s-2.88-3.09-.33-3.61a4.62,4.62,0,0,0,1-.29,24.4,24.4,0,0,0,7,1.3c5.26.22,9.42,0,9.42,0l5.32-1.71A9.06,9.06,0,0,1,578,280a8.28,8.28,0,0,0,3.26-1.42A10.13,10.13,0,0,1,581.27,282.48Z"/><path class="cls-22" d="M568,285.82a4.41,4.41,0,0,1-.89-.09l.08-.38a5.56,5.56,0,0,0,3.19-.44c.47-.19,1-.41,1.41-.65a16.83,16.83,0,0,1,1.68-.74l.52-.18a8.18,8.18,0,0,0,.87-.32c.16-.06.32-.14.47-.21a5.83,5.83,0,0,1,1.2-.46,4.81,4.81,0,0,1,.65-.08l.59-.07a5.6,5.6,0,0,0,1.12-.42,5.56,5.56,0,0,1,1.2-.44l.29,0a1.42,1.42,0,0,0,.83-.31l.28.27a1.77,1.77,0,0,1-1,.42l-.27.05a5,5,0,0,0-1.12.41,5.24,5.24,0,0,1-1.2.44,3.72,3.72,0,0,1-.65.08,6,6,0,0,0-.61.08,5,5,0,0,0-1.11.43l-.48.22q-.45.18-.9.33l-.52.18c-.55.21-1.11.47-1.65.71s-.94.45-1.43.65A6.75,6.75,0,0,1,568,285.82Z"/><path class="cls-4" d="M569.27,221.7s2.68-3.9,7.26-3.84a24.8,24.8,0,0,0,6.55-.51,16.47,16.47,0,0,1-5,2A82.71,82.71,0,0,0,569.27,221.7Z"/><path class="cls-4" d="M570.82,222.6s2.42-1.68,3.8-1.74,2.61-.2,2.61-.2a7.39,7.39,0,0,1-2.13,1C573.91,222,570.82,222.6,570.82,222.6Z"/><path class="cls-4" d="M571.33,223.76s3.65.29,3.68,1.26"/><path class="cls-4" d="M537.39,169.35c.19,0,3.44-3.39,3.67-4.74a3.34,3.34,0,0,1,1.41-2.08s2.11.84.23,3.41A10.37,10.37,0,0,1,537.39,169.35Z"/><path class="cls-4" d="M587.37,58.67c-.74,1.76-1.4,1.89-1.26,3.59a12.8,12.8,0,0,1-3,2.33c-2.31,1.37-4.82,4-7.7,4a15.45,15.45,0,0,1-5.62-1.06A10.16,10.16,0,0,0,568,62.37S590.74,50.72,587.37,58.67Z"/><path class="cls-16" d="M590.85,52.48a15.39,15.39,0,1,1-15.39-15.39,15.39,15.39,0,0,1,15.39,15.39Z"/><path class="cls-4" d="M591.82,75.15l-4.93,7.36s-23.33,11.13-18.87-2c2-5.76,2.19-10,1.84-12.89h0a12.42,12.42,0,0,1,.46,3c.07,2,.13,4.55,5.11,5.39A13.91,13.91,0,0,0,589,71.2,24.33,24.33,0,0,0,591.82,75.15Z"/><path class="cls-4" d="M493.62,43.92l-3.08,6a12.28,12.28,0,0,1-2.88-.59L487.4,49c1.26.48,5.51-7.56,5.51-7.56l.14.11C493.4,43,493.62,43.92,493.62,43.92Z"/><path class="cls-4" d="M587,156.37c-10,4.33-44.44.65-44.44.65a4.23,4.23,0,0,0,.18-1.12c.94-1.43,1.63-2.29,1.63-2.29l41.3-1.62S586.33,153.82,587,156.37Z"/><path class="cls-23" d="M569.92,68l-4.59,2a3.69,3.69,0,0,1-3.3-2.13c-1.06-2.23-4.83,0-4.83,0s-11.52-.88-15.78,1.26c0,0-6.87-2.91-7.81-3.1s-2.42-1-3.09-.77-1.55-1.26-2-1.17-.69-1-2.24-1.35-2.12.1-3.87-1.65-15.87-8.61-15.87-8.61l-6.39-5.21-6.77-5.42s-4.26,8-5.52,7.55L500.7,64.87S510,73,516.38,75.61,522.29,79,522.29,79s19.36,9.87,22.36,9.68,2.42,20.23,1.16,23.52-3.29,27.1-3.29,27.1-1.95,5,.09,8.52c0,0,.49,7.16,0,8.42,0,0,34.69,3.71,44.53-.65,0,0,1.45-16.07,0-18.1s1.36-6.58,1.36-6.58L594.64,117l15.09-15.21s2.32-12.68-8-20.82l-6.88-6.1s-3.85-3.32-5-3.53-.7,0-.7,0a13.91,13.91,0,0,1-13.67,5c-5-.84-5-3.37-5.11-5.38A12.25,12.25,0,0,0,569.92,68Z"/><path class="cls-4" d="M588.82,120.13s-21.3.87-25.55,7.56c0,0,5.52-2.61,10.45-1.84S588.82,120.13,588.82,120.13Z"/><path class="cls-4" d="M565.3,143.47s10.06.65,12.2-1.45,2.13-3.38,2.13-3.38Z"/><path class="cls-4" d="M590.85,99.62s-8.52,10.06,1.84,14.42Z"/><path class="cls-4" d="M540.43,80.16s3.09,6.32,4.64,6.74Z"/><path class="cls-4" d="M530,77.45s7.74,7,9.19,7.65C539.17,85.1,531.13,77.45,530,77.45Z"/><path class="cls-4" d="M560.85,70.77s-7.46,11.13-2.6,17.91C558.21,88.68,555.53,80.65,560.85,70.77Z"/><path class="cls-16" d="M579.63,155.08l-2.27,2.14-.32.3L574.4,160l-.56.42c-10.74,7.69-12.89-4-12.89-4s-4.75,3.1-5.42.58,11.06-6.09,12.77-5.9a1.85,1.85,0,0,0,.47,0,7.32,7.32,0,0,0,2.4-.85c.18-.09.36-.18.53-.28.59-.34,1.17-.7,1.73-1.09Z"/><path class="cls-4" d="M591.24,52.48a15.4,15.4,0,0,1-7.52,13.23,9.75,9.75,0,0,1-.56-1.12c-.55-1.3-.89-2.66-1.44-4a12.31,12.31,0,0,0-2.61-3.77,1.6,1.6,0,0,0-.65-.47,1.85,1.85,0,0,0-1.41.39,6.46,6.46,0,0,1-2.15.94,2.27,2.27,0,0,1-2.15-.65,3.25,3.25,0,0,1-.34-2.69,33.41,33.41,0,0,0,1-6c0-2-.76-4.24-2.53-5.25-1.57-.88-3.51-.65-5.24-1.14a5.66,5.66,0,0,1-.79-.27,15.39,15.39,0,0,1,26.41,10.75Z"/><path class="cls-24" d="M563.79,39.28c-.28.15-.59.42-.5.73a.71.71,0,0,0,.28.36A6.54,6.54,0,0,0,566,41.62c1.74.47,3.68.25,5.25,1.14,1.76,1,2.54,3.2,2.53,5.24a35.29,35.29,0,0,1-1,6,3.26,3.26,0,0,0,.34,2.69,2.3,2.3,0,0,0,2.15.66,6.33,6.33,0,0,0,2.14-.94,1.86,1.86,0,0,1,1.42-.39,1.81,1.81,0,0,1,.69.47,12.28,12.28,0,0,1,2.6,3.77c.56,1.3.9,2.65,1.44,3.95a6.34,6.34,0,0,0,2.61,3.21,3.23,3.23,0,0,0,3.9-.41c.9-1,.87-2.48,1.3-3.75.77-2.19,2.92-3.57,4.26-5.47,1.51-2.12,2-4.81,2.33-7.39a6.22,6.22,0,0,0,0-2.47,9.82,9.82,0,0,0-.68-1.56c-1.5-3.1-1.47-7-3.85-9.47-1.8-1.86-4.52-2.42-7.08-2.74s-5.25-.5-7.45-1.85a8.32,8.32,0,0,0-2-1.12,1.66,1.66,0,0,0-2,.74,1.38,1.38,0,0,1-.27.54.88.88,0,0,1-.76.05l-3.41-.92.39,1.72a8.6,8.6,0,0,1-3.61-.65c-.07,1,1,1.6,1.36,2.5a2.31,2.31,0,0,1-.65,2.36C566.73,38.76,565.18,38.52,563.79,39.28Z"/><path class="cls-4" d="M550,270.54l-.14,1.55-.06,0c-5.55,3.1-17-5.54-17-5.54l1.19-1.2a2.09,2.09,0,0,1,.53,1.62l2.34.13,2.81,3s7.59.88,9.65.38Z"/><path class="cls-19" d="M549,279c-3.61.8-16.27.74-16.27.74l-7.07,1.13s-12.16,1.16-13.51-2.61,1.06-3.54,1.06-3.54h.09l5.06-.41s6.43-2.49,8.78-4.2a50,50,0,0,0,5.26-4.71s2.11-.41,2.07,2l2.35.13,2.81,3s7.59.89,9.65.39H550l-.33,3.74.09.12C550.21,275.39,552.23,278.25,549,279Z"/><circle class="cls-20" cx="535.9" cy="269.57" r="0.36"/><circle class="cls-20" cx="526.81" cy="273.52" r="0.36"/><circle class="cls-20" cx="522.12" cy="274.94" r="0.36"/><circle class="cls-20" cx="529.19" cy="272.76" r="0.36"/><circle class="cls-20" cx="524.46" cy="274.23" r="0.36"/><circle class="cls-20" cx="531.61" cy="271.64" r="0.36"/><circle class="cls-20" cx="534" cy="270.61" r="0.36"/><path class="cls-21" d="M549,279c-3.61.8-16.27.74-16.27.74l-7.07,1.13s-12.16,1.16-13.51-2.61,1.06-3.54,1.06-3.54h.09c.78,1,2.33,2.15,5.39,2.2l8.74.36,9.07-.66s8.46-.26,9.87-.54a21.38,21.38,0,0,0,3.38-1.24C550.21,275.39,552.23,278.25,549,279Z"/><path class="cls-22" d="M526.33,280a5.36,5.36,0,0,1-1.44-.17l.13-.35a7,7,0,0,0,3.61-.17l1.3-.36a14.72,14.72,0,0,1,6.28-.71h.28a59.3,59.3,0,0,0,11.61-.52,4.35,4.35,0,0,0,2.49-1l.28.27a4.72,4.72,0,0,1-2.7,1.1,59.58,59.58,0,0,1-11.71.52h-.28a19,19,0,0,0-3.84.12,20.49,20.49,0,0,0-2.31.57l-1.3.38A9.75,9.75,0,0,1,526.33,280Z"/><path class="cls-4" d="M579.63,155.08l-2.27,2.14L571.7,150c.59-.34,1.17-.7,1.73-1.09Z"/><path class="cls-23" d="M605.28,95.65l4.45,6.19v6.51a27.19,27.19,0,0,1,0,13.75l.22,6s-2.16,5.51-1.38,6.87c0,0-.39,4.06-5.62,6.88s-11.13,9.43-11.13,9.43-2.23,4.26-8.22,3.29L577.88,157l-6.58-8.42,8.91-4.84s3.09-4.16,4.93-4l7.55-8.79s.2-2.8,2.13-2.8c0,0-3.58-2.9-2.32-4.65s.19-9.48.19-9.48Z"/><path class="cls-4" d="M597,123.91s10.17-.19,11.42,2.42S600.05,122.46,597,123.91Z"/><path class="cls-4" d="M577.08,157a2.92,2.92,0,0,1,0,.51,3.42,3.42,0,0,1-3.2,2.91h-.19a3.42,3.42,0,0,1-3.41-3.42,3.24,3.24,0,0,1,.19-1.11c-1.62-1.3-1.7-3.63-1.66-4.8a7.32,7.32,0,0,0,2.4-.85,16.16,16.16,0,0,0,1.69,3.44,3.55,3.55,0,0,1,.79-.09,3.42,3.42,0,0,1,3.43,3.41Z"/><path class="cls-20" d="M571.48,149.5s-2.29.51-2.29.93-.51,4.19,2,5.74,2.26-2.16,2.26-2.16S571.29,150.69,571.48,149.5Z"/><circle class="cls-25" cx="574.04" cy="157.01" r="3.42"/><circle class="cls-21" cx="574.04" cy="157.01" r="2.93"/><path class="cls-4" d="M560.72,158.33a17,17,0,0,0,16.52,2.2v2.9s-6.2,4.26-11.81,1.68S560.72,158.33,560.72,158.33Z"/><path class="cls-4" d="M560.72,157.56a16.93,16.93,0,0,0,16.52,2.18v2.9s-6.2,4.26-11.81,1.68S560.72,157.56,560.72,157.56Z"/><path class="cls-17" d="M560.72,157.56a16.93,16.93,0,0,0,16.52,2.18v2.9s-6.2,4.26-11.81,1.68S560.72,157.56,560.72,157.56Z"/><path class="cls-18" d="M560.91,157.56a17,17,0,0,0,16.52,2.2v2.9s-6.21,4.24-11.81,1.68S560.91,157.56,560.91,157.56Z"/><path class="cls-4" d="M538,265.35s9.68,1.78,11.1,2.16-.39,1.07-.39,1.07S539.88,267,538,265.35Z"/><path class="cls-4" d="M537.78,260.22c.16,0,6.58-1.8,8-4.9"/><path class="cls-4" d="M547.15,223.18s2.6,3.43,4.28,3.33S548.68,223.05,547.15,223.18Z"/><path class="cls-4" d="M548.59,228.86s1.09,2.42,2.71,1.65"/><path class="cls-18" d="M554.69,175.72l6.86,18.11s1-11.65-1.08-15.14A6,6,0,0,0,554.69,175.72Z"/><g class="cls-7"><path d="M571.58,32.3l-.05-.26-1.11-.3.12.54A9.07,9.07,0,0,0,571.58,32.3Z"/><path d="M568.55,36.65l.12-.11a2.3,2.3,0,0,0,.65-2.35,3.1,3.1,0,0,0-.55-.88,8.06,8.06,0,0,1-1.59-.47c-.07,1,1,1.6,1.37,2.51A1.93,1.93,0,0,1,568.55,36.65Z"/><path d="M586.84,66.4a6.4,6.4,0,0,1-2.61-3.21c-.55-1.3-.88-2.67-1.44-3.95a12.28,12.28,0,0,0-2.6-3.77,1.64,1.64,0,0,0-.69-.47,1.85,1.85,0,0,0-1.41.39,6.46,6.46,0,0,1-2.15.94,2.32,2.32,0,0,1-2.15-.65,3.25,3.25,0,0,1-.34-2.69,33.39,33.39,0,0,0,1-6c0-2-.77-4.23-2.54-5.2-1.57-.9-3.5-.66-5.21-1.14a6.69,6.69,0,0,1-2.43-1.25l-.14-.13-.42.21c-.28.15-.58.41-.5.72a.71.71,0,0,0,.28.36,6.64,6.64,0,0,0,2.44,1.24c1.73.48,3.67.26,5.23,1.15,1.77,1,2.55,3.2,2.55,5.21a34.82,34.82,0,0,1-1,6,3.22,3.22,0,0,0,.34,2.69,2.29,2.29,0,0,0,2.15.65,6.46,6.46,0,0,0,2.15-.94,1.9,1.9,0,0,1,1.41-.4,1.72,1.72,0,0,1,.65.48A12.11,12.11,0,0,1,582,60.4c.56,1.3.9,2.66,1.45,3.95a6.37,6.37,0,0,0,2.6,3.25,3.31,3.31,0,0,0,3.91-.41,3,3,0,0,0,.57-1A3.31,3.31,0,0,1,586.84,66.4Z"/><path d="M592.39,61.49c1-1.22,2.24-2.26,3.15-3.55a8.24,8.24,0,0,0,.5-.8C594.87,58.63,593.26,59.84,592.39,61.49Z"/></g><g class="cls-7"><path d="M535,43.21H381a8.06,8.06,0,0,0-8,8v97.26a8.07,8.07,0,0,0,8,8.05H501.79s3.13,16.61-7.16,18.39c0,0,23,1.65,19-18.39H535a8.07,8.07,0,0,0,8-8.05V51.25A8.05,8.05,0,0,0,535,43.21Z"/><g class="cls-8"><rect x="395.64" y="69.02" width="124.7" height="7.6" rx="3.69"/><rect x="395.64" y="102.99" width="102.9" height="7.6" rx="3.69"/><rect x="395.64" y="86.01" width="74.08" height="7.6" rx="3.69"/></g></g><path class="cls-6" d="M537,41.86H383a8.08,8.08,0,0,0-8.05,8v97.26a8.08,8.08,0,0,0,8.05,8.05H503.8s3.13,16.61-7.16,18.39c0,0,23,1.65,19-18.39H537a8.07,8.07,0,0,0,8-8.05V49.91A8.07,8.07,0,0,0,537,41.86Z"/><g class="cls-8"><rect class="cls-9" x="397.65" y="67.68" width="124.7" height="7.6" rx="3.69"/><rect class="cls-9" x="397.65" y="101.65" width="102.9" height="7.6" rx="3.69"/><rect class="cls-9" x="397.65" y="84.67" width="74.08" height="7.6" rx="3.69"/></g><path class="cls-9" d="M52.78,359.8s2.31,3-1.08,7.61-6.18,8.46-5.05,11.3c0,0,5.11-8.5,9.28-8.62S57.36,364.91,52.78,359.8Z"/><path class="cls-4" d="M52.78,359.8a4,4,0,0,1,.47.95c4.06,4.78,6.22,9.23,2.32,9.34-3.64.11-8,6.61-9,8.25a1,1,0,0,0,.13.37s5.11-8.5,9.28-8.62S57.36,364.91,52.78,359.8Z"/><path class="cls-26" d="M57.08,363.66c0,1.07-.11,2-.26,2s-.27-.87-.27-2,.15-.56.3-.56S57.08,362.6,57.08,363.66Z"/><path class="cls-26" d="M58.57,364.94c-.94.51-1.76.82-1.83.69s.65-.65,1.57-1.16.57-.14.65,0S59.5,364.43,58.57,364.94Z"/><path class="cls-9" d="M40.52,359.8s-2.32,3,1.07,7.61,6.19,8.46,5.06,11.3c0,0-5.12-8.5-9.28-8.62S35.94,364.91,40.52,359.8Z"/><path class="cls-4" d="M40.52,359.8a3.66,3.66,0,0,0-.47.95c-4.07,4.78-6.23,9.23-2.32,9.34,3.63.11,8,6.61,9,8.25,0,.13-.08.25-.12.37s-5.12-8.5-9.28-8.62S35.94,364.91,40.52,359.8Z"/><path class="cls-26" d="M36.21,363.66c0,1.07.12,2,.27,2s.26-.87.26-2-.14-.56-.29-.56S36.21,362.6,36.21,363.66Z"/><path class="cls-26" d="M34.73,364.94c.93.51,1.75.82,1.83.69s-.65-.65-1.57-1.16-.57-.14-.65,0S33.78,364.43,34.73,364.94Z"/><ellipse class="cls-2" cx="46.65" cy="398.2" rx="24.26" ry="3.72"/><path class="cls-27" d="M59.16,374.63l-.12.94-.16,1.34-.07.56-.16,1.33-.07.56-.16,1.34-1.86,15.22c-.17,1.36-2.38,2.42-5.06,2.42H41.83c-2.68,0-4.9-1.06-5.07-2.42L34.9,380.71l-.16-1.34-.06-.56-.17-1.33-.07-.56-.16-1.34-.12-.95c-.09-.76,1.11-1.41,2.6-1.41H56.49C58,373.21,59.22,373.86,59.16,374.63Z"/><polygon class="cls-28" points="59.01 375.57 58.85 376.91 34.44 376.91 34.28 375.57 59.01 375.57"/><polygon class="cls-28" points="58.78 377.47 58.62 378.81 34.68 378.81 34.51 377.47 58.78 377.47"/><polygon class="cls-28" points="58.55 379.36 58.39 380.7 34.9 380.7 34.74 379.36 58.55 379.36"/><g class="cls-7"><path d="M483.51,238.05H316.69a8.74,8.74,0,0,0-8.72,8.72v105.4a8.74,8.74,0,0,0,8.72,8.72H447.55s3.39,18-7.75,19.93c0,0,24.94,1.79,20.58-19.93h23.13a8.75,8.75,0,0,0,8.72-8.72V246.77A8.75,8.75,0,0,0,483.51,238.05Z"/><g class="cls-8"><rect x="332.52" y="302.84" width="135.14" height="8.24" rx="3.69"/><rect x="332.52" y="284.43" width="58.6" height="8.24" rx="3.69"/></g></g><path class="cls-6" d="M482.08,236.6H315.23a8.74,8.74,0,0,0-8.72,8.72v105.4a8.74,8.74,0,0,0,8.72,8.72H446.09s3.39,18-7.75,19.94c0,0,25,1.79,20.59-19.94h23.15a8.74,8.74,0,0,0,8.72-8.72V245.32A8.74,8.74,0,0,0,482.08,236.6Z"/><g class="cls-8"><rect class="cls-9" x="331.07" y="301.39" width="135.14" height="8.24" rx="3.69"/><rect class="cls-9" x="331.07" y="282.98" width="58.6" height="8.24" rx="3.69"/></g><path class="cls-29" d="M451.64,507.48c-.79-3.33-1.3-6.27-1.3-6.27a13,13,0,0,0-1.45-6.37v-.91h0v-6.72a22.77,22.77,0,0,1,1.69-3.52c1.21-2.12,0-9.86,0-9.86s-4.49-10.92-3.39-17.84S438,425.24,438,425.24a30.08,30.08,0,0,1,1-6.81,5.73,5.73,0,0,0,.13-1.43v-.11c-.16-4.56-3.77-13.13-3.77-13.13l.49-16.31s2.3-9.63-1.46-22.54c-1.3-4.51-2.15-8.12-2.69-10.89-.06-.32-.11-.66-.17-.92,7.75-1.17,13.67-2.16,13.67-2.16s-4.48-18.78-7.51-22-5.45-13.67-5.45-13.67-1.58-13.26,1-17.14,2.9-10.56,2.9-10.56,5.86-4.22,6.56-6.1,1.95-6.1,1.95-8.33-.73-4.23-.49-5.4-1.7-5.64-.73-7.75a5.48,5.48,0,0,0,.39-2v-.06h0a28.22,28.22,0,0,0-.51-5.5,15.68,15.68,0,0,0-5.76-3.08l-.13-.51-.33-1.3a5.7,5.7,0,0,0-.57-.34v-.48l-.06-1.91.92-4.28c1.79-7.46-8.16-8.57-8.16-8.57a5.22,5.22,0,0,0-2.82-2.47c-2-.7-.33,11.21.61,12,.7.58,2.88,4.31,3.9,6.15h0l.17.3a4.06,4.06,0,0,0-.45.48l.37,2.6.06.4a10.92,10.92,0,0,0-1.58,2.7,5.77,5.77,0,0,1,1.45,4.23,13.05,13.05,0,0,0,.6,5.16c-.1-.12-1.38-1.51-2.66-1.17s-4.85,1.41-4.85,1.41-2.67.47-2.42,1.06-1.83,3.17-1.83,3.17l-7.15-6.8c-.07-.2-.15-.4-.21-.62a16.55,16.55,0,0,1-.65-3,16.93,16.93,0,0,0,2.29-.73,4.86,4.86,0,0,0,2-1.27,7.64,7.64,0,0,0,1.15-3.09c.57-2.09,1.79-4,2.66-5.93a19.18,19.18,0,0,0,1.43-10.65,7.12,7.12,0,0,0-1.09-3.12c-1.18-1.61-3.3-2.26-4.85-3.55s-2.53-3.25-4.33-4.21a8.62,8.62,0,0,0-5.44-.47,29.31,29.31,0,0,0-10.16,3.7c-1,.61-2.19,1.33-3.4,1.12a4.57,4.57,0,0,1-2.45-1.81.11.11,0,0,1,0-.09l-.08-.1a12.81,12.81,0,0,0-1.06,5.32,6.19,6.19,0,0,0,0,.86V234h0a1.21,1.21,0,0,1-.06.38,2.55,2.55,0,0,1-.65,1,5,5,0,0,0-.58.79c0-.1.06-.19.09-.29a4.34,4.34,0,0,0-.74,2.26,2.23,2.23,0,0,0,.54,1.62,7.53,7.53,0,0,0,1.17.94,13.66,13.66,0,0,0,6.5,14.21c.09.2.17.41.25.62a17,17,0,0,1,1.3,7.81,2.82,2.82,0,0,1-.09.57c0,.19-.17.2-.25.3h0s-11.84.12-14.63-2.41-7,6.16-7,6.16-4.24.82-5.09,0-5.82-.11-5.82-.11a10.74,10.74,0,0,0-7.37-2.7,21.87,21.87,0,0,0-5.43-3h0l-.13,0h0a6,6,0,0,0-2.66-.34s-5.83-4.81-7.52-7.39-9.76-12.16-9.82-12.21v-.46l-.09-1.4a5.82,5.82,0,0,1-.73.07c0-.14-.09-.3-.16-.48a26.66,26.66,0,0,0-1.72-4s0-1.76.52-2.2-.22-6.9-.22-6.9-5.24-12.26-9.94-3.11c0,0-8.88,5.93-1.42,12.82,0,0,3,1.44,3.39,2.61.28.74,1.3,2.81,1.95,4.18l.3.62-.08.07.11,1.15.05.44c-1.41.8-2.36,1.59-2.13,2.19A13.39,13.39,0,0,1,321,251s10.27,12.88,11.6,18.41c0,0,27.65,16.43,36.74,17.6l-1.57,8.22a64.89,64.89,0,0,0-.37,6.69c.12,1.76-1.09,9.76-1.09,9.76s-1.57,11.71-2.91,13.38-1.06,8.67-1.06,8.67a59.09,59.09,0,0,1-1.82,10,26.12,26.12,0,0,0-.36,10s-4.61,10.56,6.42,3.41c0,0,5.42-.34,11.66-.56v.65c0,.81,0,1.68,0,2.61-.08,6.05-.11,14.38.16,20.69.49,11.15,3.9,33.22,3.9,33.22v11.06a15.35,15.35,0,0,0-.31,3.17,20.64,20.64,0,0,0,3,11.1l.85,7.39s2,4.87,2,7.81a3.43,3.43,0,0,1-.08.71,5.34,5.34,0,0,0-.1,1.13c-.11,3.36,1.92,11.39,1.92,11.39s.11,8.1,1.3,8.57c1,.4-1.39,4.67-2.11,5.89a.37.37,0,0,0-.05-.23l-.15.24a5.76,5.76,0,0,0-.37,2.05,3,3,0,0,0,1.34,2.85c2.31,1.4,3.54,2.6,1.58,3a19.68,19.68,0,0,0-2.13.45l-.1-.28a1.3,1.3,0,0,0-.8,1.42,6,6,0,0,0,.72,2.75,31.64,31.64,0,0,0,3.26,6l.93-.1a4.83,4.83,0,0,1-.54,1,3.83,3.83,0,0,1-1.37,1.22,4,4,0,0,1-1.66.56,4.7,4.7,0,0,0-3.43,1.68c-1.21,1.56-1.95,3.69.42,5.57l8.67,3S410,515,409.21,511.67s-1.3-6.28-1.3-6.28a13.35,13.35,0,0,0-1.21-5.94,9.61,9.61,0,0,0-.53-.87l.53-.06s1.09-7.39,2.54-8.8c.34-.32.42-.57.33-.77.15-.4-.22-.65-.71-.77l-.11.29a7,7,0,0,0-1.45-.16s-.48-3.87,1.1-5.28a1.52,1.52,0,0,0,.3-1.15,6.47,6.47,0,0,0-.16-1.58l-.06.09a57.1,57.1,0,0,0-3.48-9.11s-.12-3.52.85-4.93-.12-19.13-.12-19.13.36-8.57-.73-12.56,1.33-8.68,1.33-8.68v-.26l0-.06s-.06-.53-.15-1.35v.08c-.24-2.27-.71-6.38-1.05-8.28-.48-2.7.12-15.61.12-15.61l2.19-5.52,3.9,9.51,4.13,12.68a10.8,10.8,0,0,1,2.09,5.38,2.67,2.67,0,0,1,0,.4,6.06,6.06,0,0,0-.05.85,7.52,7.52,0,0,0,1.26,4.51s1.09,6,2.79,7.52,1.7,4.45,1.7,4.45,2.05,8.69,3,10.22c.81,1.3.86,4.82.85,5.9h0v.32s.29,3.1.27,5.71v.86a9.52,9.52,0,0,1-.25,2.12.22.22,0,0,1,0,.12l0-.44a21.94,21.94,0,0,0-.65,5.41c-.06,3.12.41,6.82,2.31,9,3.25,3.76,5.33,3.29,5.33,3.29s-1.57,4.69-3.52,5.63a.86.86,0,0,0-.2.13,2.56,2.56,0,0,0-.05-.27,2.29,2.29,0,0,0-.57,1.75,12.56,12.56,0,0,0,2.4,7,3.83,3.83,0,0,0,1.64.95l-.3.19a5.59,5.59,0,0,1-.65.32,3.14,3.14,0,0,1-1,.25,4.66,4.66,0,0,0-3.44,1.68c-1.21,1.56-1.95,3.68.43,5.56l8.67,3S452.42,510.83,451.64,507.48Z"/><path class="cls-3" d="M435.75,508.9l-8.39-3c-2.32-1.87-1.59-4-.41-5.56a4.41,4.41,0,0,1,3.32-1.67,3,3,0,0,0,1-.26,4.35,4.35,0,0,0,.65-.32c2.34-1.3,2.28-4.45,2.28-4.45s9.21-2.7,11.71,0a5.79,5.79,0,0,1,.88,1.2,13.21,13.21,0,0,1,1.41,6.37s.47,2.94,1.23,6.28S435.75,508.9,435.75,508.9Z"/><path class="cls-4" d="M446.78,494.82v2.6c-2.14,3.54-12.53,2.77-15.55,1a4.35,4.35,0,0,0,.65-.32c2.34-1.3,2.28-4.45,2.28-4.45s9.21-2.7,11.71,0A6.51,6.51,0,0,1,446.78,494.82Z"/><path class="cls-20" d="M448.42,483.69a24,24,0,0,0-1.64,3.52v9.27c-2.35,3.91-14.55,2.6-16.2.47s-3.4-7.63-1.52-8.56,3.4-5.64,3.4-5.64-2,.47-5.16-3.28-2.23-12.09-1.64-14.09,0-8.69,0-8.69.11-4.69-.83-6.22-2.93-10.2-2.93-10.2,0-2.94-1.64-4.47-2.7-7.51-2.7-7.51a7.66,7.66,0,0,1-1.19-5c.35-2.93-2-6.1-2-6.1l-4-12.68-3.76-9.5-2.1,5.51s-.59,12.91-.12,15.61,1.17,9.86,1.17,9.86-2.34,4.7-1.3,8.69.71,12.55.71,12.55,1.05,17.73.11,19.13-.82,4.94-.82,4.94,4.81,10.32,3.26,11.71-1.06,5.28-1.06,5.28,3.25,0,1.88,1.41-2.4,8.82-2.4,8.82l-14.2,1.64a29.52,29.52,0,0,1-3.18-6c-1.88-4.34.35-3.9,2.25-4.34s.69-1.64-1.54-3.05-.94-4.55-.94-4.55,3.4-5.76,2.23-6.23-1.3-8.56-1.3-8.56-2.35-9.63-1.76-12.21-1.88-8.8-1.88-8.8l-.82-7.4a20.37,20.37,0,0,1-2.61-14V413.62s-3.25-22.06-3.75-33.21c-.3-7.16-.22-16.89-.12-23,.06-3.41.12-5.67.12-5.67l50.72-5.3a41.32,41.32,0,0,0,.91,7.53c.52,2.79,1.31,6.39,2.61,10.9,3.63,12.91,1.4,22.53,1.4,22.53l-.47,16.32s4.47,10.91,3.52,14.67a31.28,31.28,0,0,0-.93,6.81s10,23.83,8.92,30.75,3.25,17.84,3.25,17.84S449.59,481.57,448.42,483.69Z"/><path class="cls-18" d="M419.43,422.54l15.44-2.05S426.13,429.41,419.43,422.54Z"/><path class="cls-4" d="M432.63,405.4s.53,5.46-2.82,7.52C429.82,412.92,435.81,412,432.63,405.4Z"/><path class="cls-4" d="M431.69,388s-12.9,10.62-17.57,9.76S431.69,388,431.69,388Z"/><path class="cls-4" d="M400.3,427.53s-9.8,2.23-10.09,6.16S400.3,427.53,400.3,427.53Z"/><path class="cls-18" d="M402.46,476.47s-13.85,2.61-9.92,4.34A69.5,69.5,0,0,0,403,484S407.39,484.22,402.46,476.47Z"/><g class="cls-30"><path d="M389.74,483.61a2.76,2.76,0,0,1-1.26-2l-.14.25s-1.31,3.17.93,4.55l.73.48c.41-.07.85-.13,1.3-.24C393.17,486.19,392,485,389.74,483.61Z"/><path d="M407.58,482.67c.39-.35.37-1.26.14-2.42a6.54,6.54,0,0,0-.79,3.41A3,3,0,0,1,407.58,482.67Z"/><path d="M405.45,424.28a16,16,0,0,0-.93,4.31,16.35,16.35,0,0,1,1.07-3S405.54,425.1,405.45,424.28Z"/><path d="M437.19,418.12a5.74,5.74,0,0,0,.13-1.3c-.18.87-.3,1.68-.39,2.4A6,6,0,0,1,437.19,418.12Z"/><path d="M405.12,466a7.64,7.64,0,0,0,.35-2.6,8.69,8.69,0,0,0-.65,3.29A3,3,0,0,1,405.12,466Z"/><path d="M408,488.13a48.13,48.13,0,0,0-1.61,7.21L392.22,497a29.93,29.93,0,0,1-3.18-6c-.16-.38-.29-.72-.4-1-.85.39-1.18,1.3-.07,3.85a29.93,29.93,0,0,0,3.18,6L406,498.16s1.05-7.39,2.45-8.8C409.1,488.67,408.66,488.32,408,488.13Z"/><path d="M389.27,467.06s.12,8.1,1.3,8.57h0c.6-1.34,1-2.6.47-2.83-1.18-.46-1.31-8.57-1.31-8.57s-2.34-9.62-1.75-12.2-1.88-8.8-1.88-8.8l-.82-7.4a20.28,20.28,0,0,1-2.6-14V410.48s-3.26-22.07-3.76-33.18c-.3-7.16-.21-16.92-.12-23,0-1.1,0-2.08.06-2.9l-.41,0s-.06,2.26-.11,5.67c-.11,6.08-.19,15.83.11,23,.47,11.15,3.76,33.21,3.76,33.21v11.39a20.28,20.28,0,0,0,2.6,14l.83,7.34s2.46,6.22,1.88,8.81S389.27,467.06,389.27,467.06Z"/><path d="M431.06,493.82a13.62,13.62,0,0,1-2.25-5.58c-1.45,1.31.22,6.39,1.78,8.4s13.84,3.4,16.19-.47v-2.24C443.61,497.08,432.63,495.82,431.06,493.82Z"/><path d="M448.9,480.56a22.58,22.58,0,0,0-1.65,3.52v1.63c.27-.6.65-1.4,1.18-2.35a7,7,0,0,0,.51-2.9A.3.3,0,0,0,448.9,480.56Z"/><path d="M431.78,482.41a24.15,24.15,0,0,0,1.16-2.79s-2,.46-5.17-3.26c-2.31-2.73-2.44-7.89-2.11-11.26-.59,2-1.53,10.33,1.64,14.08C429.38,481.61,430.94,482.25,431.78,482.41Z"/><path d="M425.66,456.38a64.66,64.66,0,0,1,.23,7,10.26,10.26,0,0,1,.24-1.1c.59-2,0-8.68,0-8.68s.12-4.69-.82-6.22-2.93-10.21-2.93-10.21,0-2.94-1.64-4.46-2.7-7.51-2.7-7.51a7.69,7.69,0,0,1-1.18-5.05c.35-2.93-2-6.1-2-6.1l-4-12.68-3.75-9.51L405,397.34s0,.7-.08,1.78l1.72-4.48,3.76,9.51,4,12.68s2.35,3.17,2,6.1a7.65,7.65,0,0,0,1.18,5s1.05,6,2.69,7.52,1.65,4.46,1.65,4.46,2,8.68,2.93,10.21S425.66,456.38,425.66,456.38Z"/></g><path class="cls-31" d="M435.51,240.42l-.88,4.28.05,1.91,0,1.41-4.9.5-.55-1h0c-1-1.83-3.11-5.57-3.8-6.14-.9-.76-2.51-12.67-.57-12a5.14,5.14,0,0,1,2.72,2.47S437.25,233,435.51,240.42Z"/><path class="cls-4" d="M434.72,248l-4.9.5-.55-1h0a4.33,4.33,0,0,1,5.41-.89Z"/><path class="cls-21" d="M436,250.36l-6.46,1.5-.13-1-.38-2.6a4.45,4.45,0,0,1,6.26-.85l.32,1.3Z"/><path class="cls-31" d="M331.35,240.91l-6.89,3.7-.66-1.3c-.65-1.38-1.63-3.44-1.9-4.19-.41-1.14-3.28-2.6-3.28-2.6-7.22-6.9,1.38-12.82,1.38-12.82,4.55-9.16,9.62,3.11,9.62,3.11s.7,6.46.21,6.89-.5,2.2-.5,2.2a25.79,25.79,0,0,1,1.66,3.95C331.24,240.51,331.35,240.91,331.35,240.91Z"/><path class="cls-4" d="M331.35,240.91l-6.89,3.7-.66-1.3c1-.81,4.43-3.61,5.56-3.48a8.88,8.88,0,0,0,1.63,0C331.24,240.51,331.35,240.91,331.35,240.91Z"/><path class="cls-21" d="M332.05,243l-7.74,3.82-.16-1.67L324,244s4.49-3.84,5.82-3.7a6.84,6.84,0,0,0,2,0l.08,1.39Z"/><path class="cls-31" d="M416.74,268.9s-33.78,3.82-27.47,1.77c4.39-1.43,6.14-4.23,6.51-7.33a17.68,17.68,0,0,0-1.26-7.81,33.94,33.94,0,0,0-3-6.1s25.82-14.2,20.66-1.3a20.76,20.76,0,0,0-1.47,6.11,17.24,17.24,0,0,0,.65,6.19A18.42,18.42,0,0,0,416.74,268.9Z"/><path class="cls-4" d="M412.16,248.14a20.76,20.76,0,0,0-1.47,6.11c-2.43,2-5.1,1.91-8.52,1.91-2.6,0-5.54.65-7.65-.65a34,34,0,0,0-3-6.11S417.32,235.21,412.16,248.14Z"/><circle class="cls-31" cx="401.71" cy="243.09" r="13.97"/><path class="cls-4" d="M416.74,268.9s-33.78,3.82-27.47,1.77c4.39-1.43,6.14-4.23,6.51-7.33,1.68-1.82,5.05-3.14,7.23-3.83a10.07,10.07,0,0,1,6.12-.1,8.37,8.37,0,0,1,2.23,1A18.27,18.27,0,0,0,416.74,268.9Z"/><path class="cls-4" d="M436,250.36l-6.46,1.5-.13-1a5.7,5.7,0,0,1,6.2-2.12Z"/><path class="cls-4" d="M332.05,243l-7.74,3.82-.16-1.67a57.94,57.94,0,0,1,7.81-3.46Z"/><path class="cls-4" d="M430.09,354c-13.07,2.06-31.7,4.75-34.65,3.85-2.45-.74-10.27-.65-17.09-.43.06-3.41.12-5.67.12-5.67l50.71-5.3A41.75,41.75,0,0,0,430.09,354Z"/><path class="cls-32" d="M443.14,350.94s-43.07,7.4-47.7,6-28.35.12-28.35.12c-10.68,7.15-6.22-3.41-6.22-3.41a26.2,26.2,0,0,1,.35-10,61.48,61.48,0,0,0,1.79-10s-.23-7.05,1.06-8.69,2.81-13.38,2.81-13.38,1.18-8,1.06-9.76q0-3.36.36-6.69l1.52-8.22c-8.8-1.17-35.57-17.61-35.57-17.61C333,263.84,323,250.93,323,250.93a13.32,13.32,0,0,0-.82-3.17c-.71-1.88,9.86-5.63,9.86-5.63s7.86,9.62,9.5,12.21,7.28,7.39,7.28,7.39a5.63,5.63,0,0,1,2.6.34l.14,0h0a21.32,21.32,0,0,1,5.26,3,10.21,10.21,0,0,1,7.15,2.7s4.82-.7,5.64.12,4.93,0,4.93,0,4.1-8.69,6.81-6.16,14.15,2.41,14.15,2.41c1.53-2,5.24-3.49,7.56-4.24a10.18,10.18,0,0,1,6.13-.1,7.81,7.81,0,0,1,2.41,1.17l7,6.8s2-2.6,1.76-3.16,2.35-1.06,2.35-1.06,3.4-1.06,4.69-1.41,2.47,1.05,2.6,1.17a13.91,13.91,0,0,1-.57-5.16C429.71,256,428,254,428,254c4.12-10.09,13.39-1.64,13.39-1.64s1.05,5.52.11,7.63.94,6.58.71,7.75.47,3.17.47,5.4a32.12,32.12,0,0,1-1.88,8.33c-.71,1.87-6.34,6.1-6.34,6.1s-.35,6.69-2.82,10.56-1,17.14-1,17.14,2.35,10.35,5.31,13.67S443.14,350.94,443.14,350.94Z"/><path class="cls-4" d="M380.35,273.72s-1.3-3.87-2.46-4.22a29.8,29.8,0,0,1-3.41-1.53l.76-1.45s4.4,1.21,5.11,2.5S380.35,273.72,380.35,273.72Z"/><path class="cls-4" d="M356.76,265.14c-.23,1.17-10.68,2.23-10.68,2.23l5.28-5.29h0l.13,0h0A21.38,21.38,0,0,1,356.76,265.14Z"/><circle class="cls-20" cx="326.53" cy="249.04" r="0.94"/><circle class="cls-20" cx="327.73" cy="250.92" r="0.94"/><circle class="cls-20" cx="328.91" cy="252.65" r="0.94"/><circle class="cls-20" cx="330.14" cy="254.53" r="0.94"/><circle class="cls-20" cx="440.78" cy="254.43" r="0.76"/><circle class="cls-20" cx="440.9" cy="256.16" r="0.76"/><circle class="cls-20" cx="441" cy="257.89" r="0.76"/><path class="cls-4" d="M380.41,305.52c-.11-.13,26.35,33.28,46.89,14C427.3,319.49,394.84,323.89,380.41,305.52Z"/><path class="cls-4" d="M365.21,322.89s15.83.43,17.48,5v4.74a3,3,0,0,1-2.94,0c-1.59-.86-11.17-5.72-14.54-3.39Z"/><path class="cls-32" d="M365.5,322.89s15.15.41,16.73,4.76v4.51a2.89,2.89,0,0,1-2.82,0c-1.52-.82-10.68-5.46-13.91-3.25Z"/><path class="cls-4" d="M373.85,288.51A51.18,51.18,0,0,0,380,299.05a41.5,41.5,0,0,0,9.61,9.28S374.11,290.69,373.85,288.51Z"/><path class="cls-4" d="M368.67,270.12s2.64,11.4,9.45,15.28Z"/><path class="cls-4" d="M364.62,271.27c-.07-.21-2.34,9,8.78,14.13C373.42,285.4,368.67,283.79,364.62,271.27Z"/><path class="cls-4" d="M433.75,263.63c-.17,0,5.49,3.6,7,5.27C440.78,268.9,437.1,263.39,433.75,263.63Z"/><path class="cls-3" d="M397.93,255.75a3,3,0,0,0,1.1,1.88,2.92,2.92,0,0,0,1.3.3c4.26.26,8.69.45,12.63-1.19a4.86,4.86,0,0,0,2-1.27,8,8,0,0,0,1.12-3.09,39.93,39.93,0,0,1,2.6-5.94A19.91,19.91,0,0,0,420,235.79a7,7,0,0,0-1.06-3.11c-1.13-1.62-3.19-2.27-4.69-3.55s-2.45-3.25-4.19-4.22a8.18,8.18,0,0,0-5.27-.47,28,28,0,0,0-9.91,3.7c-1,.62-2.12,1.33-3.25,1.12a4.58,4.58,0,0,1-2.42-1.85,12.94,12.94,0,0,0-1,6.08,2.84,2.84,0,0,1,0,.92,3,3,0,0,1-.65,1c-1,1.21-1.71,3.14-.65,4.37.45.54,1.14.84,1.59,1.38.78,1,.52,2.39.5,3.65a1.81,1.81,0,0,0,.31,1.24,1.78,1.78,0,0,0,1.72.41,4.78,4.78,0,0,1,1.84-.18,3,3,0,0,1,1.59,1.23C396.35,250,397.11,252.74,397.93,255.75Z"/><g class="cls-7"><path d="M415.36,254.39a4.69,4.69,0,0,1-1.95,1.3c-3.91,1.64-8.37,1.45-12.63,1.18a2.78,2.78,0,0,1-1.3-.29,2.93,2.93,0,0,1-1.1-1.89c-.82-3-1.59-5.75-3.56-8.25a3,3,0,0,0-1.59-1.23,4.59,4.59,0,0,0-1.84.17,1.47,1.47,0,0,1-2-1.65c0-1.26.28-2.67-.5-3.64-.45-.56-1.14-.84-1.59-1.38a2.76,2.76,0,0,1-.27-2.81c-.75,1.19-1.07,2.71-.2,3.74.45.54,1.15.84,1.59,1.38.78,1,.52,2.39.5,3.65a1.48,1.48,0,0,0,2,1.65,4.71,4.71,0,0,1,1.83-.18,3,3,0,0,1,1.59,1.23c2,2.5,2.74,5.25,3.56,8.27a2.21,2.21,0,0,0,2.23,2.19h.18c4.26.26,8.69.45,12.63-1.19a4.89,4.89,0,0,0,1.95-1.27,3.87,3.87,0,0,0,.61-1.13Z"/><path d="M388.18,234a2.08,2.08,0,0,0,.43-.71,2.78,2.78,0,0,0,0-.91,13,13,0,0,1,.65-5.06l-.08-.09a12.94,12.94,0,0,0-1,6.08A4,4,0,0,1,388.18,234Z"/></g><path class="cls-4" d="M395.44,264.21s17.45,2.31,19-.31"/><path class="cls-4" d="M429.38,257s9.69,0,11.82,3.65"/><path class="cls-9" d="M638.07,248.23s1.21,1.58-.56,4-3.25,4.42-2.64,5.91c0,0,2.67-4.44,4.84-4.51S640.46,250.87,638.07,248.23Z"/><path class="cls-4" d="M638.07,248.23a2.82,2.82,0,0,1,.25.49c2.12,2.5,3.25,4.82,1.21,4.88s-4.18,3.46-4.73,4.31a.53.53,0,0,0,.07.2c0,.06,2.67-4.44,4.84-4.51S640.46,250.87,638.07,248.23Z"/><path class="cls-26" d="M640.32,250.21c0,.56-.06,1-.14,1s-.14-.46-.14-1,.08-.29.16-.29S640.32,249.66,640.32,250.21Z"/><path class="cls-26" d="M641.09,250.88c-.48.27-.91.43-1,.36s.33-.34.82-.61.3-.07.34,0S641.59,250.61,641.09,250.88Z"/><path class="cls-9" d="M631.67,248.23s-1.22,1.58.56,4,3.25,4.42,2.64,5.91c0,0-2.68-4.44-4.86-4.51S629.27,250.87,631.67,248.23Z"/><path class="cls-4" d="M631.67,248.23a1.77,1.77,0,0,0-.26.49c-2.12,2.5-3.25,4.82-1.21,4.88s4.19,3.46,4.73,4.31a.76.76,0,0,1-.06.2c0,.06-2.68-4.44-4.86-4.51S629.27,250.87,631.67,248.23Z"/><path class="cls-26" d="M629.41,250.21c0,.56.06,1,.14,1a2.1,2.1,0,0,0,.14-1c0-.55-.08-.29-.16-.29S629.41,249.66,629.41,250.21Z"/><path class="cls-26" d="M628.63,250.88c.5.27.92.43,1,.36s-.33-.34-.82-.61-.3-.07-.34,0S628.15,250.61,628.63,250.88Z"/><path class="cls-33" d="M629.78,257.87s3.39-.11,4.41-.83,5.21-1.6,5.47-.43,5.1,5.8,1.3,5.85-8.89-.59-9.91-1.21S629.78,257.87,629.78,257.87Z"/><path class="cls-34" d="M641,262c-3.83,0-8.9-.6-9.91-1.22-.78-.47-1.09-2.17-1.19-2.95h-.13s.21,2.74,1.23,3.36,6.09,1.25,9.92,1.21c1.11,0,1.48-.4,1.46-1C642.25,261.81,641.84,262,641,262Z"/></g></g></svg>