<svg height="457pt" viewBox="0 -11 457.37072 457" width="457pt" xmlns="http://www.w3.org/2000/svg"><path d="m99.015625 266.757812-91.398437 91.398438h68.546874v68.550781l106.636719-106.632812zm0 0" fill="#1e76d2"/><path d="m357.980469 266.757812 91.402343 91.398438h-68.550781v68.550781l-106.632812-106.632812zm0 0" fill="#1e76d2"/><path d="m228.5 342.925781c-14.3125 0-26.21875-16.863281-39.425781-20.40625-13.65625-3.664062-32.386719 4.859375-44.351563-2.070312-12.125-7.03125-14.039062-27.582031-23.886718-37.429688-9.847657-9.851562-30.398438-11.769531-37.425782-23.878906-6.933594-11.957031 1.589844-30.6875-2.074218-44.34375-3.539063-13.222656-20.402344-25.128906-20.402344-39.4375 0-14.3125 16.863281-26.21875 20.402344-39.425781 3.664062-13.65625-4.855469-32.386719 2.074218-44.351563 7.027344-12.125 27.578125-14.039062 37.425782-23.886719 9.851562-9.847656 11.769531-30.398437 23.878906-37.429687 11.960937-6.929687 30.6875 1.59375 44.34375-2.070313 13.222656-3.542968 25.128906-20.40625 39.441406-20.40625 14.308594 0 26.214844 16.863282 39.421875 20.40625 13.65625 3.664063 32.386719-4.859374 44.351563 2.070313 12.128906 7.03125 14.039062 27.582031 23.886718 37.429687 9.847656 9.851563 30.398438 11.769532 37.429688 23.878907 6.929687 11.957031-1.59375 30.6875 2.070312 44.34375 2.285156 8.613281 10.28125 16.667969 15.554688 25.203125 2.910156 4.203125 4.589844 9.132812 4.851562 14.238281 0 14.308594-16.863281 26.214844-20.40625 39.421875-3.664062 13.65625 4.859375 32.386719-2.070312 44.351562-7.03125 12.125-27.582032 14.039063-37.429688 23.886719-9.847656 9.847657-11.765625 30.398438-23.878906 37.429688-11.957031 6.929687-30.6875-1.59375-44.34375 2.070312-13.222656 3.542969-25.125 20.40625-39.4375 20.40625zm0 0" fill="#d32144"/><path d="m342.75 175.359375c0 63.097656-51.152344 114.25-114.25 114.25-63.101562 0-114.25-51.152344-114.25-114.25 0-63.101563 51.148438-114.25 114.25-114.25 63.097656 0 114.25 51.148437 114.25 114.25zm0 0" fill="#ffdb6f"/><path d="m312.28125 175.359375c0 46.269531-37.511719 83.78125-83.78125 83.78125-46.273438 0-83.785156-37.511719-83.785156-83.78125 0-46.273437 37.511718-83.785156 83.785156-83.785156 46.269531 0 83.78125 37.511719 83.78125 83.785156zm0 0" fill="#ff8030"/><g fill="#d32144"><path d="m173.597656 217.578125 95.210938-95.207031 10.769531 10.769531-95.207031 95.210937zm0 0"/><path d="m195.792969 168.976562c-13.484375 0-24.417969-10.933593-24.417969-24.421874 0-13.484376 10.933594-24.417969 24.417969-24.417969 13.488281 0 24.417969 10.933593 24.417969 24.417969-.011719 13.484374-10.9375 24.40625-24.417969 24.421874zm0-33.605468c-5.074219 0-9.183594 4.113281-9.183594 9.183594 0 5.074218 4.109375 9.1875 9.183594 9.1875s9.1875-4.113282 9.1875-9.1875c-.003907-5.070313-4.117188-9.179688-9.1875-9.183594zm0 0"/><path d="m257.394531 230.578125c-13.484375 0-24.417969-10.933594-24.417969-24.417969 0-13.488281 10.933594-24.417968 24.417969-24.417968 13.488281 0 24.421875 10.929687 24.421875 24.417968-.011718 13.480469-10.9375 24.40625-24.421875 24.417969zm0-33.605469c-5.070312 0-9.183593 4.113282-9.183593 9.1875 0 5.070313 4.113281 9.183594 9.183593 9.183594 5.074219 0 9.1875-4.113281 9.1875-9.183594-.003906-5.070312-4.113281-9.183594-9.1875-9.1875zm0 0"/></g><path d="m337.363281 325.460938 10.773438-10.769532 22.851562 22.851563-10.773437 10.769531zm0 0" fill="#005a98"/><path d="m86.011719 337.53125 22.851562-22.851562 10.773438 10.773437-22.851563 22.851563zm0 0" fill="#005a98"/><path d="m228.5 350.539062c-10.609375 0-19.414062-6.492187-27.1875-12.21875-5.074219-3.742187-9.867188-7.28125-14.207031-8.441406-4.664063-1.257812-10.773438-.597656-17.25.109375-9.417969 1.011719-20.109375 2.171875-28.953125-2.953125-8.957032-5.191406-13.296875-15.113281-17.125-23.859375-2.582032-5.890625-5.015625-11.460937-8.324219-14.773437-3.308594-3.308594-8.882813-5.75-14.78125-8.328125-8.742187-3.824219-18.65625-8.160157-23.847656-17.109375-5.125-8.84375-3.972657-19.523438-2.953125-28.957032.699218-6.46875 1.363281-12.585937.113281-17.234374-1.167969-4.355469-4.703125-9.152344-8.449219-14.230469-5.726562-7.773438-12.21875-16.582031-12.21875-27.183594 0-10.605469 6.496094-19.417969 12.226563-27.1875 3.742187-5.074219 7.277343-9.867187 8.441406-14.207031 1.25-4.652344.585937-10.773438-.113281-17.246094-1.019532-9.429688-2.171875-20.113281 2.953125-28.953125 5.195312-8.960937 15.109375-13.300781 23.855469-17.125 5.898437-2.582031 11.46875-5.019531 14.777343-8.324219 3.304688-3.308594 5.746094-8.882812 8.324219-14.78125 3.828125-8.746094 8.164062-18.65625 17.113281-23.847656 8.832031-5.125 19.515625-3.976562 28.949219-2.953125 6.480469.699219 12.597656 1.359375 17.242188.113281 4.355468-1.167968 9.152343-4.707031 14.230468-8.453125 7.773438-5.726562 16.582032-12.214843 27.183594-12.214843 10.578125 0 19.371094 6.476562 27.121094 12.195312 3.785156 2.789062 7.355468 5.421875 10.761718 7.089844l-6.710937 13.675781c-4.632813-2.273437-8.929687-5.441406-13.089844-8.503906-6.433593-4.742188-12.511719-9.222657-18.082031-9.222657-5.597656 0-11.691406 4.492188-18.140625 9.242188-6 4.425781-12.199219 8.992188-19.328125 10.902344-7.40625 1.980468-15.246094 1.132812-22.824219.320312-7.777343-.84375-15.144531-1.640625-19.671875.984375-4.632812 2.6875-7.625 9.53125-10.792968 16.777344-3.035157 6.929687-6.175782 14.105469-11.515626 19.445313-5.339843 5.339843-12.507812 8.476562-19.441406 11.507812-7.246094 3.171875-14.089844 6.164062-16.78125 10.8125-2.625 4.519531-1.828125 11.882812-.988281 19.675781.820313 7.582031 1.667969 15.425781-.316406 22.828125-1.914063 7.121094-6.476563 13.3125-10.894531 19.300782-4.757813 6.457031-9.253907 12.554687-9.253907 18.152343 0 5.59375 4.492188 11.6875 9.246094 18.140625 4.421875 5.996094 8.988281 12.195313 10.898437 19.328125 1.988282 7.398438 1.140626 15.234375.320313 22.816407-.839844 7.792968-1.636719 15.152343.984375 19.679687 2.691406 4.625 9.535156 7.625 16.777344 10.792969 6.933594 3.035156 14.105468 6.175781 19.449218 11.515625 5.339844 5.339843 8.472657 12.503906 11.507813 19.4375 3.167969 7.25 6.164063 14.09375 10.808594 16.785156 4.523437 2.621094 11.886719 1.816406 19.675781.992187 7.585938-.820312 15.433594-1.667968 22.832031.316407 7.121094 1.914062 13.3125 6.480469 19.304688 10.890625 6.453125 4.761718 12.546875 9.253906 18.144531 9.253906s11.691406-4.492188 18.148438-9.246094c5.996093-4.417968 12.191406-8.992187 19.316406-10.898437 7.410156-1.992188 15.257812-1.144531 22.828125-.316407 7.789062.824219 15.144531 1.628907 19.675781-.992187 4.625-2.683594 7.621094-9.527344 10.792969-16.773437 3.035156-6.9375 6.171875-14.109376 11.515625-19.449219 5.339844-5.339844 12.503906-8.480469 19.433594-11.507813 7.253906-3.175781 14.097656-6.164062 16.789062-10.816406 2.617188-4.519531 1.828125-11.875.988281-19.671875-.824219-7.585937-1.664062-15.425781.320313-22.832031 1.910156-7.117188 6.480468-13.308594 10.890625-19.300782 4.757812-6.453124 9.253906-12.550781 9.253906-18.144531-.015625-1.445312-.285156-2.9375-.8125-4.371093l14.3125-5.230469c1.117187 3.066406 1.703125 6.269531 1.730469 9.53125 0 10.675781-6.492188 19.484375-12.21875 27.253906-3.742188 5.074219-7.28125 9.867187-8.441406 14.207031-1.25 4.65625-.589844 10.769532.109374 17.25 1.011719 9.425782 2.171876 20.113282-2.953124 28.949219-5.191407 8.960937-15.113282 13.300781-23.859376 17.128906-5.890624 2.582031-11.460937 5.023438-14.773437 8.324219-3.308594 3.308594-5.75 8.882812-8.328125 14.789062-3.824219 8.738282-8.160156 18.644532-17.109375 23.84375-8.835937 5.117188-19.523437 3.964844-28.949219 2.953126-6.472656-.707032-12.59375-1.367188-17.242187-.113282-4.351563 1.167969-9.148438 4.703125-14.230469 8.445313-7.773438 5.722656-16.582031 12.214843-27.1875 12.214843zm0 0"/><path d="m228.488281 297.21875c-67.195312-.007812-121.859375-54.6875-121.855469-121.878906.003907-67.191406 54.675782-121.859375 121.871094-121.859375h.007813c12.660156.003906 25.1875 1.964843 37.222656 5.828125l-4.65625 14.503906c-10.535156-3.378906-21.488281-5.09375-32.574219-5.097656-58.796875-.003906-106.636718 47.828125-106.636718 106.625-.003907 58.792968 47.824218 106.636718 106.621093 106.644531 58.792969 0 106.636719-47.835937 106.644531-106.625 0-2.179687-.0625-4.367187-.203124-6.492187l15.207031-.988282c.152343 2.445313.230469 4.964844.230469 7.480469-.007813 67.195313-54.6875 121.859375-121.878907 121.859375zm0 0"/><path d="m228.511719 266.75c-.007813 0-.011719 0-.015625 0-24.417969 0-47.367188-9.507812-64.628906-26.769531-17.265626-17.265625-26.773438-40.21875-26.769532-64.632813.003906-24.417968 9.511719-47.367187 26.773438-64.628906 17.261718-17.257812 40.210937-26.765625 64.625-26.765625h.003906c13.238281 0 26.046875 2.796875 38.089844 8.3125l-6.351563 13.851563c-10.027343-4.597657-20.710937-6.929688-31.738281-6.929688h-.003906c-20.34375 0-39.46875 7.921875-53.851563 22.304688-14.386719 14.382812-22.3125 33.511718-22.3125 53.855468 0 20.347656 7.921875 39.472656 22.304688 53.863282 14.386719 14.382812 33.511719 22.304687 53.859375 22.304687h.007812c20.34375 0 39.460938-7.921875 53.847656-22.300781 14.390626-14.386719 22.3125-33.515625 22.3125-53.855469 0-2.132813-.089843-4.246094-.261718-6.320313l15.175781-1.289062c.214844 2.5.320313 5.042969.320313 7.609375 0 24.414063-9.507813 47.363281-26.777344 64.628906-17.253906 17.253907-40.203125 26.761719-64.609375 26.761719zm0 0"/><path d="m76.164062 434.324219c-.980468 0-1.96875-.1875-2.914062-.582031-2.84375-1.175782-4.699219-3.957032-4.699219-7.035157v-60.933593h-60.933593c-3.082032 0-5.859376-1.851563-7.035157-4.699219-1.179687-2.851563-.5312498-6.125 1.648438-8.304688l91.402343-91.398437 10.769532 10.769531-78.398438 78.398437h50.164063c4.207031 0 7.617187 3.40625 7.617187 7.617188v50.164062l93.628906-93.632812 10.769532 10.773438-106.632813 106.632812c-1.457031 1.457031-3.402343 2.230469-5.386719 2.230469zm0 0"/><path d="m380.832031 434.324219c-1.980469 0-3.929687-.773438-5.386719-2.230469l-106.632812-106.632812 10.769531-10.773438 93.632813 93.632812v-50.164062c0-4.210938 3.40625-7.617188 7.617187-7.617188h50.160157l-78.394532-78.398437 10.769532-10.769531 91.398437 91.398437c2.179687 2.179688 2.832031 5.453125 1.652344 8.304688-1.175781 2.847656-3.957031 4.699219-7.035157 4.699219h-60.933593v60.933593c0 3.078125-1.855469 5.859375-4.703125 7.035157-.941406.394531-1.933594.582031-2.914063.582031zm0 0"/><path d="m337.359375 325.460938 10.769531-10.773438 22.851563 22.851562-10.773438 10.769532zm0 0"/><path d="m86.011719 337.539062 22.851562-22.851562 10.769531 10.769531-22.851562 22.851563zm0 0"/><path d="m291.660156 131.890625 129.484375-129.480469 10.769531 10.769532-129.484374 129.480468zm0 0"/><path d="m319.898438 61.109375c-16.800782 0-30.464844-13.667969-30.464844-30.46875 0-16.796875 13.664062-30.464844 30.464844-30.464844 16.800781 0 30.464843 13.667969 30.464843 30.464844 0 16.800781-13.660156 30.46875-30.464843 30.46875zm0-45.699219c-8.398438 0-15.234376 6.828125-15.234376 15.230469s6.835938 15.234375 15.234376 15.234375c8.398437 0 15.234374-6.832031 15.234374-15.234375s-6.835937-15.230469-15.234374-15.230469zm0 0"/><path d="m403.683594 144.890625c-16.804688 0-30.46875-13.667969-30.46875-30.464844 0-16.800781 13.664062-30.46875 30.46875-30.46875 16.800781 0 30.464844 13.667969 30.464844 30.46875 0 16.796875-13.664063 30.464844-30.464844 30.464844zm0-45.699219c-8.398438 0-15.234375 6.832032-15.234375 15.234375 0 8.402344 6.835937 15.234375 15.234375 15.234375 8.398437 0 15.230468-6.832031 15.230468-15.234375 0-8.402343-6.835937-15.234375-15.230468-15.234375zm0 0"/></svg>