<?xml version="1.0" encoding="iso-8859-1"?>
<!-- Generator: Adobe Illustrator 19.0.0, SVG Export Plug-In . SVG Version: 6.00 Build 0)  -->
<svg version="1.1" id="Capa_1" xmlns="http://www.w3.org/2000/svg" xmlns:xlink="http://www.w3.org/1999/xlink" x="0px" y="0px"
	 viewBox="0 0 496 496" style="enable-background:new 0 0 496 496;" xml:space="preserve">
<g>
	<circle style="fill:#FFCB57;" cx="104" cy="104" r="96"/>
	<circle style="fill:#FFCB57;" cx="104" cy="392" r="96"/>
	<circle style="fill:#FFCB57;" cx="392" cy="104" r="96"/>
	<circle style="fill:#FFCB57;" cx="392" cy="392" r="96"/>
</g>
<g>
	<path style="fill:#3F3A34;" d="M34.392,181.04C27.616,202.648,24,225.096,24,248c0,13.96,1.288,27.912,3.832,41.472l15.72-2.944
		C41.192,273.928,40,260.968,40,248c0-19.288,2.752-38.232,7.92-56.552C64.12,201.872,83.344,208,104,208
		c57.344,0,104-46.656,104-104S161.344,0,104,0S0,46.656,0,104C0,134.56,13.328,162,34.392,181.04z M104,16c48.52,0,88,39.48,88,88
		s-39.48,88-88,88s-88-39.48-88-88S55.48,16,104,16z"/>
	<path style="fill:#3F3A34;" d="M461.608,314.96C468.384,293.352,472,270.904,472,248c0-13.912-1.288-27.864-3.832-41.472
		l-15.736,2.936C454.808,222.112,456,235.072,456,248c0,19.288-2.752,38.232-7.92,56.552C431.88,294.128,412.656,288,392,288
		c-57.344,0-104,46.656-104,104s46.656,104,104,104s104-46.656,104-104C496,361.44,482.672,334,461.608,314.96z M392,480
		c-48.52,0-88-39.48-88-88s39.48-88,88-88s88,39.48,88,88S440.52,480,392,480z"/>
	<polygon style="fill:#3F3A34;" points="96,160 112,160 112,120 144,120 144,104 112,104 112,64 144,64 144,48 96,48 96,104 64,104 
		64,120 96,120 	"/>
	<path style="fill:#3F3A34;" d="M128,336H80c-22.056,0-40,17.944-40,40v32c0,22.056,17.944,40,40,40h48c22.056,0,40-17.944,40-40
		v-32C168,353.944,150.056,336,128,336z M152,408c0,13.232-10.768,24-24,24H80c-13.232,0-24-10.768-24-24v-32
		c0-13.232,10.768-24,24-24h48c13.232,0,24,10.768,24,24V408z"/>
	<path style="fill:#3F3A34;" d="M352,445.6l96.48-53.6L352,338.4V445.6z M368,365.6l47.52,26.4L368,418.4V365.6z"/>
	<path style="fill:#3F3A34;" d="M376,160h32c17.648,0,32-14.352,32-32s-14.352-32-32-32h-32c-8.824,0-16-7.176-16-16s7.176-16,16-16
		h32c8.824,0,16,7.176,16,16v8h16v-8c0-17.648-14.352-32-32-32h-32c-17.648,0-32,14.352-32,32s14.352,32,32,32h32
		c8.824,0,16,7.176,16,16s-7.176,16-16,16h-32c-8.824,0-16-7.176-16-16v-8h-16v8C344,145.648,358.352,160,376,160z"/>
	<path style="fill:#3F3A34;" d="M104,368c-13.232,0-24,10.768-24,24s10.768,24,24,24s24-10.768,24-24S117.232,368,104,368z M104,400
		c-4.416,0-8-3.592-8-8s3.584-8,8-8s8,3.592,8,8S108.416,400,104,400z"/>
	<path style="fill:#3F3A34;" d="M304.616,47.816C294.152,64.04,288,83.296,288,104c0,57.344,46.656,104,104,104s104-46.656,104-104
		S449.344,0,392,0c-30.528,0-57.944,13.304-76.992,34.328c-34.872-10.896-72.552-13.216-108.48-6.496l2.936,15.728
		C240.888,37.68,273.816,39.168,304.616,47.816z M392,16c48.52,0,88,39.48,88,88s-39.48,88-88,88s-88-39.48-88-88S343.48,16,392,16z
		"/>
	<path style="fill:#3F3A34;" d="M191.384,448.184C201.848,431.96,208,412.704,208,392c0-57.344-46.656-104-104-104S0,334.656,0,392
		s46.656,104,104,104c30.56,0,58-13.328,77.04-34.384C202.656,468.384,225.104,472,248,472c13.928,0,27.88-1.288,41.472-3.832
		l-2.936-15.728C255.104,458.312,222.168,456.824,191.384,448.184z M104,480c-48.52,0-88-39.48-88-88s39.48-88,88-88s88,39.48,88,88
		S152.52,480,104,480z"/>
</g>
<g>
	<path style="fill:#E56565;" d="M248,304c-30.872,0-56-25.12-56-56s25.128-56,56-56s56,25.12,56,56S278.872,304,248,304z M248,208
		c-22.056,0-40,17.944-40,40s17.944,40,40,40s40-17.944,40-40S270.056,208,248,208z"/>
	<rect x="320" y="240" style="fill:#E56565;" width="16" height="16"/>
	<rect x="240" y="160" style="fill:#E56565;" width="16" height="16"/>
	<rect x="240" y="320" style="fill:#E56565;" width="16" height="16"/>
	<rect x="160" y="240" style="fill:#E56565;" width="16" height="16"/>
</g>
<g>
</g>
<g>
</g>
<g>
</g>
<g>
</g>
<g>
</g>
<g>
</g>
<g>
</g>
<g>
</g>
<g>
</g>
<g>
</g>
<g>
</g>
<g>
</g>
<g>
</g>
<g>
</g>
<g>
</g>
</svg>
