<?xml version="1.0" encoding="utf-8"?>
<!-- Generator: Adobe Illustrator 21.0.0, SVG Export Plug-In . SVG Version: 6.00 Build 0)  -->
<svg xmlns="http://www.w3.org/2000/svg" xmlns:xlink="http://www.w3.org/1999/xlink" version="1.1" id="Layer_1" x="0px" y="0px" viewBox="0 0 256 256" style="enable-background:new 0 0 256 256;" xml:space="preserve" width="512" height="512">
<style type="text/css">
	.st0{fill:#F9828B;}
	.st1{fill:#F45D64;}
	.st2{fill:#FCD770;}
	.st3{fill:#FFCD29;}
	.st4{fill:#60BAE2;}
	.st5{fill:#6DCC6D;}
	.st6{fill:#231F20;}
</style>
<g id="Layer_36">
	<path class="st0" d="M32,99h192l5.8-18.8c2.1-6.9-1.7-14.1-8.6-16.2c-0.3-0.1-0.6-0.2-0.9-0.2L198,58.6c-0.3-0.1-0.5-0.3-0.5-0.5   l-5.1-22.4c-1.6-7-8.6-11.4-15.6-9.8c-0.3,0.1-0.6,0.2-0.9,0.2l-21.9,6.8c-0.3,0.1-0.6,0-0.7-0.2l-15.6-16.8   c-4.9-5.3-13.1-5.6-18.4-0.7c-0.2,0.2-0.4,0.4-0.7,0.7l-15.6,16.8c-0.2,0.2-0.5,0.3-0.7,0.2l-21.9-6.8c-6.9-2.1-14.1,1.7-16.2,8.6   c-0.1,0.3-0.2,0.6-0.2,0.9l-5.1,22.4c-0.1,0.3-0.3,0.5-0.5,0.5l-22.4,5.1c-7,1.6-11.4,8.6-9.8,15.6c0.1,0.3,0.2,0.6,0.2,0.9L32,99z   "/>
	<path class="st0" d="M224.1,157H32l-5.8,18.8c-2.1,6.9,1.7,14.1,8.6,16.2c0.3,0.1,0.6,0.2,0.9,0.2l22.4,5.1   c0.3,0.1,0.5,0.3,0.5,0.5l5.1,22.4c1.6,7,8.6,11.4,15.6,9.8c0.3-0.1,0.6-0.2,0.9-0.2l21.9-6.8c0.3-0.1,0.6,0,0.7,0.2l15.6,16.8   c4.9,5.3,13.1,5.6,18.4,0.7c0.2-0.2,0.5-0.4,0.7-0.7l15.6-16.8c0.2-0.2,0.5-0.3,0.7-0.2l21.9,6.8c6.9,2.1,14.1-1.7,16.2-8.6   c0.1-0.3,0.2-0.6,0.2-0.9l5.1-22.4c0.1-0.3,0.3-0.5,0.5-0.5l22.4-5.1c7-1.6,11.4-8.6,9.8-15.6c-0.1-0.3-0.2-0.6-0.2-0.9L224.1,157z   "/>
	<path class="st1" d="M44.7,98.5c0.1,0.2,0.1,0.3,0.1,0.5h166.4c0-0.2,0.1-0.3,0.1-0.5l6.8-21.9c0.1-0.4-0.1-0.8-0.5-0.9   c0,0,0,0-0.1,0l-22.4-5.1l0,0c-4.9-1.1-8.7-4.9-9.8-9.8l-5.1-22.4c-0.1-0.4-0.5-0.6-0.9-0.5c0,0,0,0-0.1,0l-21.9,6.8   c-4.8,1.4-9.9,0.1-13.3-3.6l-15.6-16.8c-0.3-0.3-0.7-0.3-1,0c0,0,0,0,0,0l-15.6,16.8c-3.4,3.6-8.6,5-13.3,3.6l-21.9-6.8   c-0.4-0.1-0.8,0.1-0.9,0.5c0,0,0,0,0,0.1l-5.1,22.4c-1.1,4.9-4.9,8.7-9.8,9.8l-22.4,5.1c-0.4,0.1-0.6,0.5-0.5,0.9c0,0,0,0,0,0.1   L44.7,98.5z"/>
	<path class="st1" d="M211.4,157.5c-0.1-0.2-0.1-0.3-0.1-0.5H44.9c0,0.2-0.1,0.3-0.1,0.5L38,179.4c-0.1,0.4,0.1,0.8,0.5,0.9   c0,0,0,0,0.1,0l22.4,5.1c4.9,1.1,8.7,4.9,9.8,9.8l5.1,22.4c0.1,0.4,0.5,0.6,0.9,0.5c0,0,0,0,0.1,0l21.9-6.8   c4.8-1.5,9.9-0.1,13.3,3.6l15.6,16.8c0.3,0.3,0.7,0.3,1,0c0,0,0,0,0,0l15.6-16.8c3.4-3.6,8.6-5,13.3-3.6l21.9,6.8   c0.4,0.1,0.8-0.1,0.9-0.5c0,0,0,0,0-0.1l5.1-22.4c1.1-4.9,4.9-8.7,9.8-9.8l22.4-5.1c0.4-0.1,0.6-0.5,0.5-0.9c0,0,0,0,0-0.1   L211.4,157.5z"/>
	<path class="st2" d="M8,99h240.1c3,0,5.4,2.4,5.4,5.4v47.1c0,3-2.4,5.4-5.4,5.4H8c-3,0-5.4-2.4-5.4-5.4v-47.1C2.6,101.4,5,99,8,99z   "/>
	<polygon class="st3" points="8,99 28,85.9 32,99  "/>
	<polygon class="st3" points="248.1,99 228.1,85.9 224.1,99  "/>
	<path class="st4" d="M36.4,208.9h-1.8v-1.8c0-1.4-1.1-2.5-2.5-2.5c-1.4,0-2.5,1.1-2.5,2.5v1.8h-1.8c-1.4,0-2.5,1.1-2.5,2.5   s1.1,2.5,2.5,2.5h1.8v1.8c0,1.4,1.1,2.5,2.5,2.5c1.4,0,2.5-1.1,2.5-2.5c0,0,0,0,0,0v-1.8h1.8c1.4,0,2.5-1.1,2.5-2.5   S37.8,208.9,36.4,208.9L36.4,208.9z"/>
	<path class="st1" d="M220.6,40.5c0-0.2-0.1-0.3-0.1-0.5c-0.1-0.1-0.1-0.3-0.2-0.4c-0.1-0.1-0.2-0.3-0.3-0.4c-1-0.9-2.5-0.9-3.5,0   c-0.1,0.1-0.2,0.2-0.3,0.4c-0.2,0.3-0.3,0.6-0.4,0.9c-0.1,0.3-0.1,0.7,0,1c0,0.2,0.1,0.3,0.1,0.5c0.1,0.2,0.1,0.3,0.2,0.4   c0.1,0.1,0.2,0.3,0.3,0.4c1,1,2.5,1,3.5,0c0,0,0,0,0,0c0.1-0.1,0.2-0.2,0.3-0.4c0.1-0.1,0.2-0.3,0.2-0.4c0.1-0.1,0.1-0.3,0.1-0.5   C220.7,41.1,220.7,40.8,220.6,40.5z"/>
	<path class="st5" d="M50.7,228.9c0-0.2-0.1-0.3-0.1-0.5c-0.1-0.1-0.1-0.3-0.2-0.4c-0.1-0.1-0.2-0.3-0.3-0.4c-1-0.9-2.5-0.9-3.5,0   c-0.1,0.1-0.2,0.2-0.3,0.4c-0.2,0.3-0.3,0.6-0.4,0.9c-0.1,0.3-0.1,0.7,0,1c0,0.2,0.1,0.3,0.1,0.5c0.1,0.2,0.1,0.3,0.2,0.4   c0.1,0.1,0.2,0.3,0.3,0.4c1,1,2.5,1,3.5,0c0,0,0,0,0,0c0.1-0.1,0.2-0.2,0.3-0.4c0.1-0.1,0.2-0.3,0.2-0.4c0.1-0.1,0.1-0.3,0.1-0.5   C50.8,229.6,50.8,229.3,50.7,228.9z"/>
	<path class="st3" d="M214.8,16.7c-4.1-0.8-7.2-4-8-8c0-0.1-0.1-0.2-0.2-0.2c-0.1,0-0.1,0.1-0.2,0.2c-0.8,4.1-4,7.2-8,8   c-0.1,0-0.2,0.1-0.2,0.2c0,0.1,0.1,0.1,0.2,0.2c4.1,0.8,7.2,4,8,8c0,0.1,0.1,0.2,0.2,0.2c0.1,0,0.1-0.1,0.2-0.2c0.8-4.1,4-7.2,8-8   c0.1,0,0.2-0.1,0.2-0.2C215,16.7,214.9,16.7,214.8,16.7z"/>
	<path class="st6" d="M248.1,159.5H8c-4.4,0-7.9-3.5-7.9-7.9v-47.1c0-4.4,3.5-7.9,7.9-7.9h240.1c4.4,0,7.9,3.5,7.9,7.9v47.1   C256,155.9,252.5,159.5,248.1,159.5z M8,101.5c-1.6,0-2.9,1.3-2.9,2.9v47.1c0,1.6,1.3,2.9,2.9,2.9h240.1c1.6,0,2.9-1.3,2.9-2.9   v-47.1c0-1.6-1.3-2.9-2.9-2.9L8,101.5z"/>
	<path class="st6" d="M224.1,101.5H32c-1.1,0-2.1-0.7-2.4-1.8l-5.8-18.8c-2.5-8.2,2.1-16.9,10.3-19.4c0.4-0.1,0.7-0.2,1.1-0.3   l21.3-4.8l4.8-21.3c1.9-8.3,10.2-13.6,18.6-11.7c0.4,0.1,0.7,0.2,1.1,0.3l20.8,6.4l14.9-16c5.8-6.3,15.6-6.6,21.9-0.8   c0.3,0.3,0.5,0.5,0.8,0.8l14.9,16l20.9-6.4c8.2-2.5,16.9,2.1,19.4,10.3c0.1,0.4,0.2,0.7,0.3,1.1l4.8,21.3l21.3,4.8   c8.3,1.9,13.6,10.2,11.7,18.6c-0.1,0.4-0.2,0.7-0.3,1.1l-5.8,18.8C226.1,100.8,225.2,101.5,224.1,101.5z M33.9,96.5h188.3l5.3-17.1   c1.7-5.5-1.4-11.4-7-13.1c-0.2-0.1-0.5-0.1-0.7-0.2l-22.4-5.1c-1.2-0.3-2.1-1.2-2.4-2.4l-5.1-22.4c-1.3-5.7-6.9-9.2-12.6-7.9   c-0.3,0.1-0.5,0.1-0.7,0.2l-21.9,6.8c-1.2,0.4-2.5,0-3.3-0.9l-15.6-16.8c-4-4.2-10.6-4.5-14.8-0.5c-0.2,0.2-0.4,0.3-0.5,0.5   l-15.6,16.8c-0.8,0.9-2.1,1.2-3.3,0.9l-21.9-6.8c-5.5-1.7-11.4,1.4-13.1,7c-0.1,0.2-0.1,0.5-0.2,0.7l-5.1,22.4   c-0.3,1.2-1.2,2.1-2.4,2.4l-22.4,5.1c-5.7,1.3-9.2,6.9-7.9,12.6c0.1,0.3,0.1,0.5,0.2,0.7L33.9,96.5z M101.1,31L101.1,31L101.1,31z    M153.2,30.6L153.2,30.6L153.2,30.6z"/>
	<path class="st6" d="M128.1,246.7L128.1,246.7c-4.3,0-8.4-1.8-11.3-4.9l-14.9-16L81,232.2c-8.2,2.5-16.9-2.1-19.4-10.3   c-0.1-0.4-0.2-0.7-0.3-1.1l-4.8-21.3l-21.3-4.8c-8.3-1.9-13.6-10.2-11.7-18.6c0.1-0.4,0.2-0.7,0.3-1.1l5.8-18.8   c0.3-1,1.3-1.8,2.4-1.8h192c1.1,0,2.1,0.7,2.4,1.8l5.8,18.8c2.5,8.2-2.1,16.9-10.3,19.4c-0.4,0.1-0.7,0.2-1.1,0.3l-21.3,4.8   l-4.8,21.3c-1.9,8.3-10.2,13.6-18.6,11.7c-0.4-0.1-0.7-0.2-1.1-0.3l-20.9-6.4l-14.9,16C136.5,244.9,132.4,246.7,128.1,246.7z    M102.4,220.5c0.9,0,1.8,0.4,2.4,1l15.6,16.8c2,2.1,4.8,3.4,7.7,3.3l0,0c2.9,0,5.7-1.2,7.7-3.3l15.6-16.8c0.8-0.9,2.1-1.2,3.3-0.9   l21.9,6.8c5.5,1.7,11.4-1.4,13.1-7c0.1-0.2,0.1-0.5,0.2-0.7l5.1-22.4c0.3-1.2,1.2-2.1,2.4-2.4l22.4-5.1c5.7-1.3,9.2-6.9,7.9-12.6   c-0.1-0.3-0.1-0.5-0.2-0.7l-5.3-17H33.9l-5.3,17c-1.7,5.5,1.4,11.4,7,13.1c0.2,0.1,0.5,0.1,0.7,0.2l22.4,5.1   c1.2,0.3,2.1,1.2,2.4,2.4l5.1,22.4c1.3,5.7,6.9,9.2,12.6,7.9c0.2-0.1,0.5-0.1,0.7-0.2l21.9-6.8   C101.8,220.6,102.1,220.5,102.4,220.5L102.4,220.5z M102.9,225.4L102.9,225.4L102.9,225.4z"/>
	<path class="st6" d="M211.2,101.5H44.9c-1.1,0-2.1-0.8-2.4-1.9l0-0.2c0-0.1,0-0.2-0.1-0.3l0,0l-6.8-21.9c-0.5-1.7,0.4-3.5,2.1-4   c0.1,0,0.2,0,0.2-0.1l22.4-5.1c3.9-0.9,7-4,7.9-7.9l5.1-22.4c0.4-1.7,2.1-2.8,3.8-2.4c0.1,0,0.2,0,0.2,0.1l21.9,6.8   c3.8,1.2,8,0.1,10.8-2.9l15.6-16.8c0.6-0.7,1.5-1,2.4-1c0.9,0,1.7,0.4,2.4,1L146,39.4c2.7,2.9,6.9,4.1,10.8,2.9l21.9-6.8   c1.7-0.5,3.5,0.4,4,2.1c0,0.1,0,0.2,0.1,0.2l5.1,22.4c0.9,3.9,4,7,7.9,7.9l22.4,5.1c1.7,0.4,2.8,2.1,2.4,3.8c0,0.1,0,0.2-0.1,0.2   l-6.8,21.9c0,0.1,0,0.2-0.1,0.3l0,0.2C213.4,100.8,212.4,101.5,211.2,101.5z M46.7,96.5h162.6l5.8-18.8L194.7,73   c-5.8-1.3-10.3-5.9-11.7-11.7l-4.7-20.5l-20.1,6.2c-5.7,1.7-11.9,0.1-15.9-4.3l-14.3-15.4l-14.3,15.4c-4.1,4.3-10.2,6-15.9,4.3   l-20.1-6.2l-4.7,20.5c-1.3,5.8-5.9,10.3-11.7,11.7l-20.5,4.7L46.7,96.5z"/>
	<path class="st6" d="M128.1,234.4L128.1,234.4c-0.9,0-1.7-0.4-2.4-1l-15.6-16.8c-2.7-2.9-6.9-4.1-10.8-2.9l-21.9,6.8   c-1.7,0.5-3.5-0.4-4-2.1c0-0.1,0-0.2-0.1-0.2l-5.1-22.4c-0.9-3.9-4-7-7.9-7.9l-22.4-5.1c-1.7-0.4-2.8-2.1-2.4-3.8   c0-0.1,0-0.2,0.1-0.2l6.8-21.9c0-0.1,0-0.2,0.1-0.2l0-0.2c0.3-1.1,1.3-1.9,2.4-1.9h166.4c1.1,0,2.1,0.8,2.4,1.9l0,0.2   c0,0.1,0,0.2,0.1,0.2l0,0l6.8,21.9c0.5,1.7-0.4,3.5-2.1,4c-0.1,0-0.2,0-0.2,0.1l-22.4,5.1c-3.9,0.9-7,4-7.9,7.9l-5.1,22.4   c-0.4,1.7-2.1,2.8-3.8,2.4c-0.1,0-0.2,0-0.2-0.1l-21.9-6.8c-3.8-1.2-8-0.1-10.8,2.9l-15.6,16.8C129.8,234.1,129,234.4,128.1,234.4z    M102.4,208.3c4.3,0,8.4,1.8,11.4,4.9l14.3,15.4l14.3-15.4c4.1-4.3,10.2-6,15.9-4.3l20.1,6.2l4.7-20.5c1.3-5.8,5.9-10.3,11.7-11.7   l20.5-4.7l-5.8-18.8H46.7l-5.8,18.8l20.5,4.7c5.8,1.3,10.3,5.9,11.7,11.7l4.7,20.5l20.1-6.2C99.3,208.5,100.8,208.3,102.4,208.3   L102.4,208.3z M39.1,177.9L39.1,177.9z"/>
	<path class="st6" d="M32,101.5H8c-1.4,0-2.5-1.1-2.5-2.5c0-0.8,0.4-1.6,1.1-2.1l20-13.1c1.2-0.8,2.7-0.4,3.5,0.7   c0.1,0.2,0.2,0.4,0.3,0.6l4,13.1c0.4,1.3-0.3,2.7-1.7,3.1C32.5,101.5,32.3,101.5,32,101.5L32,101.5z M16.4,96.5h12.3l-2.1-6.7   L16.4,96.5z"/>
	<path class="st6" d="M248.1,101.5h-24c-1.4,0-2.5-1.1-2.5-2.5c0-0.2,0-0.5,0.1-0.7l4-13.1c0.4-1.3,1.8-2.1,3.1-1.7   c0.2,0.1,0.4,0.2,0.6,0.3l20,13.1c1.2,0.8,1.5,2.3,0.7,3.5C249.7,101.1,248.9,101.5,248.1,101.5L248.1,101.5z M227.5,96.5h12.3   l-10.2-6.7L227.5,96.5z"/>
	<path class="st6" d="M131.8,202.5h-11.9c-1.4,0-2.5-1.1-2.5-2.5s1.1-2.5,2.5-2.5h11.9c2.3,0,4.2-1.9,4.2-4.2s-1.9-4.2-4.2-4.2h-7.4   c-5.1,0-9.2-4.1-9.2-9.2s4.1-9.2,9.2-9.2h10.5c1.4,0,2.5,1.1,2.5,2.5s-1.1,2.5-2.5,2.5h-10.5c-2.3,0-4.2,1.9-4.2,4.2   s1.9,4.2,4.2,4.2l0,0h7.4c5.1,0,9.2,4.1,9.2,9.2S136.9,202.5,131.8,202.5z"/>
	<path class="st6" d="M128.1,207.1c-1.4,0-2.5-1.1-2.5-2.5v-36c0-1.4,1.1-2.5,2.5-2.5c1.4,0,2.5,1.1,2.5,2.5v36   C130.6,205.9,129.4,207.1,128.1,207.1z"/>
	<path class="st6" d="M165.3,193.5h-8.5c-1.4,0-2.5-1.1-2.5-2.5s1.1-2.5,2.5-2.5h8.5c1.3,0,2.3-1,2.3-2.2c0-1.3-1-2.3-2.2-2.3   c0,0-0.1,0-0.1,0H160c-4,0-7.3-3.3-7.3-7.3c0-4,3.3-7.3,7.3-7.3h7.5c1.4,0,2.5,1.1,2.5,2.5s-1.1,2.5-2.5,2.5H160   c-1.3,0-2.3,1-2.3,2.3c0,1.3,1,2.3,2.3,2.3h5.3c4,0,7.3,3.2,7.4,7.2s-3.2,7.3-7.2,7.4C165.4,193.5,165.4,193.5,165.3,193.5z"/>
	<path class="st6" d="M162.6,196.8c-1.4,0-2.5-1.1-2.5-2.5v-25.7c0-1.4,1.1-2.5,2.5-2.5s2.5,1.1,2.5,2.5v25.7   C165.1,195.7,164,196.8,162.6,196.8C162.6,196.8,162.6,196.8,162.6,196.8z"/>
	<path class="st6" d="M96.1,193.5h-8.5c-1.4,0-2.5-1.1-2.5-2.5s1.1-2.5,2.5-2.5h8.5c1.3,0,2.3-1.1,2.2-2.3c0-1.2-1-2.2-2.2-2.2h-5.3   c-4,0-7.3-3.3-7.3-7.3c0-4,3.3-7.3,7.3-7.3c0,0,0,0,0,0h7.5c1.4,0,2.5,1.1,2.5,2.5s-1.1,2.5-2.5,2.5h-7.5c-1.3,0-2.3,1-2.3,2.3   c0,1.3,1,2.3,2.3,2.3c0,0,0,0,0,0h5.3c4,0,7.3,3.4,7.2,7.4C103.3,190.3,100.1,193.5,96.1,193.5L96.1,193.5z"/>
	<path class="st6" d="M93.5,196.8c-1.4,0-2.5-1.1-2.5-2.5v-25.7c0-1.4,1.1-2.5,2.5-2.5s2.5,1.1,2.5,2.5v25.7   C96,195.7,94.8,196.8,93.5,196.8C93.5,196.8,93.5,196.8,93.5,196.8z"/>
	<path d="M90,65.9L90,65.9l-1.9,1c-1.1,0.6-2.5,0.2-3.1-0.9c-0.1-0.2-0.2-0.4-0.2-0.6l0,0c-0.2-1,0.3-2,1.2-2.4l4.3-2.2   c0.3-0.2,0.7-0.3,1-0.3h1.8c1.2,0,2.3,1,2.3,2.3l0,0v21.5c0,1.5-1.2,2.7-2.7,2.7l0,0c-1.5,0-2.7-1.2-2.7-2.7L90,65.9z"/>
	<path d="M120.8,73.5c0,8.2-3,13.8-9.1,13.8c-6.2,0-8.9-6.2-8.9-13.7c0-7.7,2.9-13.7,9.1-13.7C118.3,59.9,120.8,66.3,120.8,73.5z    M108.5,73.7c0,6.1,1.3,9,3.5,9s3.3-3,3.3-9.1c0-5.9-1.1-9-3.4-9C109.8,64.6,108.4,67.5,108.5,73.7z"/>
	<path d="M141.2,73.5c0,8.2-3,13.8-9.1,13.8c-6.2,0-8.9-6.2-8.9-13.7c0-7.7,2.9-13.7,9.1-13.7C138.7,59.9,141.2,66.3,141.2,73.5z    M128.8,73.7c0,6.1,1.3,9,3.5,9s3.3-3,3.3-9.1c0-5.9-1.1-9-3.4-9C130.2,64.6,128.8,67.5,128.8,73.7L128.8,73.7z"/>
	<path d="M149.9,76.3c-8.8,0-8.6-16.3,0.2-16.3C159.1,59.9,158.4,76.3,149.9,76.3z M150,72.9c1.6,0,2.4-1.8,2.4-4.8   c0-2.7-0.7-4.8-2.4-4.8C146.7,63.3,146.7,72.9,150,72.9L150,72.9z M167.1,87.3c-8.8,0-8.7-16.3,0.2-16.3   C176.2,71,175.6,87.3,167.1,87.3L167.1,87.3z M164.8,79.1c0,2.8,0.8,4.8,2.4,4.8c1.6,0,2.4-1.8,2.4-4.8c0-2.7-0.6-4.8-2.4-4.8   C165.5,74.3,164.8,76.5,164.8,79.1L164.8,79.1z"/>
	<path d="M41,114.3L41,114.3c-1.9,0-3.6,1.3-4.1,3.1l-1.7,6c-0.8,3.1-1.7,6.7-2.3,9.9h-0.1c-0.6-3.2-1.3-6.6-2.1-9.8l-1.6-5.9   c-0.5-1.9-2.2-3.2-4.2-3.2l0,0c-2.3,0-4.2,1.8-4.3,4.1l-1.2,20.7c-0.1,1.4,1,2.6,2.4,2.7c0,0,0.1,0,0.1,0l0,0   c1.4,0,2.5-1.1,2.6-2.5l0.3-8c0.2-3.4,0.3-7.7,0.4-11.4h0.1c0.6,3.6,1.4,7.5,2.2,10.7l2.1,8.5c0.3,1.3,1.5,2.1,2.8,2.1l0,0   c1.3,0,2.4-0.8,2.7-2.1l2.4-8.7c1-3.2,2-7.1,2.8-10.6h0.1c0,4,0.1,8,0.2,11.3l0.3,7.9c0.1,1.5,1.2,2.6,2.7,2.6l0,0   c1.5,0,2.7-1.2,2.7-2.7c0,0,0-0.1,0-0.1l-1-20.6C45.2,116.1,43.3,114.3,41,114.3z"/>
	<path d="M61.7,113.9c-7.3,0-12,6.2-12,14.4c0,7.8,4.3,14,11.6,14c7.2,0,12.2-5.5,12.2-14.5C73.4,120.2,69.3,113.9,61.7,113.9z    M61.6,137.3c-3.7,0-6-3.8-6-9.2c0-5.3,2.2-9.3,6-9.3c3.9,0,6,4.2,6,9.2C67.5,133.3,65.3,137.3,61.6,137.3L61.6,137.3z"/>
	<path d="M95,114.3L95,114.3c-1.4,0-2.6,1.2-2.6,2.6v5.5c0,3.8,0.1,7.7,0.5,11.5h-0.1c-1.2-3.2-2.5-6.4-4-9.4l-4.1-8.1   c-0.6-1.2-1.9-2-3.2-2h-0.7c-2,0-3.6,1.6-3.6,3.6v21.3c0,1.4,1.2,2.6,2.6,2.6h0l0,0c1.4,0,2.6-1.2,2.6-2.6l0,0v-5.7   c0-4.5-0.1-8.4-0.2-12l0.1,0c1.2,3.2,2.8,6.8,4.3,9.7l4.3,8.6c0.6,1.2,1.9,2,3.2,2l0,0c2,0,3.6-1.6,3.6-3.6l0,0v-21.3   C97.6,115.5,96.4,114.3,95,114.3C95,114.3,95,114.3,95,114.3z"/>
	<path d="M115.7,136.7h-5.8c-1,0-1.8-0.8-1.8-1.8l0,0V132c0-1,0.8-1.8,1.8-1.8c0,0,0,0,0,0h4.7c1.4,0,2.5-1.1,2.5-2.5l0,0   c0-1.4-1.1-2.5-2.5-2.5h-4.7c-1,0-1.8-0.8-1.8-1.8v-2c0-1,0.8-1.8,1.8-1.8h5.3c1.4,0,2.5-1.1,2.5-2.5v0c0-1.4-1.1-2.5-2.5-2.5h-9.3   c-1.9,0-3.4,1.5-3.4,3.4l0,0v20.6c0,1.9,1.5,3.4,3.4,3.4h9.8c1.4,0,2.5-1.1,2.5-2.5l0,0v0C118.2,137.8,117.1,136.7,115.7,136.7z"/>
	<path d="M137.1,114.3L137.1,114.3c-1.1,0-2.1,0.7-2.5,1.7l-1.8,4.9l0,0l-0.8,2.3c-0.2,0.6-0.9,0.9-1.5,0.7   c-0.3-0.1-0.6-0.4-0.7-0.7c-0.3-0.7-0.5-1.5-0.9-2.3L127,116c-0.4-1-1.4-1.7-2.5-1.7h-0.2c-1.5,0-2.7,1.2-2.7,2.7   c0,0.4,0.1,0.8,0.3,1.2l5.8,12c0.1,0.2,0.2,0.5,0.2,0.8v8.1c0,1.5,1.2,2.7,2.7,2.7h0.2c1.5,0,2.7-1.2,2.7-2.7v-8.3   c0-0.3,0.1-0.6,0.2-0.8l6-11.7c0.7-1.3,0.2-3-1.2-3.6C137.9,114.4,137.5,114.3,137.1,114.3z"/>
	<path d="M165,127L165,127c2.5-1,4.1-3.3,4.1-6c0.1-2.2-1.1-4.3-3-5.4c-1.8-1.2-3.9-1.6-7.3-1.6c-1.3,0-2.6,0.1-3.8,0.1   c-1.9,0.1-3.4,1.7-3.4,3.6v20.5c0,1.9,1.5,3.5,3.5,3.6c0.8,0,1.6,0.1,2.6,0.1c4.9,0,7.9-0.9,9.7-2.5c1.7-1.5,2.6-3.6,2.6-5.8   C170,130.6,168,127.8,165,127z M157.1,120.5c0-1,0.8-1.8,1.8-1.8c0.2,0,0.4,0,0.6,0c2.5,0,4,1.1,4,3.2c0,2-1.6,3.4-4.5,3.4   c-1,0-1.8-0.8-1.8-1.8c0,0,0,0,0,0L157.1,120.5z M159.3,137.5h-0.3c-1,0-1.8-0.8-1.8-1.8c0,0,0,0,0,0v-4.2c0-1,0.8-1.8,1.8-1.8h0   h0.1c2.8,0,5,1.1,5,3.9C164,136.4,161.8,137.5,159.3,137.5L159.3,137.5z"/>
	<path d="M187.7,117.8c-0.6-2.1-2.5-3.5-4.6-3.5l0,0c-2.2,0-4.1,1.5-4.7,3.5l-5.6,20.4c-0.4,1.5,0.5,3,1.9,3.4   c0.2,0.1,0.5,0.1,0.7,0.1l0,0c1.3,0,2.4-0.9,2.7-2.1l0.9-3.6c0.2-0.8,0.9-1.4,1.8-1.4h4.2c0.8,0,1.6,0.6,1.8,1.4l1,3.7   c0.3,1.2,1.4,2,2.7,2h0.2c1.5,0,2.8-1.2,2.8-2.8c0-0.3,0-0.5-0.1-0.7L187.7,117.8z M184.8,130.1H181c-0.4,0-0.7-0.3-0.7-0.7   c0-0.1,0-0.1,0-0.2l1.3-5c0.2-0.9,0.4-1.9,0.7-3c0.1-0.3,0.3-0.5,0.6-0.4c0.2,0,0.4,0.2,0.4,0.4l0.7,3l1.3,5   c0.1,0.3-0.1,0.7-0.5,0.8C184.9,130.1,184.8,130.1,184.8,130.1L184.8,130.1z"/>
	<path d="M212.9,114.3c-1.2-0.3-2.5-0.4-3.8-0.4c-7.5,0-13.5,5.2-13.5,14.6c0,7.8,4.4,13.7,13,13.7c1.4,0,2.7-0.1,4.1-0.4   c1.3-0.3,2.1-1.6,1.9-2.9c-0.2-1.4-1.5-2.3-2.9-2.1c-0.7,0.1-1.5,0.2-2.3,0.2c-5,0-7.9-3.5-7.9-9c0-6.1,3.5-9.1,7.9-9.1   c0.8,0,1.6,0.1,2.4,0.2c1.3,0.3,2.6-0.6,2.9-1.9l0-0.1C215,115.9,214.2,114.6,212.9,114.3z"/>
	<path d="M236.6,137.7l-5.8-10.7c-0.3-0.6-0.3-1.4,0.1-1.9l4.4-6.3c1-1.1,0.8-2.8-0.3-3.8c-0.3-0.3-0.7-0.4-1.1-0.5   c-1.2-0.4-2.5,0.1-3.2,1.2l0,0l-4.8,7.8c-0.2,0.3-0.5,0.5-0.8,0.5l0,0c-0.5,0-1-0.4-1-1c0,0,0,0,0,0v-5.8c0-1.5-1.2-2.8-2.8-2.8   l0,0l0,0c-1.5,0-2.8,1.2-2.8,2.8l0,0v22c0,1.5,1.2,2.8,2.8,2.8c0,0,0,0,0,0l0,0c1.5,0,2.8-1.2,2.8-2.8c0,0,0,0,0,0v-5.6   c0-0.4,0.1-0.8,0.4-1.1l0,0c0.6-0.8,1.8-1,2.6-0.4c0.2,0.2,0.4,0.4,0.5,0.6l3.9,7.7c0.5,0.9,1.4,1.5,2.5,1.5h0.2   c1.5,0,2.8-1.2,2.8-2.8C237,138.6,236.8,138.1,236.6,137.7z"/>
	<path d="M151.2,85.4l12.4-24.7c0.3-0.7,1.2-0.9,1.8-0.6c0.6,0.3,0.9,1.1,0.6,1.8l-12.4,24.7c-0.4,0.6-1.2,0.9-1.8,0.5   C151.1,86.8,150.9,86.1,151.2,85.4z"/>
</g>
</svg>
