<?xml version="1.0" encoding="iso-8859-1"?>
<!-- Generator: Adobe Illustrator 19.0.0, SVG Export Plug-In . SVG Version: 6.00 Build 0)  -->
<svg version="1.1" id="Capa_1" xmlns="http://www.w3.org/2000/svg" xmlns:xlink="http://www.w3.org/1999/xlink" x="0px" y="0px"
	 viewBox="0 0 512 512" style="enable-background:new 0 0 512 512;" xml:space="preserve">
<path style="fill:#5C6376;" d="M361.177,38.04v435.92c0,16.87-13.67,30.54-30.53,30.54h-224.38c-16.86,0-30.53-13.67-30.53-30.54
	V38.04c0-16.87,13.67-30.54,30.53-30.54h224.38C347.507,7.5,361.177,21.17,361.177,38.04z"/>
<path style="fill:#4C5568;" d="M361.18,38.04v435.92c0,16.87-13.67,30.54-30.53,30.54h-28c16.86,0,30.53-13.67,30.53-30.54V38.04
	c0-16.87-13.67-30.54-30.53-30.54h28C347.51,7.5,361.18,21.17,361.18,38.04z"/>
<path style="fill:#707784;" d="M134.267,504.5h-28c-16.86,0-30.53-13.67-30.53-30.54V38.04c0-16.87,13.67-30.54,30.53-30.54h28
	c-16.86,0-30.53,13.67-30.53,30.54v435.92C103.737,490.83,117.407,504.5,134.267,504.5z"/>
<rect x="75.73" y="61.82" style="fill:#D1D9E8;" width="285.44" height="396.79"/>
<path style="fill:#BCC7D8;" d="M361.173,118.41v317.52c-17.68,6.32-36.72,9.76-56.54,9.76c-92.93,0-168.52-75.6-168.52-168.52
	s75.59-168.52,168.52-168.52C324.453,108.65,343.493,112.09,361.173,118.41z"/>
<rect x="75.73" y="61.822" style="fill:#E2E9F2;" width="28" height="396.79"/>
<rect x="333.18" y="61.82" style="fill:#BCC7D8;" width="28" height="396.79"/>
<rect x="75.73" y="61.822" style="fill:#F7B41F;" width="285.45" height="36.777"/>
<rect x="333.18" y="61.822" style="fill:#EAA213;" width="28" height="36.777"/>
<rect x="75.74" y="61.822" style="fill:#F4BF56;" width="28" height="36.777"/>
<g>
	<path style="fill:#50596D;" d="M75.734,119.182h-9.593c-4.578,0-8.289-3.361-8.289-7.507V95.647c0-4.146,3.711-7.507,8.289-7.507
		h9.593V119.182z"/>
	<path style="fill:#50596D;" d="M75.734,168.182h-9.593c-4.578,0-8.289-3.361-8.289-7.507v-16.027c0-4.146,3.711-7.507,8.289-7.507
		h9.593V168.182z"/>
	<path style="fill:#50596D;" d="M75.734,429.167h-9.593c-4.578,0-8.289-3.361-8.289-7.507v-16.027c0-4.146,3.711-7.507,8.289-7.507
		h9.593V429.167z"/>
</g>
<circle style="fill:#FF78BF;" cx="304.63" cy="277.17" r="149.52"/>
<path style="fill:#FF94D1;" d="M267.146,421.953c-64.437-16.637-112.037-75.148-112.037-144.783s47.599-128.146,112.037-144.783
	c-53.88,23.733-91.718,79.617-91.718,144.783S213.266,398.22,267.146,421.953z"/>
<path style="fill:#F261B4;" d="M342.112,421.953c64.437-16.637,112.037-75.148,112.037-144.783S406.55,149.024,342.112,132.387
	c53.88,23.733,91.718,79.617,91.718,144.783S395.992,398.22,342.112,421.953z"/>
<g>
	<rect x="224" y="196.56" style="fill:#EAEEF4;" width="40.642" height="40.642"/>
	<rect x="284.31" y="196.56" style="fill:#EAEEF4;" width="40.642" height="40.642"/>
	<rect x="344.61" y="196.56" style="fill:#EAEEF4;" width="40.642" height="40.642"/>
</g>
<g>
	<rect x="251.35" y="196.56" style="fill:#D7DCE2;" width="13.293" height="40.642"/>
	<rect x="311.66" y="196.56" style="fill:#D7DCE2;" width="13.293" height="40.642"/>
	<rect x="371.96" y="196.56" style="fill:#D7DCE2;" width="13.293" height="40.642"/>
</g>
<g>
	<rect x="224" y="256.85" style="fill:#EAEEF4;" width="40.642" height="40.642"/>
	<rect x="284.31" y="256.85" style="fill:#EAEEF4;" width="40.642" height="40.642"/>
	<rect x="344.61" y="256.85" style="fill:#EAEEF4;" width="40.642" height="40.642"/>
</g>
<g>
	<rect x="251.35" y="256.85" style="fill:#D7DCE2;" width="13.293" height="40.642"/>
	<rect x="311.66" y="256.85" style="fill:#D7DCE2;" width="13.293" height="40.642"/>
	<rect x="371.96" y="256.85" style="fill:#D7DCE2;" width="13.293" height="40.642"/>
</g>
<g>
	<rect x="224" y="317.14" style="fill:#EAEEF4;" width="40.642" height="40.642"/>
	<rect x="284.31" y="317.14" style="fill:#EAEEF4;" width="40.642" height="40.642"/>
	<rect x="344.61" y="317.14" style="fill:#EAEEF4;" width="40.642" height="40.642"/>
</g>
<g>
	<rect x="251.35" y="317.14" style="fill:#D7DCE2;" width="13.293" height="40.642"/>
	<rect x="311.66" y="317.14" style="fill:#D7DCE2;" width="13.293" height="40.642"/>
	<rect x="371.96" y="317.14" style="fill:#D7DCE2;" width="13.293" height="40.642"/>
</g>
<path d="M206.648,43.005h24.968c4.142,0,7.5-3.358,7.5-7.5s-3.358-7.5-7.5-7.5h-24.968c-4.142,0-7.5,3.358-7.5,7.5
	S202.506,43.005,206.648,43.005z"/>
<path d="M178.306,43.005h1.012c4.142,0,7.5-3.358,7.5-7.5s-3.358-7.5-7.5-7.5h-1.012c-4.142,0-7.5,3.358-7.5,7.5
	S174.164,43.005,178.306,43.005z"/>
<path d="M231.616,487.707c4.142,0,7.5-3.358,7.5-7.5s-3.358-7.5-7.5-7.5h-24.968c-4.142,0-7.5,3.358-7.5,7.5s3.358,7.5,7.5,7.5
	H231.616z"/>
<path d="M461.648,277.169c0-38.792-14.262-76.038-40.158-104.875c-2.767-3.082-7.509-3.336-10.591-0.569
	c-3.082,2.768-3.336,7.509-0.569,10.591c23.42,26.08,36.318,59.766,36.318,94.853c0,78.31-63.709,142.02-142.02,142.02
	s-142.02-63.71-142.02-142.02s63.71-142.02,142.02-142.02c31.032,0,60.507,9.826,85.24,28.415c3.311,2.488,8.012,1.82,10.501-1.489
	c2.488-3.312,1.822-8.013-1.489-10.502c-9.486-7.129-19.602-13.09-30.201-17.839V38.04C368.68,17.064,351.616,0,330.641,0H106.27
	C85.294,0,68.23,17.064,68.23,38.04v42.6h-2.089c-8.707,0-15.79,6.732-15.79,15.007v16.027c0,8.275,7.083,15.007,15.79,15.007h2.089
	v2.958h-2.089c-8.707,0-15.79,6.732-15.79,15.007v16.027c0,8.275,7.083,15.007,15.79,15.007h2.089v21.688c0,4.142,3.358,7.5,7.5,7.5
	s7.5-3.358,7.5-7.5V106.1h270.45v21.833c-15.653-5.138-32.143-7.782-49.051-7.782c-86.581,0-157.02,70.438-157.02,157.02
	s70.439,157.02,157.02,157.02c17.123,0,33.611-2.765,49.051-7.855v24.779H166.333c-4.142,0-7.5,3.358-7.5,7.5s3.358,7.5,7.5,7.5
	H353.68v7.847c0,12.704-10.336,23.04-23.04,23.04H106.27c-12.704,0-23.04-10.336-23.04-23.04v-7.847h51.037
	c4.142,0,7.5-3.358,7.5-7.5s-3.358-7.5-7.5-7.5H83.23V225.67c0-4.142-3.358-7.5-7.5-7.5s-7.5,3.358-7.5,7.5v164.956h-2.089
	c-8.707,0-15.79,6.732-15.79,15.007v16.027c0,8.275,7.083,15.007,15.79,15.007h2.089v37.293c0,20.976,17.064,38.04,38.04,38.04
	h224.37c20.976,0,38.04-17.064,38.04-38.04v-53.44C423.422,395.964,461.648,340.949,461.648,277.169z M106.27,15h224.37
	c12.704,0,23.04,10.336,23.04,23.04v16.282H83.23V38.04C83.23,25.336,93.566,15,106.27,15z M66.141,111.682
	c-0.41,0-0.669-0.135-0.79-0.227V95.867c0.121-0.092,0.38-0.227,0.79-0.227h2.089v16.042H66.141z M66.141,160.682
	c-0.41,0-0.669-0.135-0.79-0.227v-15.588c0.121-0.092,0.38-0.227,0.79-0.227h2.089v16.042H66.141z M83.23,91.1V69.322h270.45V91.1
	H83.23z M66.141,421.667c-0.409,0-0.669-0.135-0.79-0.226v-15.589c0.121-0.091,0.38-0.226,0.79-0.226h2.089v16.041H66.141z"/>
<path d="M272.145,196.559c0-4.142-3.358-7.5-7.5-7.5h-40.642c-4.142,0-7.5,3.358-7.5,7.5v40.643c0,4.142,3.358,7.5,7.5,7.5h40.642
	c4.142,0,7.5-3.358,7.5-7.5V196.559z M257.145,229.702h-25.642v-25.643h25.642V229.702z"/>
<path d="M332.451,196.559c0-4.142-3.358-7.5-7.5-7.5h-40.642c-4.142,0-7.5,3.358-7.5,7.5v40.643c0,4.142,3.358,7.5,7.5,7.5h40.642
	c4.142,0,7.5-3.358,7.5-7.5V196.559z M317.451,229.702h-25.642v-25.643h25.642V229.702z"/>
<path d="M392.755,196.559c0-4.142-3.358-7.5-7.5-7.5h-40.642c-4.142,0-7.5,3.358-7.5,7.5v40.643c0,4.142,3.358,7.5,7.5,7.5h40.642
	c4.142,0,7.5-3.358,7.5-7.5V196.559z M377.755,229.702h-25.642v-25.643h25.642V229.702z"/>
<path d="M272.145,256.849c0-4.142-3.358-7.5-7.5-7.5h-40.642c-4.142,0-7.5,3.358-7.5,7.5v40.642c0,4.142,3.358,7.5,7.5,7.5h40.642
	c4.142,0,7.5-3.358,7.5-7.5V256.849z M257.145,289.991h-25.642v-25.642h25.642V289.991z"/>
<path d="M332.451,256.849c0-4.142-3.358-7.5-7.5-7.5h-40.642c-4.142,0-7.5,3.358-7.5,7.5v40.642c0,4.142,3.358,7.5,7.5,7.5h40.642
	c4.142,0,7.5-3.358,7.5-7.5V256.849z M317.451,289.991h-25.642v-25.642h25.642V289.991z"/>
<path d="M392.755,256.849c0-4.142-3.358-7.5-7.5-7.5h-40.642c-4.142,0-7.5,3.358-7.5,7.5v40.642c0,4.142,3.358,7.5,7.5,7.5h40.642
	c4.142,0,7.5-3.358,7.5-7.5V256.849z M377.755,289.991h-25.642v-25.642h25.642V289.991z"/>
<path d="M264.645,309.638h-40.642c-4.142,0-7.5,3.358-7.5,7.5v40.643c0,4.142,3.358,7.5,7.5,7.5h40.642c4.142,0,7.5-3.358,7.5-7.5
	v-40.643C272.145,312.996,268.786,309.638,264.645,309.638z M257.145,350.28h-25.642v-25.643h25.642V350.28z"/>
<path d="M324.951,309.638h-40.642c-4.142,0-7.5,3.358-7.5,7.5v40.643c0,4.142,3.358,7.5,7.5,7.5h40.642c4.142,0,7.5-3.358,7.5-7.5
	v-40.643C332.451,312.996,329.092,309.638,324.951,309.638z M317.451,350.28h-25.642v-25.643h25.642V350.28z"/>
<path d="M385.255,309.638h-40.642c-4.142,0-7.5,3.358-7.5,7.5v40.643c0,4.142,3.358,7.5,7.5,7.5h40.642c4.142,0,7.5-3.358,7.5-7.5
	v-40.643C392.755,312.996,389.397,309.638,385.255,309.638z M377.755,350.28h-25.642v-25.643h25.642V350.28z"/>
<g>
</g>
<g>
</g>
<g>
</g>
<g>
</g>
<g>
</g>
<g>
</g>
<g>
</g>
<g>
</g>
<g>
</g>
<g>
</g>
<g>
</g>
<g>
</g>
<g>
</g>
<g>
</g>
<g>
</g>
</svg>
