<svg height="511pt" viewBox="0 0 511 511.99804" width="511pt" xmlns="http://www.w3.org/2000/svg"><path d="m229.164062 174.136719 1.789063-1.03125-77.09375-133.523438c-65.839844 38.015625-95.46875 117.386719-70.636719 189.25 27.710938 80.199219 70.523438 154.351563 126.125 218.453125 49.816406 57.433594 133.367188 71.460938 199.210938 33.449219l-77.085938-133.523437-1.789062 1.03125c-29.507813 17.035156-67.238282 6.925781-84.277344-22.582032l-19.410156-33.625-19.414063-33.625c-17.035156-29.503906-6.925781-67.234375 22.582031-84.273437zm0 0" fill="#f6838d"/><path d="m449.347656 453.953125-74.289062-128.675781c-4.21875-7.304688-13.5625-9.808594-20.867188-5.589844l-15.730468 9.078125c-7.304688 4.21875-9.808594 13.5625-5.589844 20.867187l74.289062 128.675782c4.21875 7.308594 13.5625 9.8125 20.867188 5.59375l15.730468-9.082032c7.304688-4.21875 9.808594-13.5625 5.589844-20.867187zm0 0" fill="#ffd89e"/><path d="m197.449219 17.648438 74.289062 128.675781c4.21875 7.304687 1.714844 16.648437-5.589843 20.867187l-15.730469 9.082032c-7.304688 4.214843-16.648438 1.714843-20.867188-5.59375l-74.289062-128.675782c-4.21875-7.304687-1.714844-16.648437 5.589843-20.863281l15.730469-9.082031c7.304688-4.21875 16.648438-1.714844 20.867188 5.589844zm0 0" fill="#ffd89e"/><path d="m220.832031 415.644531v-37.621093h-19.132812c-2.261719-10.371094-6.34375-20.0625-11.90625-28.714844l13.535156-13.535156-26.601563-26.601563-13.535156 13.535156c-8.652344-5.5625-18.34375-9.644531-28.714844-11.90625v-19.132812h-37.621093v19.109375c-10.386719 2.25-20.09375 6.328125-28.757813 11.886718l-13.496094-13.492187-26.601562 26.601563 13.472656 13.46875c-5.585937 8.671874-9.683594 18.382812-11.953125 28.78125h-19.019531v37.621093h18.996094c2.257812 10.414063 6.351562 20.144531 11.933594 28.824219l-13.429688 13.429688 26.601562 26.601562 13.429688-13.429688c8.679688 5.582032 18.410156 9.675782 28.824219 11.933594v18.996094h37.621093v-19.023438c10.394532-2.265624 20.109376-6.363281 28.78125-11.949218l13.46875 13.472656 26.601563-26.601562-13.492187-13.496094c5.558593-8.667969 9.636718-18.371094 11.886718-28.757813zm0 0" fill="#b0e7f8"/><path d="m154.832031 396.835938c0 21.628906-17.535156 39.164062-39.167969 39.164062-21.628906 0-39.164062-17.535156-39.164062-39.164062 0-21.632813 17.535156-39.167969 39.164062-39.167969 21.632813 0 39.167969 17.535156 39.167969 39.167969zm0 0" fill="#fff"/><path d="m458.007812 448.953125-74.289062-128.675781c-3.375-5.847656-8.828125-10.027344-15.347656-11.777344-6.519532-1.746094-13.332032-.851562-19.179688 2.527344l-15.730468 9.082031c-5.847657 3.375-10.027344 8.824219-11.777344 15.34375-.542969 2.03125-.828125 4.085937-.867188 6.132813-24.035156 11.320312-53.230468 2.492187-66.75-20.921876l-38.824218-67.25c-13.523438-23.421874-6.5625-53.128906 15.273437-68.285156 3.757813 2.082032 8.003906 3.183594 12.308594 3.183594 4.285156 0 8.625-1.085938 12.59375-3.378906l15.730469-9.082032c12.066406-6.96875 16.21875-22.457031 9.25-34.527343l-74.292969-128.675781c-3.375-5.847657-8.824219-10.03125-15.347657-11.777344-6.519531-1.746094-13.332031-.8515628-19.179687 2.527344l-15.726563 9.078124c-5.847656 3.378907-10.03125 8.828126-11.777343 15.347657-.578125 2.15625-.859375 4.34375-.867188 6.519531-24.910156 15.707031-45.25 37.597656-59.050781 63.664062-2.585938 4.878907-.722656 10.929688 4.15625 13.515626 4.882812 2.585937 10.933594.722656 13.519531-4.15625 11.507813-21.738282 28.171875-40.1875 48.535157-53.835938l67.140624 116.289062c-13.101562 9.601563-22.484374 23.273438-26.75 39.191407-4.953124 18.496093-2.410156 37.816406 7.164063 54.398437l38.824219 67.25c18.429687 31.914063 57.855468 44.308594 90.847656 29.832032l67.140625 116.289062c-60.085937 29.511719-133.445313 15.125-177.832031-36.050781-3.015625-3.472657-6-7.019531-8.960938-10.578125.535156-1.488282 1.039063-2.992188 1.503906-4.507813h11.386719c5.519531 0 10-4.476562 10-10v-37.621093c0-5.523438-4.480469-10-10-10h-11.421875c-1.816406-5.917969-4.183594-11.632813-7.089844-17.101563l8.082032-8.082031c3.902344-3.902344 3.902344-10.234375 0-14.140625l-26.601563-26.601563c-1.878906-1.875-4.421875-2.929687-7.074219-2.929687-2.648437 0-5.191406 1.054687-7.070312 2.929687l-8.082031 8.082032c-5.464844-2.90625-11.179688-5.273438-17.097657-7.089844v-11.421875c0-5.523438-4.480468-10-10-10h-19.460937c-8.273437-18.285157-15.792969-37.144531-22.34375-56.105469-4.089844-11.832031-6.675781-24.121094-7.683594-36.519531-.449219-5.503907-5.261719-9.597657-10.777343-9.152344-5.507813.445313-9.605469 5.273437-9.15625 10.777344 1.144531 14.066406 4.078124 28.003906 8.714843 41.425781 5.84375 16.917969 12.441407 33.753906 19.636719 50.199219-3.820312 1.40625-6.550781 5.066406-6.550781 9.375v11.386719c-5.929688 1.8125-11.65625 4.179687-17.136719 7.085937l-8.046875-8.042969c-3.90625-3.90625-10.234375-3.90625-14.140625 0l-26.601562 26.601563c-3.90625 3.90625-3.90625 10.238281 0 14.140625l8.011718 8.011718c-2.921875 5.488282-5.308594 11.226563-7.128906 17.171876h-11.3125c-5.523438 0-10 4.476562-10 10v37.617187c0 5.523437 4.476562 10 10 10h11.277344c1.820312 5.957031 4.203125 11.710937 7.125 17.210937l-7.972656 7.972657c-1.875 1.875-2.929688 4.417969-2.929688 7.070312 0 2.652344 1.054688 5.195313 2.929688 7.070313l26.601562 26.601562c3.90625 3.90625 10.234375 3.90625 14.140625 0l7.972656-7.972656c5.503907 2.921875 11.253907 5.304688 17.210938 7.125v11.28125c0 5.519531 4.476562 9.996094 10 9.996094h37.621093c5.519532 0 10-4.476563 10-9.996094v-11.316406c5.941407-1.820313 11.679688-4.203125 17.167969-7.125l8.011719 8.007812c3.90625 3.90625 10.238281 3.90625 14.144531 0l26.601563-26.601562c.328125-.328125.621094-.679688.894531-1.042969 32.152344 31.449219 74.859375 48.011719 118.109375 48.011719 26.707031 0 53.625-6.332032 78.378906-19.367188 3.84375 2.203125 8.214844 3.375 12.648438 3.375 4.285156 0 8.625-1.089844 12.59375-3.382812l15.730468-9.082032c12.066407-6.964843 16.21875-22.453124 9.25-34.523437zm-294.613281-415.953125c.363281-1.359375 1.238281-2.496094 2.457031-3.203125l15.730469-9.082031c.8125-.46875 1.714844-.707032 2.628907-.707032.457031 0 .917968.058594 1.375.183594 1.359374.363282 2.496093 1.234375 3.199218 2.457032l74.292969 128.675781c1.453125 2.519531.589844 5.75-1.929687 7.207031l-15.730469 9.082031c-2.519531 1.453125-5.75.585938-7.207031-1.933593l-74.289063-128.675782c-.707031-1.21875-.894531-2.640625-.527344-4.003906zm13.332031 437.355469-6.398437-6.398438c-3.328125-3.328125-8.527344-3.882812-12.484375-1.335937-7.832031 5.042968-16.410156 8.605468-25.496094 10.585937-4.59375 1.003907-7.871094 5.070313-7.871094 9.769531v9.023438h-17.621093v-8.996094c0-4.707031-3.28125-8.777344-7.878907-9.773437-9.105468-1.976563-17.695312-5.53125-25.539062-10.570313-3.953125-2.542968-9.148438-1.984375-12.476562 1.339844l-6.359376 6.359375-12.457031-12.460937 6.355469-6.359376c3.328125-3.324218 3.886719-8.519531 1.34375-12.476562-5.042969-7.839844-8.597656-16.433594-10.574219-25.535156-.996093-4.601563-5.0625-7.882813-9.769531-7.882813h-9v-17.621093h9.023438c4.699218 0 8.765624-3.273438 9.769531-7.867188 1.984375-9.09375 5.546875-17.667969 10.589843-25.5 2.546876-3.957031 1.992188-9.15625-1.335937-12.484375l-6.402344-6.398437 12.460938-12.460938 6.421875 6.421875c3.324218 3.324219 8.511718 3.882813 12.46875 1.347656 7.828125-5.023437 16.402344-8.566406 25.480468-10.53125 4.601563-1 7.882813-5.066406 7.882813-9.773437v-9.109375h17.621094v9.132812c0 4.699219 3.273437 8.765625 7.867187 9.769531 9.066406 1.976563 17.625 5.527344 25.441406 10.546876 3.953126 2.542968 9.148438 1.984374 12.476563-1.339844l6.464844-6.464844 12.460937 12.460938-6.464844 6.464843c-3.328124 3.324219-3.886718 8.519531-1.34375 12.476563 5.023438 7.8125 8.570313 16.375 10.550782 25.441406 1 4.59375 5.066406 7.867188 9.769531 7.867188h9.132813v17.621093h-9.109376c-4.703124 0-8.773437 3.28125-9.769531 7.882813-1.972656 9.082031-5.515625 17.652344-10.53125 25.480468-2.539062 3.957032-1.980469 9.144532 1.34375 12.46875l6.421875 6.421876zm262.03125-4.195313-15.730468 9.082032c-2.519532 1.453124-5.75.585937-7.207032-1.929688l-5.242187-9.085938-69.046875-119.59375c-.707031-1.21875-.890625-2.640624-.527344-4 .363282-1.363281 1.238282-2.5 2.457032-3.203124l15.730468-9.082032c.8125-.472656 1.714844-.710937 2.628906-.710937.457032 0 .917969.058593 1.375.183593 1.359376.363282 2.496094 1.234376 3.203126 2.457032l74.289062 128.675781c1.457031 2.519531.589844 5.75-1.929688 7.207031zm0 0"/><path d="m308.753906 266.132812h42.144532c5.523437 0 10-4.480468 10-10 0-5.523437-4.476563-10-10-10h-32.144532v-9.160156c0-5.046875 4.105469-9.15625 9.15625-9.15625h3.832032c16.078124 0 29.15625-13.078125 29.15625-29.15625s-13.078126-29.160156-29.15625-29.160156h-22.988282c-5.523437 0-10 4.476562-10 10s4.476563 10 10 10h22.988282c5.046874 0 9.15625 4.109375 9.15625 9.160156 0 5.046875-4.109376 9.15625-9.15625 9.15625h-3.832032c-16.078125 0-29.15625 13.082032-29.15625 29.15625v19.160156c0 5.519532 4.476563 10 10 10zm0 0"/><path d="m427 266.132812c5.523438 0 10-4.480468 10-10v-80c0-5.523437-4.476562-10-10-10s-10 4.476563-10 10v32.144532h-18.886719c-1.796875 0-3.257812-1.460938-3.257812-3.261719v-28.882813c0-5.523437-4.480469-10-10-10-5.523438 0-10 4.476563-10 10v28.882813c0 12.828125 10.433593 23.261719 23.257812 23.261719h18.886719v27.855468c0 5.519532 4.476562 10 10 10zm0 0"/><path d="m481.421875 203.984375c-3.902344 0-7.632813.730469-11.074219 2.046875v-29.898438c0-5.523437-4.476562-10-10-10-5.523437 0-10 4.476563-10 10v80c0 5.523438 4.476563 10 10 10 5.523438 0 10-4.476562 10-10v-21.074218c0-6.105469 4.96875-11.070313 11.074219-11.070313s11.070313 4.964844 11.070313 11.070313v21.074218c0 5.523438 4.480468 10 10 10 5.523437 0 10-4.476562 10-10v-21.074218c0-17.132813-13.9375-31.074219-31.070313-31.074219zm0 0"/><path d="m452.5625 86.136719c2.558594 0 5.117188-.976563 7.070312-2.929688 3.90625-3.902343 3.90625-10.234375 0-14.140625-15.601562-15.601562-36.34375-24.191406-58.402343-24.191406-22.0625 0-42.804688 8.589844-58.40625 24.191406-3.90625 3.90625-3.90625 10.238282 0 14.140625 3.90625 3.90625 10.234375 3.90625 14.144531 0 11.820312-11.820312 27.542969-18.332031 44.261719-18.332031s32.4375 6.511719 44.261719 18.332031c1.953124 1.953125 4.511718 2.929688 7.070312 2.929688zm0 0"/><path d="m325.242188 51.484375c20.296874-20.296875 47.28125-31.476563 75.988281-31.476563 28.703125 0 55.6875 11.179688 75.984375 31.472657 1.953125 1.953125 4.511718 2.929687 7.070312 2.929687s5.121094-.976562 7.070313-2.929687c3.90625-3.902344 3.90625-10.234375 0-14.140625-24.074219-24.074219-56.082031-37.3320315-90.128907-37.3320315-34.046874 0-66.054687 13.2578125-90.128906 37.3320315-3.90625 3.90625-3.90625 10.238281 0 14.140625 3.910156 3.910156 10.238282 3.90625 14.144532.003906zm0 0"/><path d="m424.902344 113.796875c2.558594 0 5.117187-.980469 7.070312-2.929687 3.90625-3.90625 3.90625-10.238282 0-14.144532-8.210937-8.210937-19.128906-12.734375-30.742187-12.734375-11.617188 0-22.535157 4.523438-30.746094 12.734375-3.90625 3.90625-3.90625 10.238282 0 14.144532 3.90625 3.902343 10.234375 3.902343 14.140625 0 4.4375-4.4375 10.332031-6.878907 16.605469-6.878907 6.273437 0 12.167969 2.441407 16.601562 6.878907 1.953125 1.953124 4.511719 2.929687 7.070313 2.929687zm0 0"/><path d="m394.15625 120.574219c-1.863281 1.863281-2.921875 4.441406-2.921875 7.070312 0 2.632813 1.058594 5.210938 2.921875 7.070313 1.859375 1.859375 4.4375 2.929687 7.066406 2.929687 2.640625 0 5.210938-1.070312 7.082032-2.929687 1.859374-1.859375 2.929687-4.4375 2.929687-7.070313 0-2.628906-1.070313-5.207031-2.929687-7.070312-1.871094-1.859375-4.441407-2.929688-7.082032-2.929688-2.628906 0-5.199218 1.070313-7.066406 2.929688zm0 0"/><path d="m115.664062 347.667969c-27.109374 0-49.164062 22.058593-49.164062 49.167969 0 27.109374 22.054688 49.164062 49.164062 49.164062 27.109376 0 49.164063-22.054688 49.164063-49.164062 0-27.113282-22.054687-49.167969-49.164063-49.167969zm0 78.332031c-16.082031 0-29.164062-13.082031-29.164062-29.167969 0-16.082031 13.082031-29.164062 29.164062-29.164062 16.082032 0 29.164063 13.085937 29.164063 29.164062 0 16.082031-13.082031 29.167969-29.164063 29.167969zm0 0"/><path d="m77.789062 154.945312c2.628907 0 5.210938-1.070312 7.070313-2.929687s2.929687-4.441406 2.929687-7.070313c0-2.628906-1.070312-5.210937-2.929687-7.070312-1.859375-1.867188-4.441406-2.929688-7.070313-2.929688-2.628906 0-5.210937 1.0625-7.070312 2.929688-1.859375 1.859375-2.929688 4.441406-2.929688 7.070312 0 2.628907 1.070313 5.210938 2.929688 7.070313 1.863281 1.859375 4.441406 2.929687 7.070312 2.929687zm0 0"/></svg>