<svg height="512pt" viewBox="0 -46 512 512" width="512pt" xmlns="http://www.w3.org/2000/svg"><g fill-rule="evenodd"><path d="m276 82.90625c-1.53125-1.378906-3.210938-2.59375-5-3.632812-1.789062 1.039062-3.46875 2.257812-5 3.632812-6.132812 5.503906-10 13.476562-10 22.3125v15h30v-15c0-8.835938-3.871094-16.808594-10-22.3125zm0 0" fill="#ff5a5a"/><path d="m246 200.222656c0 16.699219 10.378906 31.085938 25 37.050782 14.625-5.964844 25-20.351563 25-37.050782v-80.003906h-50zm0 0" fill="#ff5a5a"/><path d="m482 10h-359.5c-11 0-20 9-20 20v260h399.5v-260c0-11-9-20-20-20zm-186 150.222656v40c0 22-18 39.996094-40 39.996094s-40-17.996094-40-39.996094v-80.003906h10v-15c0-8.835938 3.871094-16.808594 10-22.3125 5.316406-4.773438 12.335938-7.6875 20-7.6875s14.683594 2.914062 20 7.6875c6.128906 5.503906 10 13.476562 10 22.3125v15h10zm0 0" fill="#ffeeac"/><path d="m502 310v-20h-399.5v20c0 11 9 20 20 20h359.5c11 0 20-9 20-20zm0 0" fill="#0586ad"/><path d="m257.25 330-20 80h83.75l-20-80zm0 0" fill="#3b4268"/></g><path d="m482 0h-452c-16.542969 0-30 13.457031-30 30v280c0 16.542969 13.457031 30 30 30h168.191406l-16.894531 67.574219c-.75 2.988281-.074219 6.152343 1.816406 8.578125 1.894531 2.429687 4.804688 3.847656 7.882813 3.847656h130.003906.023438c5.519531 0 10-4.476562 10-10 0-1.070312-.167969-2.101562-.480469-3.0625l-16.734375-66.9375h168.191406c16.542969 0 30-13.457031 30-30v-280c0-16.542969-13.457031-30-30-30zm-452 20h452c5.515625 0 10 4.484375 10 10v250h-472v-250c0-5.515625 4.484375-10 10-10zm278.191406 380h-104.382812l15-60h74.382812zm173.808594-80h-452c-5.515625 0-10-4.484375-10-10v-10h472v10c0 5.515625-4.484375 10-10 10zm0 0"/><path d="m391.003906 260.003906h.476563c5.523437 0 10-4.480468 10-10 0-5.523437-4.476563-10.003906-10-10.003906h-.476563c-5.519531 0-10 4.480469-10 10.003906 0 5.519532 4.476563 10 10 10zm0 0"/><path d="m420.566406 260.003906h41.433594c5.523438 0 10-4.480468 10-10 0-5.523437-4.476562-10.003906-10-10.003906h-41.433594c-5.523437 0-10 4.480469-10 10.003906 0 5.519532 4.476563 10 10 10zm0 0"/><path d="m173.5 150.222656c-5.523438 0-10 4.476563-10 10 0 5.519532 4.476562 10 10 10h32.5v20h-11.875c-2.652344 0-5.195312 1.054688-7.070312 2.929688l-20.625 20.625c-3.90625 3.902344-3.90625 10.234375 0 14.140625 1.953124 1.953125 4.511718 2.929687 7.070312 2.929687s5.117188-.976562 7.070312-2.929687l17.695313-17.695313h8.738281c4.648438 22.792969 24.851563 40 48.996094 40s44.351562-17.207031 48.996094-40h8.734375l17.695312 17.695313c1.953125 1.953125 4.511719 2.929687 7.074219 2.929687 2.558594 0 5.117188-.976562 7.070312-2.929687 3.902344-3.902344 3.90625-10.234375 0-14.140625l-20.625-20.625c-1.875-1.875-4.417968-2.929688-7.070312-2.929688h-11.875v-20h32.5c5.523438 0 10-4.480468 10-10 0-5.523437-4.476562-10-10-10h-32.5v-20.003906h11.875c2.652344 0 5.195312-1.050781 7.074219-2.925781l20.621093-20.628907c3.90625-3.902343 3.90625-10.234374 0-14.140624-3.902343-3.90625-10.234374-3.90625-14.140624 0l-17.695313 17.695312h-17.734375v-5c0-10.117188-3.78125-19.363281-10-26.414062v-19.023438c0-5.523438-4.476562-10-10-10s-10 4.476562-10 10v6.703125c-3.195312-.828125-6.550781-1.265625-10-1.265625-3.453125 0-6.804688.4375-10 1.265625v-6.703125c0-5.523438-4.476562-10-10-10s-10 4.476562-10 10v19.023438c-6.214844 7.050781-10 16.296874-10 26.414062v5h-17.730469l-17.699219-17.695312c-3.902343-3.90625-10.234374-3.90625-14.140624 0-3.90625 3.902343-3.90625 10.234374 0 14.144531l20.625 20.625c1.875 1.875 4.417968 2.925781 7.070312 2.925781h11.875v20.003906zm112.5 50c0 13.035156-8.359375 24.148438-20 28.277344v-68.277344c0-5.523437-4.476562-10-10-10s-10 4.476563-10 10v68.277344c-11.640625-4.128906-20-15.242188-20-28.277344v-70.003906h60zm-50-95.003906c0-11.027344 8.972656-20 20-20s20 8.972656 20 20v5h-40zm0 0"/><path d="m50 60h41.4375c5.523438 0 10-4.480469 10-10 0-5.523438-4.476562-10-10-10h-41.4375c-5.523438 0-10 4.476562-10 10 0 5.519531 4.476562 10 10 10zm0 0"/><path d="m120.519531 60h.476563c5.523437 0 10-4.480469 10-10 0-5.523438-4.476563-10-10-10h-.476563c-5.519531 0-10 4.476562-10 10 0 5.519531 4.476563 10 10 10zm0 0"/></svg>